<?xml version="1.0" encoding="iso-8859-1" ?>
              <svg
                version="1.1"
                xmlns="http://www.w3.org/2000/svg"
                xmlns:xlink="http://www.w3.org/1999/xlink"
                viewBox="0 0 939 626"
                width="939"
                height="626"
              >
                <g transform="translate(130.975 40.5) scale(0.783 0.783) rotate(0 150.08939974457215 199.87228607918263)"><g clip-path="url(#clipPath_G2LBvvlwSFBoXjRmky3hJ)"><defs>
          <clipPath id="clipPath_G2LBvvlwSFBoXjRmky3hJ">
            <rect x="0" y="0" width="300" height="400" />
          </clipPath>
       </defs> <path d="M258.866,362.453l-5.205-14.201c-1.877-0.091-3.724,0.113-5.516,0.714l5.625,15.354  c0.315,0.861-0.126,1.814-0.987,2.131c-0.861,0.315-1.814-0.126-2.131-0.987l-5.522-15.068c-1.673,1.048-3.11,2.43-4.288,4.066  l4.66,12.713c0.315,0.861-0.126,1.814-0.989,2.131c-0.861,0.315-1.814-0.126-2.131-0.987l-3.66-9.985  c-2.102,5.2-2.224,11.789,0.146,18.259c0.056,0.152,0.113,0.3,0.171,0.449c-1.219,0.702-2.407,1.462-3.549,2.302  c-3.202,2.352-7.331,6.343-8.812,11.999l1.605,0.42c1.357-5.185,5.2-8.888,8.188-11.082c1.03-0.756,2.105-1.449,3.213-2.093  c2.486,5.508,6.463,9.793,10.916,12.16l-3.478-9.488c-0.315-0.861,0.126-1.814,0.987-2.131c0.861-0.315,1.814,0.126,2.131,0.989  l4.48,12.226c1.954,0.483,3.939,0.591,5.877,0.27l-5.206-14.207c-0.315-0.861,0.126-1.814,0.987-2.131  c0.861-0.315,1.814,0.126,2.131,0.989l5.278,14.401c1.701-0.752,3.219-1.88,4.582-3.266l-4.766-13.003  c-0.315-0.861,0.126-1.814,0.987-2.131c0.861-0.315,1.814,0.126,2.131,0.987l4.096,11.176c1.324-1.88,2.478-3.994,3.513-6.183  l-2.571-7.016c-0.315-0.861,0.126-1.814,0.987-2.131c0.861-0.315,1.814,0.126,2.131,0.989l1.369,3.737  c2.53-6.283,4.323-12.285,6.437-14.291c-3.58-0.752-8.677-4.18-14.322-7.225l1.772,4.836c0.315,0.861-0.126,1.814-0.989,2.131  c-0.861,0.315-1.814-0.126-2.131-0.989l-2.987-8.151c-2.187-0.995-4.416-1.829-6.637-2.346l4.586,12.518  c0.315,0.861-0.126,1.814-0.987,2.131C260.136,363.757,259.181,363.315,258.866,362.453z" fill="#E0EBFE"/> <path d="M136.137,80.734" fill="none" stroke="#23286B"/> <rect x="75.945" y="77.081" width="68.186" height="16.134" fill="#D62929"/> <rect x="71.747" y="66.164" width="68.186" height="11.097" fill="#428DFC"/> <rect x="80.629" y="80.465" width="64.021" height="9.37" fill="#D6D7D8"/> <rect x="80.629" y="87.549" width="64.021" height="1.181" fill="#EEEEEE"/> <rect x="80.629" y="85.188" width="64.021" height="1.181" fill="#EEEEEE"/> <rect x="80.629" y="82.827" width="64.021" height="1.181" fill="#EEEEEE"/> <rect x="80.629" y="80.465" width="64.021" height="1.181" fill="#EEEEEE"/> <rect x="72.168" y="49.788" width="80.437" height="16.134" fill="#D62929"/> <rect x="77.693" y="53.171" width="75.525" height="9.37" fill="#D6D7D8"/> <rect x="77.693" y="60.257" width="75.525" height="1.181" fill="#EEEEEE"/> <rect x="77.693" y="57.896" width="75.525" height="1.181" fill="#EEEEEE"/> <rect x="77.693" y="55.533" width="75.525" height="1.181" fill="#EEEEEE"/> <rect x="77.693" y="53.171" width="75.525" height="1.181" fill="#EEEEEE"/> <rect x="20.849" y="377.582" width="68.186" height="16.134" fill="#D62929"/> <rect x="16.651" y="366.665" width="68.186" height="11.097" fill="#428DFC"/> <rect x="25.533" y="380.964" width="64.021" height="9.37" fill="#D6D7D8"/> <rect x="25.533" y="388.05" width="64.021" height="1.181" fill="#EEEEEE"/> <rect x="25.533" y="385.687" width="64.021" height="1.181" fill="#EEEEEE"/> <rect x="25.533" y="383.326" width="64.021" height="1.181" fill="#EEEEEE"/> <rect x="25.533" y="380.964" width="64.021" height="1.181" fill="#EEEEEE"/> <rect x="17.07" y="350.288" width="80.437" height="16.134" fill="#D62929"/> <rect x="22.596" y="353.672" width="75.525" height="9.37" fill="#D6D7D8"/> <rect x="22.596" y="360.756" width="75.525" height="1.181" fill="#EEEEEE"/> <rect x="22.596" y="358.395" width="75.525" height="1.181" fill="#EEEEEE"/> <rect x="22.596" y="356.033" width="75.525" height="1.181" fill="#EEEEEE"/> <rect x="22.596" y="353.672" width="75.525" height="1.181" fill="#EEEEEE"/> <rect x="10.875" y="93.356" width="241.404" height="5.039" fill="#D6D7D8"/> <rect x="9.352" y="394.961" width="241.404" height="5.039" fill="#D6D7D8"/> <rect x="21.897" width="20.154" height="93.216" fill="#D62929"/> <rect x="156.103" y="20.278" transform="matrix(0.9383 -0.3458 0.3458 0.9383 -9.6838 59.7083)" width="12.791" height="73.433" fill="#1D72D8"/> <rect x="169.644" y="20.279" transform="matrix(0.9383 -0.3458 0.3458 0.9383 -8.8486 64.3912)" width="12.791" height="73.433" fill="#428DFC"/> <rect x="187.605" y="21.373" transform="matrix(0.8883 -0.4592 0.4592 0.8883 -5.0101 95.5742)" width="12.789" height="73.43" fill="#78A9EF"/> <rect x="161.599" y="228.986" transform="matrix(-0.9383 -0.3458 0.3458 -0.9383 233.744 573.105)" width="12.791" height="73.433" fill="#1D72D8"/> <rect x="148.058" y="228.986" transform="matrix(-0.9383 -0.3458 0.3458 -0.9383 207.4984 568.423)" width="12.791" height="73.433" fill="#428DFC"/> <rect x="206.553" y="117.061" width="13.13" height="80.676" fill="#428DFC"/> <g>  <rect x="219.47" y="111.471" width="20.415" height="86.265" fill="#23286B"/>  <rect x="223.749" y="110.811" width="11.852" height="80.998" fill="#D6D7D8"/>  <rect x="232.713" y="110.811" width="1.494" height="80.998" fill="#EEEEEE"/>  <rect x="229.724" y="110.811" width="1.494" height="80.998" fill="#EEEEEE"/>  <rect x="226.737" y="110.811" width="1.494" height="80.998" fill="#EEEEEE"/>  <rect x="223.749" y="110.811" width="1.494" height="80.998" fill="#EEEEEE"/> </g> <rect x="187.177" y="102.562" width="19.091" height="95.173" fill="#D62929"/> <rect x="232.253" y="328.003" width="10.763" height="66.134" fill="#428DFC"/> <rect x="216.37" y="316.12" width="15.65" height="78.02" fill="#D62929"/> <rect x="45.201" width="20.154" height="93.216" fill="#D62929"/> <rect x="18.56" y="132.357" width="14.459" height="66.871" fill="#A1C3FC"/> <rect x="76.89" y="134.58" transform="matrix(0.9652 -0.2616 0.2616 0.9652 -40.7994 27.4025)" width="11.277" height="64.74" fill="#78A9EF"/> <rect x="78.516" y="171.454" transform="matrix(0.9652 -0.2616 0.2616 0.9652 -42.3115 28.0366)" width="11.277" height="2.986" fill="#D6D7D8"/> <rect x="18.56" y="174.832" width="14.459" height="4.375" fill="#428DFC"/> <rect x="18.56" y="183.391" width="14.459" height="4.375" fill="#428DFC"/> <rect x="36.156" y="132.357" width="14.459" height="66.871" fill="#A1C3FC"/> <rect x="36.156" y="174.832" width="14.459" height="4.375" fill="#428DFC"/> <rect x="36.156" y="183.391" width="14.459" height="4.375" fill="#428DFC"/> <rect x="53.751" y="132.357" width="14.459" height="66.871" fill="#A1C3FC"/> <rect x="53.751" y="174.832" width="14.459" height="4.375" fill="#428DFC"/> <rect x="53.751" y="183.391" width="14.459" height="4.375" fill="#428DFC"/> <rect x="100.248" y="324.932" transform="matrix(0.988 -0.1545 0.1545 0.988 -54.3622 20.9934)" width="15.271" height="70.626" fill="#A1C3FC"/> <rect x="102.081" y="369.649" transform="matrix(0.988 -0.1545 0.1545 0.988 -56.1499 21.4171)" width="15.271" height="4.62" fill="#428DFC"/> <rect x="103.479" y="378.581" transform="matrix(0.988 -0.1545 0.1545 0.988 -57.513 21.7404)" width="15.271" height="4.62" fill="#428DFC"/> <rect x="119.047" y="324.933" transform="matrix(0.988 -0.1545 0.1545 0.988 -54.1365 23.8977)" width="15.271" height="70.626" fill="#A1C3FC"/> <rect x="120.878" y="369.65" transform="matrix(0.988 -0.1545 0.1545 0.988 -55.9243 24.3213)" width="15.271" height="4.62" fill="#428DFC"/> <rect x="122.276" y="378.582" transform="matrix(0.988 -0.1545 0.1545 0.988 -57.2875 24.6445)" width="15.271" height="4.62" fill="#428DFC"/> <rect x="137.844" y="324.934" transform="matrix(0.988 -0.1545 0.1545 0.988 -53.9109 26.8019)" width="15.271" height="70.626" fill="#A1C3FC"/> <rect x="139.676" y="369.65" transform="matrix(0.988 -0.1545 0.1545 0.988 -55.6987 27.2256)" width="15.271" height="4.62" fill="#428DFC"/> <rect x="141.073" y="378.582" transform="matrix(0.988 -0.1545 0.1545 0.988 -57.0619 27.5487)" width="15.271" height="4.62" fill="#428DFC"/> <rect x="100.232" y="132.357" width="14.459" height="66.871" fill="#A1C3FC"/> <rect x="100.232" y="174.832" width="14.459" height="4.375" fill="#428DFC"/> <rect x="100.232" y="183.391" width="14.459" height="4.375" fill="#428DFC"/> <rect x="117.829" y="132.357" width="14.459" height="66.871" fill="#A1C3FC"/> <rect x="117.829" y="174.832" width="14.459" height="4.375" fill="#428DFC"/> <rect x="117.829" y="183.391" width="14.459" height="4.375" fill="#428DFC"/> <rect x="135.424" y="132.357" width="14.459" height="66.871" fill="#A1C3FC"/> <rect x="135.424" y="174.832" width="14.459" height="4.375" fill="#428DFC"/> <rect x="135.424" y="183.391" width="14.459" height="4.375" fill="#428DFC"/> <rect x="87.917" y="244.632" width="12.608" height="58.309" fill="#A1C3FC"/> <rect x="87.917" y="274.575" width="12.608" height="7.63" fill="#428DFC"/> <rect x="87.917" y="289.13" width="12.608" height="3.814" fill="#428DFC"/> <rect x="103.259" y="244.632" width="12.608" height="58.309" fill="#A1C3FC"/> <rect x="103.259" y="274.575" width="12.608" height="7.63" fill="#428DFC"/> <rect x="103.259" y="289.13" width="12.608" height="3.814" fill="#428DFC"/> <rect x="118.603" y="244.632" width="12.608" height="58.309" fill="#A1C3FC"/> <rect x="118.603" y="274.575" width="12.608" height="7.63" fill="#428DFC"/> <rect x="118.603" y="289.13" width="12.608" height="3.814" fill="#428DFC"/> <rect x="21.897" y="25.109" width="20.154" height="42.997" fill="#E94A47"/> <rect x="45.201" y="25.109" width="20.154" height="42.997" fill="#E94A47"/> <rect x="16.712" y="237.502" width="14.072" height="65.081" fill="#23286B"/> <rect x="33.006" y="237.184" transform="matrix(0.9984 -0.0573 0.0573 0.9984 -15.3889 2.7375)" width="14.074" height="65.087" fill="#D62929"/> <rect x="16.712" y="255.033" width="14.072" height="30.02" fill="#1D72D8"/> <rect x="70.565" y="237.502" width="14.072" height="65.081" fill="#D62929"/> <rect x="70.565" y="255.033" width="14.072" height="30.02" fill="#E94A47"/> <rect x="33.006" y="254.717" transform="matrix(0.9984 -0.0573 0.0573 0.9984 -15.389 2.7375)" width="14.074" height="30.023" fill="#E94A47"/> <rect x="49.842" y="236.796" transform="matrix(0.9906 -0.1368 0.1368 0.9906 -36.3105 10.313)" width="14.072" height="65.081" fill="#D62929"/> <rect x="49.842" y="254.327" transform="matrix(0.9906 -0.1368 0.1368 0.9906 -36.3106 10.313)" width="14.072" height="30.02" fill="#E94A47"/> <linearGradient id="SVGID_1_G2LBvvlwSFBoXjRmky3hJ" gradientUnits="userSpaceOnUse" x1="12.4912" y1="647.3708" x2="82.9441" y2="647.3708" gradientTransform="matrix(0.2134 0 0 0.2134 213.0549 128.9843)">  <stop offset="0" stop-color="#81AEF2"/>  <stop offset="1" stop-color="#78A9EF"/> </linearGradient> <rect x="215.721" y="232.385" width="15.038" height="69.55" fill="url(#SVGID_1_G2LBvvlwSFBoXjRmky3hJ)"/> <linearGradient id="SVGID_2_G2LBvvlwSFBoXjRmky3hJ" gradientUnits="userSpaceOnUse" x1="81.8094" y1="647.3708" x2="152.2624" y2="647.3708" gradientTransform="matrix(0.2134 0 0 0.2134 213.0549 128.9843)">  <stop offset="0" stop-color="#81AEF2"/>  <stop offset="1" stop-color="#78A9EF"/> </linearGradient> <rect x="230.516" y="232.385" width="15.038" height="69.55" fill="url(#SVGID_2_G2LBvvlwSFBoXjRmky3hJ)"/> <linearGradient id="SVGID_3_G2LBvvlwSFBoXjRmky3hJ" gradientUnits="userSpaceOnUse" x1="12.4912" y1="647.3707" x2="82.9441" y2="647.3707" gradientTransform="matrix(0.2134 0 0 0.2134 213.0549 128.9843)">  <stop offset="0" stop-color="#A1C3FC"/>  <stop offset="1" stop-color="#78A9EF"/> </linearGradient> <rect x="215.721" y="251.12" width="15.038" height="32.081" fill="url(#SVGID_3_G2LBvvlwSFBoXjRmky3hJ)"/> <linearGradient id="SVGID_4_G2LBvvlwSFBoXjRmky3hJ" gradientUnits="userSpaceOnUse" x1="81.8094" y1="647.3707" x2="152.2624" y2="647.3707" gradientTransform="matrix(0.2134 0 0 0.2134 213.0549 128.9843)">  <stop offset="0" stop-color="#A1C3FC"/>  <stop offset="1" stop-color="#78A9EF"/> </linearGradient> <rect x="230.516" y="251.12" width="15.038" height="32.081" fill="url(#SVGID_4_G2LBvvlwSFBoXjRmky3hJ)"/> <linearGradient id="SVGID_5_G2LBvvlwSFBoXjRmky3hJ" gradientUnits="userSpaceOnUse" x1="-124.1682" y1="647.3708" x2="-53.7152" y2="647.3708" gradientTransform="matrix(0.2134 0 0 0.2134 213.0549 128.9843)">  <stop offset="0" stop-color="#81AEF2"/>  <stop offset="1" stop-color="#78A9EF"/> </linearGradient> <rect x="186.552" y="232.385" width="15.038" height="69.55" fill="url(#SVGID_5_G2LBvvlwSFBoXjRmky3hJ)"/> <linearGradient id="SVGID_6_G2LBvvlwSFBoXjRmky3hJ" gradientUnits="userSpaceOnUse" x1="-54.8502" y1="647.3708" x2="15.6028" y2="647.3708" gradientTransform="matrix(0.2134 0 0 0.2134 213.0549 128.9843)">  <stop offset="0" stop-color="#81AEF2"/>  <stop offset="1" stop-color="#78A9EF"/> </linearGradient> <rect x="201.348" y="232.385" width="15.038" height="69.55" fill="url(#SVGID_6_G2LBvvlwSFBoXjRmky3hJ)"/> <linearGradient id="SVGID_7_G2LBvvlwSFBoXjRmky3hJ" gradientUnits="userSpaceOnUse" x1="-124.1682" y1="647.3707" x2="-53.7152" y2="647.3707" gradientTransform="matrix(0.2134 0 0 0.2134 213.0549 128.9843)">  <stop offset="0" stop-color="#A1C3FC"/>  <stop offset="1" stop-color="#78A9EF"/> </linearGradient> <rect x="186.552" y="251.12" width="15.038" height="32.081" fill="url(#SVGID_7_G2LBvvlwSFBoXjRmky3hJ)"/> <linearGradient id="SVGID_8_G2LBvvlwSFBoXjRmky3hJ" gradientUnits="userSpaceOnUse" x1="-54.8502" y1="647.3707" x2="15.6028" y2="647.3707" gradientTransform="matrix(0.2134 0 0 0.2134 213.0549 128.9843)">  <stop offset="0" stop-color="#A1C3FC"/>  <stop offset="1" stop-color="#78A9EF"/> </linearGradient> <rect x="201.348" y="251.12" width="15.038" height="32.081" fill="url(#SVGID_8_G2LBvvlwSFBoXjRmky3hJ)"/> <rect x="10.875" y="197.716" width="241.404" height="5.039" fill="#D6D7D8"/> <rect x="155.105" y="280.009" transform="matrix(-0.9383 -0.3458 0.3458 -0.9383 215.0643 605.0087)" width="12.791" height="6.623" fill="#D6D7D8"/> <linearGradient id="SVGID_9_G2LBvvlwSFBoXjRmky3hJ" gradientUnits="userSpaceOnUse" x1="-302.7126" y1="560.0397" x2="-186.8351" y2="560.0397" gradientTransform="matrix(0.2134 0 0 0.2134 213.0549 128.9843)">  <stop offset="0" stop-color="#A1C3FC"/>  <stop offset="1" stop-color="#78A9EF"/> </linearGradient> <polygon points="148.443,263.577 160.445,268.002 173.176,233.462 161.176,229.039 " fill="url(#SVGID_9_G2LBvvlwSFBoXjRmky3hJ)"/> <rect x="10.875" y="302.074" width="241.404" height="5.039" fill="#D6D7D8"/> <g>  <g>   <path d="M213.698,394.798c-0.069,0-0.139-0.009-0.209-0.03c-0.405-0.114-0.64-0.536-0.524-0.94    c5.036-17.699,11.418-35.248,18.971-52.156c0.171-0.384,0.621-0.559,1.005-0.384c0.384,0.171,0.556,0.621,0.384,1.005    c-7.522,16.843-13.878,34.321-18.896,51.951C214.335,394.579,214.03,394.798,213.698,394.798z" fill="#A1C3FC"/>  </g>     <ellipse transform="matrix(-0.4038 0.9149 -0.9149 -0.4038 639.3636 264.0688)" cx="233.634" cy="340.374" rx="3.525" ry="9.425" fill="#1C2868"/>  <g>   <path d="M233.554,340.698c-0.105,0-0.213-0.023-0.314-0.069c-0.384-0.174-0.553-0.625-0.379-1.007    c4.311-9.505,9.062-18.955,14.122-28.089c0.206-0.369,0.667-0.498,1.036-0.297c0.367,0.204,0.501,0.667,0.297,1.036    c-5.04,9.098-9.773,18.512-14.067,27.979C234.12,340.532,233.842,340.698,233.554,340.698z" fill="#A1C3FC"/>  </g>     <ellipse transform="matrix(-0.3128 0.9498 -0.9498 -0.3128 620.996 170.3694)" cx="248.867" cy="309.831" rx="4.247" ry="11.356" fill="#1C2868"/>  <g>   <path d="M248.991,310.259c-0.128,0-0.256-0.032-0.373-0.097c-0.367-0.207-0.497-0.67-0.289-1.037    c4.245-7.536,8.786-15.007,13.496-22.206c0.23-0.353,0.705-0.452,1.053-0.221c0.352,0.228,0.451,0.702,0.221,1.053    c-4.692,7.173-9.214,14.616-13.443,22.119C249.515,310.119,249.256,310.259,248.991,310.259z" fill="#A1C3FC"/>  </g>     <ellipse transform="matrix(-0.5895 0.8078 -0.8078 -0.5895 651.1489 239.9136)" cx="264.612" cy="285.414" rx="4.247" ry="11.356" fill="#1C2868"/>  <g>   <path d="M264.433,285.111c-0.146,0-0.292-0.041-0.422-0.128c-0.349-0.233-0.445-0.707-0.212-1.056    c3.644-5.459,7.473-10.896,11.388-16.159c0.254-0.34,0.733-0.405,1.065-0.158c0.338,0.251,0.41,0.73,0.158,1.065    c-3.9,5.243-7.714,10.66-11.342,16.096C264.919,284.992,264.679,285.111,264.433,285.111z" fill="#A1C3FC"/>  </g>     <ellipse transform="matrix(-0.5895 0.8078 -0.8078 -0.5895 656.1732 197.5242)" cx="277.896" cy="265.496" rx="5.694" ry="15.227" fill="#1C2868"/>  <g>   <path d="M278.481,265.419c-0.161,0-0.324-0.05-0.462-0.157c-0.335-0.254-0.401-0.731-0.145-1.066    c2.655-3.488,5.401-6.969,8.16-10.347c0.27-0.326,0.748-0.372,1.072-0.108c0.326,0.267,0.373,0.746,0.108,1.072    c-2.749,3.365-5.485,6.832-8.131,10.306C278.936,265.315,278.709,265.419,278.481,265.419z" fill="#A1C3FC"/>  </g> </g> </g></g>
              </svg>