<?xml version="1.0" encoding="iso-8859-1" ?>
              <svg
                version="1.1"
                xmlns="http://www.w3.org/2000/svg"
                xmlns:xlink="http://www.w3.org/1999/xlink"
                viewBox="0 0 939 626"
                width="939"
                height="626"
              >
                <g transform="translate(41.91 79.5) scale(0.445 0.444) rotate(0 237.2808988764045 352.47747747747746)"><g clip-path="url(#clipPath_KibRk0ptVKejPP3rY8NZC)"><defs>
          <clipPath id="clipPath_KibRk0ptVKejPP3rY8NZC">
            <rect x="0" y="0" width="474.8" height="705.3" />
          </clipPath>
       </defs><title>Artboard 1</title><rect x="58.2" y="489" width="183.4" height="4.2" fill="#346e93"/><path d="M68.5,474.5l-1-6.5,1.6-6.5c0-2.2.2-4.2.4-6.4l-1.7-6.6,2.1-6.6c-.5-2.3-1.1-4.6-1.7-6.8a58.725,58.725,0,0,0-.8-7.2,17.746,17.746,0,0,0-3.4-7.8,11.753,11.753,0,0,0-4.1-3.6,14.392,14.392,0,0,0-5.3-1.4,17.657,17.657,0,0,0-4.6.7,23.4,23.4,0,0,0-2.4.9c-.8.4-1.5.8-2.2,1.2a17.66,17.66,0,0,0-4.5,7.7,32.532,32.532,0,0,0-2.6,7,52.568,52.568,0,0,0-3.8,6.5c.2,2.4.6,4.8,1,7.1-.2,2.2-.4,4.5-.5,6.7-.6,2.2-1.2,4.4-1.8,6.7l1.5,6.6,1.2,6.5-2,6.6,2.2,6.4c-.4,2.2-.8,4.3-1.2,6.4l1.1,6.5-1.7,6.5,1.9,6.5-1.3,6.5,1.1,6.5-1.7,6.5,1.1,6.5.1,6.5-1.9,6.5v6.5l.3,6.5,1.8,6.5-.3,6.5-1.6,6.5-.4,6.5,1,3.1c.3,1,.6,2.1.8,3.1-.7,2.1-1.4,4.1-2.1,6.2l.6,6.7-1.2,6.6c.1,2.3.2,4.6.5,6.8l.2,3.5.4,3.5c.1,1.2.4,2.4.6,3.6a24.181,24.181,0,0,0,1,3.6c.4,1.2.6,2.5,1,3.8.6,1.2,1.1,2.6,1.8,3.8.9,1.1,1.8,2.2,2.8,3.2a38.759,38.759,0,0,0,3.1,2.6l.9.6,1.1.5,1.1.5c.5.2.9.3,1.4.5a8.331,8.331,0,0,0,1.5.4c.5.1,1,.1,1.5.2a10.123,10.123,0,0,0,3-.2,10.255,10.255,0,0,0,4.7-3.5,8.342,8.342,0,0,0,.8-1.2,5.359,5.359,0,0,0,.5-1.1,13.064,13.064,0,0,0,.8-2.1,43.694,43.694,0,0,0,3.3-6.9,61.6,61.6,0,0,0,2.6-6.7c.2-2.3.4-4.6.5-6.9a51.584,51.584,0,0,0-.3-6.8c.4-2.2.7-4.4,1-6.6l-1.4-6.6.5-2,.4-1.6c.1-.4,1.1-2.2-5.3-2.5H63c.9-.1,1.9-.1,2.6-.2,1.6-.2,2.1-.5,2.1-.8a28.251,28.251,0,0,0-.5-5v-6.6l-.5-6.7.9-6.5,1.2-6.5-.7-6.6.9-6.5-.7-6.5-.2-6.5.4-6.5-1.3-6.5,1-6.5.7-6.5-.8-6.5,1.2-6.5-.2-6.5-.4-6.5,1.3-6.5Z" fill="#102b4c"/><path d="M263.1,624c-.3-2.3-.7-4.6-1.1-6.8l.2-6.7-1-3.2-1-3.1a14.159,14.159,0,0,1,.4-2l.3-1.5c.1-.4,1.1-2.1-5.4-2.3h.5c1-.1,1.9-.1,2.6-.2,1.6-.2,2-.5,2.1-.8a29.373,29.373,0,0,0-.5-5.1v-6.7l-.5-6.7.9-6.6,1.2-6.6-.7-6.7.9-6.6-.7-6.6-.2-6.6.4-6.6-1.3-6.6,1-6.6.7-6.6-.8-6.6,1.2-6.6-.2-6.6-.4-6.6,1.3-6.6-1.2-6.6-1-6.6,1.7-6.6.4-6.5-1.7-6.8c.7-2.2,1.4-4.5,2-6.8-.5-2.3-1.2-4.7-1.9-7a32.019,32.019,0,0,0-1.4-7.5,17.27,17.27,0,0,0-2-4.1,10.23,10.23,0,0,0-4.1-3.6,11.284,11.284,0,0,0-5.3-1.6,10.454,10.454,0,0,0-2.5,0c-.8.1-1.5.2-2.3.3a17.406,17.406,0,0,0-8.1,5.8,22.05,22.05,0,0,0-2.1,8,41.77,41.77,0,0,0-1.6,7q-1.8,3.3-3.3,6.6c.4,2.4.8,4.7,1.3,7-.2,2.3-.3,4.5-.4,6.8-.6,2.2-1.1,4.5-1.7,6.8l1.5,6.7,1.3,6.6-2,6.7,2.1,6.5-1.4,6.5,1.1,6.6-1.8,6.6,1.9,6.6-1.3,6.6,1.1,6.6-1.7,6.6,1.1,6.6.1,6.6-2,6.6v6.6l.3,6.6,1.8,6.6-.3,6.6-1.6,6.6-.4,6.5,1.9,6.6-1.7,6.6,1.1,6.7c-.3,2.2-.5,4.5-.7,6.7.2,2.3.5,4.5.8,6.8.1,2.3.3,4.5.5,6.8s.3,4.4.7,7a14.651,14.651,0,0,0,3.1,9,11.293,11.293,0,0,0,4.8,3,14.625,14.625,0,0,0,5.5.7,17.682,17.682,0,0,0,8.8-3.4,21.5,21.5,0,0,0,4.6-7.3,23.944,23.944,0,0,0,2.1-3.4c.6-1.2,1.1-2.4,1.6-3.6a48.386,48.386,0,0,0,2.5-7.3A43.287,43.287,0,0,0,263.1,624Z" fill="#102b4c"/><path d="M272.3,396.8a30.892,30.892,0,0,0-6.9-6.6,52.966,52.966,0,0,0-7.6-4.6,71.684,71.684,0,0,0-7.5-4.6c-2.7-.9-5.5-1.7-8.2-2.4a82.864,82.864,0,0,0-8.7,1.3c-1.4-.1-2.8-.2-4.2-.2H227l-2,.1-7.7-3.6-7.7,2.7-7.7-.3-7.7-2.7-7.8,2.1-7.8,1.6-7.7-3.6-7.8,3-7.7-2.2-7.8,1.8-7.7-2.7-7.8,3.2-7.7-2-7.8,1.8c-2.5-.9-5-1.8-7.5-2.8-2.5.5-5.1,1-7.6,1.5l-7.7-.1-7.6-3.6-7.9-.3c-2.7.1-5.3.2-8,.3-2.7,1-5.4,2-8,3-2.7-.1-5.3-.2-8-.1l-8-1.9c-2.6,0-5.4,0-8.2.2-2.7,1.5-5.4,3.1-7.9,4.8a35.73,35.73,0,0,0-9.8.7l-2.1,1.7c-.7.7-1.4,1.3-2,2a20.28,20.28,0,0,0-1.8,2.3c-.5.8-1,1.6-1.4,2.4a32.684,32.684,0,0,0-5.9,8.4,32.313,32.313,0,0,0-.9,9.8A29.27,29.27,0,0,0,7.4,417a22.725,22.725,0,0,0,4.9,9.5c.5.8,1.1,1.6,1.7,2.4a20.886,20.886,0,0,0,2,2.2c.7.6,1.6,1.4,2.2,1.9l1.8,1.4a58.707,58.707,0,0,0,8.1,3.6c2.8.8,5.6,1.7,8.4,2.3,1.5-.1,3-.3,4.4-.5s2.9-.4,4.3-.7l4,1.1,4,.9a6.529,6.529,0,0,0,2,.5l2,.3c1.4.1,2.7.7,4.1-.2l2-1.5,1-.7.5-.4.2-.1.1-.1h0v-.4h.1c1.3,0,2.6.1,4,.1,2.6-.1,5.3-.2,7.9-.4,2.6.2,5.3.7,7.9.7l7.6-1.9c.8.1,1.6.2,2.5.4l1.9.4c.5.1,2.9,1.1,2.5-5.7h.1a.9.9,0,0,0,.1.5c.2,1,.3,2,.5,2.8.4,1.7.8,2.2,1.1,2.2a56.73,56.73,0,0,0,5.8-.5c2.5.1,5.1,0,7.6.1,2.5-.2,5.1-.3,7.6-.5,2.5.4,5.1.9,7.6,1.4l7.6,1.9,7.8-.5L153,441l7.8-.6h7.9c2.6.2,5.2.5,7.9.6,2.6-.5,5.3-1.2,7.9-1.8,2.6.4,5.3.7,8,1,2.7.1,5.4.3,8.1.3l4-1c.7-.2,1.1-.3,1.7-.5l1.7-.4c2.4.4,4.8,1,7.4,1.5l7.7-.2c2.6-.2,5.2-.3,7.9-.5,2.7.6,5.4,1.2,8.2,1.6a85.415,85.415,0,0,0,8.2-2.5,71.789,71.789,0,0,0,8.1-3.2,39.2,39.2,0,0,0,9.6-1.5,28.483,28.483,0,0,0,8.3-6.7,25.013,25.013,0,0,0,2.3-10.4,21.461,21.461,0,0,0,3.4-10.7A23.087,23.087,0,0,0,272.3,396.8Z" fill="#346e93"/><path d="M386.9,564.5c-.3-.8-.5-1.6-.8-2.3l-.6-2.3,1.8-2.2-1.4-2.3,1-2.2L386,551l1.2-2.2-1.5-2.2.8-2.2-.9-2.2,1.1-2.2-1-2.1-.3-2.2a20.619,20.619,0,0,0,1.2-2.6,22.912,22.912,0,0,0-.7-2.8,15.569,15.569,0,0,0-1.6-2.8,10.315,10.315,0,0,0-3-1.4,11.233,11.233,0,0,0-2-1.8,13.015,13.015,0,0,0-1.8-2.3l-2.4-1.2a22.881,22.881,0,0,0-2.8.8c-.7-.5-1.4-1.1-2.2-1.6a18.243,18.243,0,0,0-2.5.7l-2.4-.6-2.4.6a20.024,20.024,0,0,0-2.4.4,20.481,20.481,0,0,0-2.4.5,12.187,12.187,0,0,0-2.7,0l-2.4.9c-.8.4-1.5.8-2.3,1.3-.5.8-.9,1.7-1.3,2.5a15.916,15.916,0,0,0-2.2,1.3,19.649,19.649,0,0,0-2.5,1.3,17.1,17.1,0,0,0-1.3,2.3,19.752,19.752,0,0,0-.8,2.6,10.887,10.887,0,0,0-1.4,2.3s.1.7.2,1.5a8.071,8.071,0,0,0,.3,1.4l-.4.8-.3.6c-.1.2-.4.6,1.2.9v2.1l.3,2.2a16.958,16.958,0,0,1-.4,2.2l-.6,2.2.3,2.2-.5,2.2.4,2.2.1,2.2-.2,2.2.8,2.2a20.481,20.481,0,0,0-.5,2.4,12.188,12.188,0,0,0,0,2.7,13.989,13.989,0,0,0,1.6,2.6,10.315,10.315,0,0,0,1.4,3,12.54,12.54,0,0,0,2.4,1.6,9.889,9.889,0,0,0,2.4.9c.6.6,1.2,1.2,1.9,1.8a22.6,22.6,0,0,0,2.6.1h2.5c.7.5,1.4,1.1,2.1,1.6a20.481,20.481,0,0,0,2.4.5c.8-.3,1.7-.8,2.5-1.2.8.5,1.5.9,2.4,1.4.8-.4,1.6-.8,2.3-1.2a19.419,19.419,0,0,0,2.4-.2c.8-.1,1.6-.1,2.4-.2a21.052,21.052,0,0,0,2.5.2l2.4-.6,1.8-2.1a11.382,11.382,0,0,0,2.5-1.8,7.934,7.934,0,0,0,3.5-2.3,9.058,9.058,0,0,0-.6-3.2l.4-2.2Z" fill="#1b557a"/><path d="M176,618.4c-.3-.8-.5-1.6-.8-2.3l-.6-2.3,1.8-2.2-1.4-2.3,1-2.2-.9-2.2,1.2-2.2-1.5-2.2.8-2.2-.9-2.2,1.1-2.2-1-2.1-.3-2.2a11.947,11.947,0,0,0,1.1-2.6,22.912,22.912,0,0,0-.7-2.8,15.569,15.569,0,0,0-1.6-2.8,10.315,10.315,0,0,0-3-1.4,11.233,11.233,0,0,0-2-1.8,13.015,13.015,0,0,0-1.8-2.3l-2.4-1.2a22.881,22.881,0,0,0-2.8.8c-.7-.5-1.4-1.1-2.2-1.6a18.243,18.243,0,0,0-2.5.7l-2.4-.6-2.4.6a20.024,20.024,0,0,0-2.4.4,20.481,20.481,0,0,0-2.4.5,12.187,12.187,0,0,0-2.7,0l-2.4.9c-.8.4-1.5.8-2.3,1.3-.5.8-.9,1.7-1.3,2.5a15.916,15.916,0,0,0-2.2,1.3,19.649,19.649,0,0,0-2.5,1.3,17.1,17.1,0,0,0-1.3,2.3,19.752,19.752,0,0,0-.8,2.6,10.887,10.887,0,0,0-1.4,2.3s.1.7.2,1.5a8.071,8.071,0,0,0,.3,1.4l-.4.8-.3.6c-.1.2-.4.6,1.2.9v2.1l.3,2.2a16.958,16.958,0,0,1-.4,2.2l-.6,2.2.3,2.2-.5,2.2.4,2.2.1,2.2-.2,2.2.8,2.2a20.481,20.481,0,0,0-.5,2.4,12.188,12.188,0,0,0,0,2.7,13.989,13.989,0,0,0,1.6,2.6,10.315,10.315,0,0,0,1.4,3,12.54,12.54,0,0,0,2.4,1.6,9.889,9.889,0,0,0,2.4.9c.6.6,1.2,1.2,1.9,1.8a22.6,22.6,0,0,0,2.6.1h2.5c.7.5,1.4,1.1,2.1,1.6a20.481,20.481,0,0,0,2.4.5,19.234,19.234,0,0,0,2.5-1.2c.8.5,1.5.9,2.4,1.4.8-.4,1.6-.8,2.3-1.2a19.419,19.419,0,0,0,2.4-.2c.8-.1,1.6-.1,2.4-.2a21.052,21.052,0,0,0,2.5.2l2.4-.6,1.8-2.1a11.382,11.382,0,0,0,2.5-1.8,7.934,7.934,0,0,0,3.5-2.3,9.058,9.058,0,0,0-.6-3.2l.4-2.2Z" fill="#1b557a"/><path d="M414.9,348.4c-.5-4.2-1-8.3-1.7-12.5-.5-4.2-1-8.2-1.8-12.4a60.94,60.94,0,0,0-2.6-12.7,33.378,33.378,0,0,0-6.9-11.8,29.082,29.082,0,0,0-11.5-8.1,53.373,53.373,0,0,0-13.2-2c-4.3-.2-8.4-.1-12.6,0-4.2-.3-8.3-.5-12.5-.7-4.1.4-8.3.9-12.4,1.4l-12.4.1-12.2,2.2H302.7l-12.2,1.8-12.4-.4L266,295.9l-12.3.6a111.284,111.284,0,0,0-12.9.5,49.334,49.334,0,0,0-12.2,5.4c-3.9,2-7.4,4.2-10.9,6.1a85.427,85.427,0,0,1-11,4.1c-3.6,1.9-7.3,3.8-11,5.9a55.068,55.068,0,0,0-11.5,6.1,36.522,36.522,0,0,0-9.6,9.6,46.358,46.358,0,0,0-4.6,12.4,103.085,103.085,0,0,0-3.4,12.4c-.6,4.2-1.1,8.2-1.5,12.5a57,57,0,0,0,1.5,13,27.311,27.311,0,0,0,3.4,13.7,21.6,21.6,0,0,0,2.5,2.7,30.839,30.839,0,0,0,2.7,2.4l3,2c1,.6,2.1,1.1,3.1,1.6a42.436,42.436,0,0,0,12.9,4.2,70.723,70.723,0,0,0,13-.5c4.3.3,8.5.4,12.7.3,4.1-.9,8.2-1.9,12.2-3l12.2-1.5,12.3-1,12.1-2.7,12.3-1.4c4.5-.9,8.4-2.2,12.4-3.4s7.7-2.5,11.6-3.6a74.78,74.78,0,0,1,11.5-2c3.7-.2,7.3.5,9.2,2.1a5.071,5.071,0,0,1,.9,1.6,18.243,18.243,0,0,1,.7,2.5,25.123,25.123,0,0,1,.4,2.7,26.352,26.352,0,0,1,.2,2.8,77.543,77.543,0,0,1,.3,11.8c-.2,4-.5,8.1-.8,12.2-.5,4.1-1.1,8.2-1.3,12.6l.4,12.3,1.5,12.3.1,12.3.1,12.3c-.3,3.9-.9,7.9-1.5,12a109.92,109.92,0,0,0-.3,12.8,36.811,36.811,0,0,0,3.4,13.4,24.5,24.5,0,0,0,9.5,11.1c1.2.5,2.4.9,3.6,1.3a21.359,21.359,0,0,0,3.5.6,50,50,0,0,0,6.7.2,90.726,90.726,0,0,0,12.8.6c4.2-.5,8.3-1.1,12.4-1.8,4.2-.3,8.3-.6,12.4-1a38.994,38.994,0,0,0,6.7-1.8,18.17,18.17,0,0,0,6.5-4.2,17.623,17.623,0,0,0,4-6.7,31.43,31.43,0,0,0,1.3-6.8c.3-3,1.3-5.9.5-8.8-.2-.5.3-3-2.1-3.2h-.8v-.1h.3a4.5,4.5,0,0,0,2.8-.4c1.2-.8.6-2.3.6-2.8l.1-4.1.1-4c.2-4.1.5-8.3.6-12.4.5-4.1.9-8.2,1.3-12.4l-.6-12.4.8-12.3-.8-12.3,1.2-12.3c-.1-4.1-.2-8.2-.2-12.2l.4-12.2.4-12.3.8-12.3c-.3-4.2-.7-8.3-1.1-12.4C414.1,356.7,414.6,352.6,414.9,348.4Z" fill="#0b1b30"/><path d="M329.7,169a39.5,39.5,0,0,0-11.4-10.9,43.086,43.086,0,0,0-5.9-4.4,17.684,17.684,0,0,1-2.2-1.6,7.518,7.518,0,0,1-1.5-1.6c-.6-1-1.2-2-1.9-3a15.38,15.38,0,0,0-3.6-3.6,24.666,24.666,0,0,0-8.9-4,31.079,31.079,0,0,0-4.3.3c-.7.1-1.3.2-2,.3l-1.7.3-2.8.6-2.8.3a40.484,40.484,0,0,1-11.5-1.1,38.166,38.166,0,0,1-8.6-7.9,41.809,41.809,0,0,1-10-5.9,50.665,50.665,0,0,1-4.8-10.6,60.052,60.052,0,0,1-5.5-10.7c-.4-4.2-.7-8.7-1.4-13.4a59.92,59.92,0,0,0-8.2-12.3,34.158,34.158,0,0,0-4-6.6,33.53,33.53,0,0,0-5.6-5.7,49.611,49.611,0,0,0-14-4.9,89.374,89.374,0,0,0-13.4-4.9h-3.5l-3.5.2c-2.3.1-4.6.3-6.9.5-4.5,0-9,.3-13.5.7-2.3-.2-4.5-.4-6.8-.6s-4.6-.3-6.9-.4c-4.5.7-8.9,1.4-13.3,2.4-2.2.5-4.4,1.1-6.6,1.7s-4.5,1.3-6.6,2c-4.2,2.1-8.2,4.4-12.2,6.9a117.059,117.059,0,0,0-12.5,5.7,98.184,98.184,0,0,0-12.7,6A86.978,86.978,0,0,0,77.8,92c-1.3,2-2.5,4.2-3.6,6.2s-2.1,4.3-3.1,6.4c-1.6,1.7-3.1,3.5-4.6,5.3s-2.8,3.7-4.3,5.6a118.73,118.73,0,0,0-4.1,13.2c-1.9,4.1-3.6,8.3-5.2,12.6-1,4.4-1.8,8.8-2.5,13.2-1,4.3-1.8,8.7-2.6,13s-1.6,8.6-2.4,13l-3.7,12.7-2.4,12.7c-.8,4.2-1.6,8.5-2.4,12.7-.1,4.4-.3,8.7-.6,13.1-1.2,4.2-2.6,8.3-3.9,12.4-1.6,4-3.3,8.1-4.9,12.1-1,4.2-2,8.4-3.1,12.5-.9,4.2-1.8,8.4-2.8,12.7-1.6,4-3.2,8-4.9,12l-1.1,6.4-1.2,6.4-1.9,3.7L11,312.8c-.4.7-2.8,4,5,6.9h0l.4.1a23.347,23.347,0,0,0,2.5.7c.1.4.1.7.2,1,.4,1.5,1,2,1.6,2,3.3.5,6.7.3,10,.5,4.4.4,8.7.8,13.1,1.1l13.1.4L70,327.2l13.1,2c4.4-.1,8.8-.1,13.1-.3l13.1,1.3,13-.6,13,.1c4.4.3,8.8.5,13.2.7,4.4-.5,8.9-1.1,13.3-1.8,4.5.2,9,.3,13.5.2a104.364,104.364,0,0,0,13.7-1.5,85.973,85.973,0,0,0,13-5.2c2.2-.6,4.5-1.2,6.7-2l6.6-2.4a91.536,91.536,0,0,0,11.7-7.8,28.765,28.765,0,0,0,2.7-2.2l2.6-2.4,2.6-2.4c.8-.8,1.6-1.7,2.4-2.6a46.91,46.91,0,0,0,5.4-4.6,60.172,60.172,0,0,0,5.1-5c1.1-2.1,2.4-4.1,3.4-6.2s2-4.2,3-6.4l2.6-6.4,2.2-6.5c2.4-3.9,4.6-7.9,6.7-12,.8-2.1,1.5-4.3,2.1-6.5s1.3-4.3,1.9-6.5c.3-4.6.4-9.1.4-13.6,1.7-4.4,2.9-8.7,4.4-12.7a60.656,60.656,0,0,1,.9-12c1.4-3.5,3.3-6.4,5.8-8.1,2.3-1.7,5.8-2.6,9.3-2.7a20.419,20.419,0,0,1,6.4,1.4,2.181,2.181,0,0,0,.4.5c.3.3.7.6,1.1,1,1.3,1,2.9,2.4,4.5,3.8s3.4,3,5.4,4.6c.9.4,2.9,1.6,4.6,2.2a15.75,15.75,0,0,0,5.2,1.2,11.467,11.467,0,0,0,8.9-3.5,5.5,5.5,0,0,0,.7-.9,12.616,12.616,0,0,0,2.4-4.4,29.873,29.873,0,0,0,1-5.2,38.61,38.61,0,0,0-.1-7.6A39.784,39.784,0,0,0,329.7,169Z" fill="#fff"/><path d="M215.3,158.2l-.1-.9-.2-1.1a10.758,10.758,0,0,0-2-4.5,7.163,7.163,0,0,0-5.5-3,7.579,7.579,0,0,0-3,.5,10.092,10.092,0,0,0-2.1,1.5c-.5.5-1,1.1-1.5,1.7-.1.3-.2.7-.3,1a.8.8,0,0,1-.6-1c0-.1.1-.2.2-.3l-.1.1c-.4.3-.7.1-.9-.3l.3-.9c.1-.4.3-.8.4-1.2l.9-2.4c.8-1.6,1.6-3.2,2.4-5a26.8,26.8,0,0,0,.5-6.3c0-.3.1-.6.1-.8V134a19.67,19.67,0,0,0-.3-2.4,10.1,10.1,0,0,0-.7-2.3,5.64,5.64,0,0,0-1.1-2,8.008,8.008,0,0,0-2.1-1.5,5.8,5.8,0,0,0-5.4.7,9.217,9.217,0,0,0-3,3.5,18.943,18.943,0,0,0-1,2.1l-.5,1.3-2.3,4.9-2.4,4.9-2.8,4.6-1.1,2.3c-.1.2-.3.5-.4.7-.1.1-.1.2-.2.2a1.268,1.268,0,0,1-.6.1,3.128,3.128,0,0,1-1-.5,5.291,5.291,0,0,1-.9-3c-.4-1.3-.6-3.2-1-5-.6-1.8-1.3-3.6-2-5.3-.4-1.8-.7-3.6-1.2-5.4s-1-3.6-1.5-5.3-.7-3.7-1.2-5.5c-.6-1.8-1.4-3.5-2.1-5.2a46.627,46.627,0,0,0-2.5-5c-.7-1.7-1.5-3.4-2.2-5.1-1.3-1.4-2.5-2.8-3.9-4.1-.8-1.6-1.8-3.2-2.7-4.8-1.2-1.4-2.4-2.9-3.6-4.2a20.358,20.358,0,0,0-3.6-4.6,11.088,11.088,0,0,0-3-1.7,7.757,7.757,0,0,0-3.7-.5,7.888,7.888,0,0,0-3.5,1.3,5.583,5.583,0,0,0-2.1,3.3,5.164,5.164,0,0,0,1.1,4.6c.2.2.7,1.2,1.5.8a.215.215,0,0,0,.2-.2h0l-.2.1a9.737,9.737,0,0,0-2.4,1.5c-.9.9,0,1.1.1,1.3l.8,1.5a12.712,12.712,0,0,0,.9,1.5c.7,1.6,1.4,3.2,2,4.9l.8,5.3,2.3,4.8.3,2.6.2,2.7c.7,1.6,1.4,3.2,2,4.9l-.3,5.4a47.034,47.034,0,0,1,1.2,5.1c.3,1.7.6,3.5.8,5.2l.7,5.2c.1,1.8.1,3.5.1,5.3.6,1.7,1.3,3.5,1.8,5.2l-1.4,5.4,1.3,5.3.6,5.4-.3,5.5.2,5.4-.4,5.4.9,5.4.7,5.4c-.2,1.8-.4,3.6-.6,5.5.4,1.8.7,3.6,1.1,5.4l-.4,5.5a32.756,32.756,0,0,0,2.3,5.9,11.185,11.185,0,0,0,1.2,3.5,6.507,6.507,0,0,0,8,3.4,11.129,11.129,0,0,0,3.5-1.6,30.6,30.6,0,0,0,5.8-2.7c1-1.7,2-3.3,2.9-5l4.2-3.6c1.6-1,3.1-2.2,4.6-3.3,1-1.6,1.9-3.3,2.8-5l3.6-4.2c1.3-1.4,2.7-2.7,3.9-4.1.6-1.9,1.2-3.7,1.7-5.5,1-1.5,2-3.1,3-4.7,1.1-1.5,2.1-3,3.2-4.6.7-1.7,1.3-3.5,1.9-5.2,1-1.6,2-3.1,3-4.8.7-1.7,1.5-3.4,2.1-5.1.2-1.9.5-3.8.6-5.7l1.6-2.4a18.667,18.667,0,0,0,1.5-3.2A9.15,9.15,0,0,0,215.3,158.2Z" fill="#96cdef"/><path d="M103.7,290.9a34.181,34.181,0,0,0-2.1-4.3c.1-1.5.2-3,.2-4.5-.6-1.4-1.2-2.8-1.9-4.1a33.812,33.812,0,0,0,.1-4.5l-2.2-3.9-1.6-4-.1-4.5-1.6-3.9-1.9-3.8-3-3.3-1.4-3.9-.5-4.3L86.4,238l-3-3.2-.2-4.3c-.8-1.2-1.5-2.4-2.2-3.6-.3-1.3-.4-2.7-.6-4-.6-1.2-1-2.5-1.5-3.8a39.227,39.227,0,0,1-1.4-7.9l.4-4.2-.3-4.1-.4-4.2-1.8-4.2v-4.3c.2-1.5.3-3,.4-4.5a40.4,40.4,0,0,0-1.1-4.4,22.807,22.807,0,0,0-2.3-4.7,18.212,18.212,0,0,0-1.5-2.7,9.9,9.9,0,0,0-2.5-2.5,4.875,4.875,0,0,0-1.1-.4,20.024,20.024,0,0,0-2.4-.4,12.7,12.7,0,0,0-3.4.5,8.524,8.524,0,0,0-2.3.3,6.632,6.632,0,0,0-1.9.9,2.094,2.094,0,0,0-1.1,1.5c-.1.7.4,1.5,1.9,2.4H58c-.5.1-.7.3-.7.5a30.618,30.618,0,0,0-.5,3.2c-.3,1.4-.6,2.8-.8,4.1s-.3,2.8-.4,4.2l-1,4.1-1.1,4.1c-.1,1.4-.1,2.8-.1,4.2l-.9,4.2V209c-.1,1.4-.2,2.8-.2,4.2l-.5,4.2.6,4.2-.7,4.2c-.2,1.4-.3,2.8-.5,4.2l.6,4.2-.7,4.3.3,4.2.6,4.2c-.2,1.5-.4,2.9-.6,4.4l1.3,4.1c.4,1.4.9,2.7,1.3,4.1l-.6,4.4.6,4.3c.8,1.3,1.5,2.6,2.4,3.9l-.5,4.5c.7,1.3,1.5,2.6,2.3,3.8l1,4.2c.3,1.4.7,2.8,1.1,4.1.2,1.5.3,2.9.5,4.4a35.232,35.232,0,0,0,1.5,4.2,36.06,36.06,0,0,0,3.3,3.5c.8,1.3,1.6,2.6,2.5,3.8a29.112,29.112,0,0,0,1.6,5,23.347,23.347,0,0,0,4.9,2.1,26.958,26.958,0,0,0,4.4,2.4,17.448,17.448,0,0,0,4.9,2.5,18.014,18.014,0,0,0,5.5-1.5,13.808,13.808,0,0,0,4.6-2.9,16.958,16.958,0,0,0,5.3-2.4,16.33,16.33,0,0,0,1.2-5.4,21.053,21.053,0,0,0,2.4-4.4,25.923,25.923,0,0,0-.4-4.8C102.9,294.1,103.3,292.5,103.7,290.9Z" fill="#96cdef"/><path d="M197.9,497.6l1.1-11.3-.5-11.4,1.3-11.3c-.1-3.8-.2-7.6-.2-11.3l-.1-11.4c0-2.7,1.1-5.3-.2-8-.2-.4.1-2.8-2.9-2.9a3.4,3.4,0,0,0-1,.1V430h.3a8.279,8.279,0,0,0,3.5-.5c1.4-.8.5-2.1.5-2.6l-.4-7.4V408.1c.4-3.8.7-7.6,1-11.4-.4-3.8-.8-7.6-1.3-11.4.2-3.8.2-7.7.2-11.5l-2-11.2c.1-3.8.2-7.7.1-11.7a81.634,81.634,0,0,0-3-11.8,38.764,38.764,0,0,0-5.7-11.3A35.033,35.033,0,0,0,179,319a26.39,26.39,0,0,0-2.9-1.5,19.446,19.446,0,0,0-3-1.3,42.381,42.381,0,0,0-6.1-1.7c-2.1,0-4.2.1-6.2.3l-3,.3a28.855,28.855,0,0,0-2.9-.4l-2.9-1-1.5-.5a6.579,6.579,0,0,0-1.5-.4c-1.9-.6-3.8-1-5.8-1.5a36.975,36.975,0,0,0-5.7.7l-5.6,1-11.3,1-11.4-.3-11.3.6-11.3-.4-11.2,1.5-11.2,1-5.6-.6c-1.8-.2-3.6-.5-5.4-.8-3.7.3-7.5.5-11.3.7a97.149,97.149,0,0,0-12.1-1.1,39.631,39.631,0,0,0-12.4,5.1,23.991,23.991,0,0,0-11.7,8.6,33,33,0,0,0-3,13.1A43.689,43.689,0,0,0,1,347.6a40.551,40.551,0,0,0-.8,6.9,42.653,42.653,0,0,0,6.3,11.7,74.743,74.743,0,0,0,5.4,11c1.8,3.6,3.8,7.2,5.8,10.7,1.5,1.3,3,2.6,4.4,3.9l1.1.9,1.6,1.2,1.6,1.2,1.6.9a38.769,38.769,0,0,0,12.3,5.4,96.261,96.261,0,0,0,12,3.2c4.1-.6,8-1.3,11.9-2.2,3.9.1,7.7,0,11.6,0l5.6.2c.4,0,.8.1,1,.1a.52.52,0,0,1,.4.2.781.781,0,0,1,.4.4,1.421,1.421,0,0,1,.6.2c.1.1.2.1.3.2a2.186,2.186,0,0,1,.3.5,13.358,13.358,0,0,1,1.1,3.9L83.8,419c-.2,3.8-.3,7.7-.4,11.5.6,3.8,1.4,7.7,2.2,11.5-.9,3.8-1.7,7.7-2.5,11.5.4,3.8.9,7.7,1.3,11.5.1,3.8.3,7.7.5,11.5L88,487.7l-.6,11.7,3.8,11c.6,3.8,1,7.6,1.6,11.4.4,3.8.8,7.7,1.3,11.6,1.5,3.6,2.8,7.2,4.4,10.8.9,3.8,1.7,7.6,2.8,11.3,1.5,3.6,2.8,7.2,4.4,10.8s3.3,7,5.2,10.4l2.6,5.2a58.59,58.59,0,0,0,3,5.5,17.921,17.921,0,0,0,5.5,5.8,20.674,20.674,0,0,0,7.1,2.8c1.1.3,2.2.6,3.2.8a7.613,7.613,0,0,0,2.1.3l1.4.1,5.5.6c3.7.1,7.6.2,11.4.2s7.8.2,11.8,0a66.4,66.4,0,0,0,12.6-.4l3.2-1c1.1-.4,2.1-.8,3.2-1.2a29.619,29.619,0,0,0,3.1-1.5,24.639,24.639,0,0,0,3.4-2.2,22.039,22.039,0,0,0,4.8-6.8,22.28,22.28,0,0,0,1.7-7.2,52.355,52.355,0,0,0,1-12.5l-.1-5.6v-2.7l.1-2.8,1.6-11.3.2-11.3-.3-11.3,1.1-11.3Z" fill="#0b1b30"/><path d="M374,247.7c-.3-2.7-.9-5.3-1.4-7.9l-.7-4-.9-3.9c-1-2.5-2-5-3-7.4-.7-2.6-1.4-5.1-2.1-7.7l-2.8-7.4-3.9-6.9c-.5-2.6-1-5.2-1.4-7.8-1-2.4-2-4.8-2.8-7.1a59.02,59.02,0,0,1-1.5-7.3,57.229,57.229,0,0,1-1.9-7.4c.1-2.6.4-5.1.6-7.7l-1.2-7.8c0-2.6,0-5.2-.1-8s-.2-5.4-.4-8c-.6-2.6-1.2-5.1-1.7-7.5a45.7,45.7,0,0,1,0-7.4,71.54,71.54,0,0,1,1.4-14.6,58.774,58.774,0,0,1,2.3-7.1c.9-2.3,2.4-4.8,2.7-8a9.837,9.837,0,0,0-.5-5.1,7.835,7.835,0,0,0-3.9-4.3,7.38,7.38,0,0,0-6,.1,11.2,11.2,0,0,0-3.9,3.2,13.227,13.227,0,0,0-2.3,4.2,20.692,20.692,0,0,0-1,4.3,8.331,8.331,0,0,1-.4,1.5.215.215,0,0,1-.2.2c-.1.1-.2,0-.3-.1v.1h0l-.1-.1h-.2l-.1-.1-.3-.4-.6-.8-.7-.9a11.985,11.985,0,0,0-1.1-1.2,5.727,5.727,0,0,0-2.8-1.4,4.574,4.574,0,0,0-5.1,2.6,4.714,4.714,0,0,0-.6,1.5l-.3,1.2a15.17,15.17,0,0,0-.3,2.1,73,73,0,0,0-.2,8,15.523,15.523,0,0,1-1.8,6.6,14.33,14.33,0,0,1-4.1,5,68.536,68.536,0,0,1-6.1,4.5,34.1,34.1,0,0,0-6.8,5,15.042,15.042,0,0,0-3.1,8.6l-.2,2.2v2.1c.1,1.4.2,2.7.4,4.1.4,1.3.7,2.6,1.1,3.9l.3,1a3.4,3.4,0,0,0,.1,1l.4,2c.3,2.7.7,5.4,1.1,8.1,1,2.5,2.1,4.9,3.1,7.3s2.1,4.8,3,7.1c.7,1.7.5,3.6,2,5a2.118,2.118,0,0,0,2.5,1.3.1.1,0,0,0,.1-.1c.2-.1.5-.1.7-.2v.1h0l-.2.1a6.59,6.59,0,0,0-2.4,1.1c-.9.9.1,1.5.2,1.8,0,.1.2.3.4.8s.4.9.4.9a4.163,4.163,0,0,1,0,2.7c-.3,0-.6-.3-.8-.6l-.6-.9a9.385,9.385,0,0,1-.6-1.5c-.4-.1-.1.4-2.8-2.2-.8-1.1-1.8-2.2-2.7-3.3-.5-.5-1-1.1-1.6-1.6a10.04,10.04,0,0,0-2-1.6c-.5-.2-1.1-.4-1.6-.6a9.467,9.467,0,0,0-2.9-.2c-.7.1-1.4.2-2,.3a28.468,28.468,0,0,0-3.9,1.1,33.051,33.051,0,0,0-4.5,1.2,20.965,20.965,0,0,0-4.2,2.2,26.57,26.57,0,0,0-5.8,7.1,38.317,38.317,0,0,0-3.8,7.9,62.885,62.885,0,0,0-2.9,16.6,55.758,55.758,0,0,0,1.8,8.1l-.1,4.1c0,1.4,0,2.8.1,4.2.4,1.3.9,2.6,1.4,3.9s1,2.5,1.6,3.8c.9,2.5,1.9,5.1,3,7.5.8,2.6,1.8,5.1,2.8,7.6,1.2,2.4,2.4,4.8,3.7,7.2,1.1,2.5,2.5,4.8,3.7,7.2,1.7,2.1,3.4,4.2,5.2,6.2s3.6,4,5.5,6l2.5,3.2c.8,1.1,1.8,2.1,2.6,3.1,1.1.9,2.2,1.7,3.4,2.5s2.3,1.6,3.5,2.3l3.4,2.5c1.2.8,2.4,1.5,3.7,2.2a38.9,38.9,0,0,0,8.4,1.5l4.1,1.1a30.669,30.669,0,0,0,4.2.7l2.1-.1,2.1-.4a27.271,27.271,0,0,0,4.1-1l4.3-.4,4.3-1,.9-.6.9-.7,1.7-1.4,1.6-1.4,1.4-1.7A49.449,49.449,0,0,0,372.2,281a39.4,39.4,0,0,0,1.9-8.4c.4-1.4.5-2.7.8-4.1a28.958,28.958,0,0,0,.6-4.1c.2-1.4.4-2.7.5-4.1l.3-4.1A68.638,68.638,0,0,0,374,247.7Z" fill="#1b557a"/><path d="M320.2,124.6c-.5.6-.1.3-.1.3l.4.1.2.4-.3.9h.7l-.2.8.8-.1-.4,1,.5.1.4.3.4.3.2.5,1.1-.4-.5,1.2.9-.2.5.1.1.6.4.3v.6h.7l.6.1-.1.8h.7l-.1.8,1-.3-.2.9.7-.1-.4,1.1,1.2-.6.1.6-.3,1,.9-.2.2.5-.1.8,1.2-.5.2.4v.6h.6l-.2.7.3.4,1-.3-.5,1.2.5.1.2.4.9-.2-.3,1,.9-.2.1.5-.1.8h.7l.1.6.5.2.6.1.5.2.4.3.1.5.4.3.3.4v.6l.4.2.9-.2.3.3.3.3-.1.6.3.3.4.2v.4a2.719,2.719,0,0,1,.9,0v.4a.758.758,0,0,0,.4.2.758.758,0,0,1-.2.4c.1.1.2.2.2.3a.367.367,0,0,1,.1.3c0,.1-.2.1.1.3,0,0,0,.1.7.2l.3.1.6.1h.5v-1.1c0-.2-.1-.4-.1-.6a1.421,1.421,0,0,1,.2-.6,1.854,1.854,0,0,0,.2-.7,1,1,0,0,0-.4-.5l.1-.7a2.181,2.181,0,0,0-.5-.4c-.1-.2-.2-.3-.3-.5l-.1-.6a1.7,1.7,0,0,0-.7-.1v-.7l-.1-.8-.6-.1v-.7l-.4-.3-.5-.2.1-.8h-1.3l.3-.9-.2-.4-1,.3.4-1-.9.2-.3-.4-.2-.4.1-.8-.2-.4-1,.3-.4-.3.6-1.2-1,.3-.3-.4.3-1-.9.2h-.7l.6-1.2-1.1.4.2-.9-.8.1.3-1-1.1.4.2-.8-.8.1.3-1-.8.1-.4-.3.5-1.1-.4-.3-.5-.2-1.1.4-.2-.4.3-1-.2-.5-1.2.5.3-1-.9.2v-.6l-.6-.1-.3-.3-.3-.4.2-.8-.2-.4-.3-.3-1,.3v-.6l.3-.9-.5-.2h-.6l-.1-.6-1,.3.1-.3v-.2s.1-.1-.2,0a15.667,15.667,0,0,0-2.1,1.9Z" fill="#102b4c"/><path d="M339.8,88.8a10.31,10.31,0,0,0-4.1-5.1,27.754,27.754,0,0,0-5.1-1.7c-1.5-.8-2.9-1.5-4.4-2.2s-2.9-1.6-4.4-2.3c-1.6-.5-3.2-.9-4.8-1.3s-3.2-.6-4.9-.9c-1.6-.5-3.1-1-4.7-1.4l-2.5-.1h-2.5l-1.5-.5-1.2-.4c-.3-.1-1.7-.8-2.1,2.4h0V73.8c-.1-.8-.3-1.1-.5-1.1-1.2-.2-2.4-.1-3.6-.2-1.6-.2-3.1-.5-4.7-.7s-3.2-.4-4.7-.6c-1.5-.5-3-.9-4.6-1.4s-3-1.1-4.5-1.7c-1.6-.3-3.1-.6-4.7-1l-4.4-1.8-4.7-1.2c-1.5-.5-3.1-1-4.7-1.4s-3.1-1-4.7-1.5c-1.7-.2-3.4-.3-5-.4a40.212,40.212,0,0,0-5-1,30.117,30.117,0,0,0-5.2-.1l-2.6.7a18.41,18.41,0,0,0-2.5.9,27.575,27.575,0,0,0-5.1,1.6,26.664,26.664,0,0,0-4.3,3.2,33.42,33.42,0,0,0-3.5,4,25.719,25.719,0,0,0-3.4,4,42,42,0,0,0-1.7,5,22.676,22.676,0,0,0-.6,2.5c-.2.8-.3,1.7-.5,2.5a46.809,46.809,0,0,0-1.8,4.8A44.29,44.29,0,0,0,210,94a45.909,45.909,0,0,0,1,5.1c-.2,1.7-.4,3.4-.5,5.1a38.991,38.991,0,0,0,1.7,4.8,45.048,45.048,0,0,0,1.4,4.9,38.474,38.474,0,0,0,1.9,4.7,40.2,40.2,0,0,0,2.2,4.7,26.438,26.438,0,0,0,3.4,4.1c1.6,1.1,2.9,1.8,4.4,2.7l3.7,3.1,2.9,4,4.3,2.4,3.6,3.2c1.2,1.4,2.4,2.5,3.4,3.7a22.073,22.073,0,0,1,3.6,2.3l.6.6a1,1,0,0,1,.4.5,17.233,17.233,0,0,1,.7,2.1,8.662,8.662,0,0,0,.6,3.2c.5.9,1,1.8,1.6,2.7a49.878,49.878,0,0,0,4.4,2.4c.9,1.1,1.7,2.4,2.8,3.8a14.647,14.647,0,0,0,2.4,1.7,9.612,9.612,0,0,0,2.8,1.1,14.08,14.08,0,0,0,5.7,1.4,19.2,19.2,0,0,0,5.1-2.2,41.616,41.616,0,0,0,5-1.6c1.4-1,2.7-2.1,4-3.2,1.5-.7,3-1.5,4.5-2.3,1.2-1.2,2.3-2.4,3.4-3.6s2.4-2.2,3.5-3.4c1.4-.9,2.8-1.8,4.1-2.8l3.4-3.6,3.2-3.7c.8-1.4,1.7-2.7,2.6-4.1l3.5-3.3,4-2.9,3.5-3.3,2.7-4.2c1.3-1,2.6-2,3.9-3.1l2.7-4.2c1.1-1.2,2.2-2.5,3.2-3.8.9-1.4,1.7-2.9,2.5-4.3s1.7-2.9,2.5-4.3a38.183,38.183,0,0,0,2.1-4.6,29.648,29.648,0,0,0,2-4.9A18.106,18.106,0,0,0,339.8,88.8Z" fill="#346e93"/><path d="M333.6,109.7c-.7.2-.2.1-.2.1l.3.1.1.2-.6.4.5.1-.5.4.5.1-.7.4.3.2.1.2.1.2-.1.3h.9l-.9.5.7.1.3.2-.2.3.1.2-.2.3.5.1.4.2-.5.4.5.1-.4.4h.8l-.6.4.5.1-.8.4h1l-.2.3-.7.4.7.1-.1.3-.4.4h1v.2l-.3.3.4.1-.4.3v.2l.8.1-.9.4.3.2-.1.3.7.1-.6.4.7.1-.1.3-.4.3.5.1-.2.3.2.2.3.2.2.2.1.2-.2.3.1.2v.2l-.3.3.1.2.6.1v.4l-.3.3.1.2.2.2-.2.3.8.1-.2.3.3.2-.3.3.2.2.2.2s-.3.2.2.1c.1,0,0,.1.9-.1l.4-.1.8-.2a1.421,1.421,0,0,0,.6-.2c0-.1-.1-.1-.2-.1l-.1-.2-.2-.2.2-.3.3-.3-.3-.2.2-.3-.3-.2-.1-.2.1-.3-.5-.1.3-.3.2-.3-.3-.2.4-.3-.1-.2-.1-.1.4-.3-.5-.1-.4-.2.6-.4v-.3l-.8-.1.7-.4-.6-.1v-.2l.1-.3.4-.3v-.3l-.8-.1-.1-.2.9-.5-.8-.1v-.3l.7-.4-.6-.1-.5-.1.9-.5h-.9l.5-.4-.5-.1.7-.4H339l.5-.4-.5-.1.7-.4-.6-.1-.1-.2.8-.5-.1-.2-.2-.2h-.9v-.3l.6-.4.1-.3h-1l.6-.4-.6-.1.2-.3-.4-.2-.1-.2v-.2l.5-.4v-.3l-.1-.2h-.8l.3-.3.6-.4-.2-.2-.4-.1.3-.4h-.8l.2-.1.2-.1s.1-.1-.1,0-1,.3-2.6.8Z" fill="#102b4c"/><path d="M354.2,83.1a34.033,34.033,0,0,0-.9-6.4c-.2-2.1-.6-4.1-1-6.2-1.1-1.8-2.1-3.3-3.2-4.9l-1-5.8-2.2-5.3-4.5-4.2c0-2.1-.1-4.2-.3-6.4-1.2-1.6-2.4-3.1-3.6-4.7-.9-1.7-1.9-3.4-2.9-5.1-1.6-1.3-3.3-2.5-5-3.7-.6-2-1.3-3.9-2.1-5.9-1.8-1.1-3.6-2.2-5.4-3.1-1.3-1.5-2.6-3.1-3.9-4.5a58.45,58.45,0,0,0-3.9-4.8c-1.9-.9-3.8-1.7-5.7-2.5-1.6-1.3-3.2-2.5-4.9-3.7a57.7,57.7,0,0,0-5.8-2.2,59.944,59.944,0,0,0-6.1-1.3c-2-.5-4-.8-6-1.1s-4.1-.5-6.1-.6a42.007,42.007,0,0,0-6.2-.7,95.765,95.765,0,0,0-12.1,2.3,61.65,61.65,0,0,0-6.2,1c-1.9.9-3.7,1.9-5.5,2.9-1.5,1.5-2.9,3-4.3,4.7a54.763,54.763,0,0,0-4.9,3.5c-1.6,1.2-3,2.6-4.5,3.9a44.127,44.127,0,0,0-4.9,3.6,43.7,43.7,0,0,0-3.7,4.8,54.49,54.49,0,0,0-2.9,5.3c-1.2,1.6-2.3,3.2-3.4,4.9-.2,2.1-.4,4.2-.5,6.2-.9,1.7-1.8,3.5-2.6,5.2-.4,1.9-.7,3.8-1,5.8a51.963,51.963,0,0,0-2.1,5.5c-.2,1.9-.4,3.9-.5,5.8,0,1.1-.1,2.3-.1,3.4a4.349,4.349,0,0,0-.6.7,5.968,5.968,0,0,0-.9,1.5,10.239,10.239,0,0,0-.8,3,3.174,3.174,0,0,0,.7,2.6,2.177,2.177,0,0,0,.8.5,1.268,1.268,0,0,0,.6.1c.2,0,.4.1.6.1a6.159,6.159,0,0,0,2.6-.6c.5-.1,1.1-.1,1.5-.2,1-.2,1.3-.4,1.3-.6v-.4a7.716,7.716,0,0,1,1.5-.6l.5-.2h.2v-.1h0v-.2a4.44,4.44,0,0,1,2.2-1c1,.3,1.5,1.3.9,1.8a3.581,3.581,0,0,1,2.5,1.1,13.408,13.408,0,0,1,0,4,23.458,23.458,0,0,1,1.9,4.3c-.5,1.7-1.2,3.6-1.7,5.7a36.059,36.059,0,0,0,1.5,6.5,25.29,25.29,0,0,0,2.9,7.2,17.675,17.675,0,0,0,1.2,1.7c.5.6,1.1,1.3,1.6,1.8a13.442,13.442,0,0,0,4,2.7l.6.3a14.365,14.365,0,0,0,10.4.4,16.928,16.928,0,0,0,5.7-6.2,39.961,39.961,0,0,0,6.3-3.7,42.381,42.381,0,0,0,1.7-6.1c.8-1.7,1.5-3.4,2.2-4.9a19.927,19.927,0,0,1,3.3-3.2,7.211,7.211,0,0,1,2.5-2.1,6.162,6.162,0,0,1,2.7.1,6.219,6.219,0,0,1,3.3-.5,22.018,22.018,0,0,1,4.4,1.2c1.2,1.2,2.3,2.6,3.5,4l5.3,2.3a44.733,44.733,0,0,0,4.5,4.2q3.15.6,6.3.9c1.6,1.3,3.2,2.6,4.9,3.9,2,.3,4.1.5,6.1.7,1.7,1.3,3.5,2.5,5.4,3.7,2.2-.5,4.3-1.1,6.4-1.8,2,.5,3.9.9,5.9,1.2a31.371,31.371,0,0,0,6.7,1.7,27.307,27.307,0,0,0,6.7-3.7,17.476,17.476,0,0,0,6.7-4.6,20.157,20.157,0,0,0,5.1-7.1A14.891,14.891,0,0,0,354.2,83.1Z" fill="#0b1b30"/><path d="M260.3,92.9a23.135,23.135,0,0,0-1.8-3.5c-.8-1.1-1.6-2.2-2.5-3.3a26.614,26.614,0,0,0-6-4.6,28.291,28.291,0,0,0-14.4-4.4,27.747,27.747,0,0,0-14.5,4.7,33.931,33.931,0,0,0-8.8,11.4,63.721,63.721,0,0,0-5.8,11.7c-1.5,4-2.9,7.7-4.3,11.6-1.8,3.7-3.5,7.5-5.2,11.3-1.3,4-2.5,8-3.6,12.1-.5,2.1-.9,4.2-1.3,6.3l-1,6.1a56.39,56.39,0,0,1-3.7,10.7,29.333,29.333,0,0,1-1.3,5.1c-.3.8-.6,1.6-1,2.5l-.6,1.2-.8,1.4q-4.2,4.5-8.4,9.3c-2.3,3.4-4.6,6.9-6.8,10.5-2.7,3.2-5.3,6.5-7.8,9.8-2.1,3.6-4.1,7.2-6.1,10.8s-3.9,7.3-5.8,10.9c-.7,1.4-1.7,2.6-2.5,4l-1.9-25.7h0l.4-.1a8.714,8.714,0,0,0,3.7-1.6c1.4-1.2,0-2.4-.2-2.9l-1.2-3.8-1.1-3.7a61.277,61.277,0,0,1-1.4-11.4,26.956,26.956,0,0,1,.4-2.8l.6-2.9,1.3-5.8c0-3.9.5-8,.8-12.1,1.1-4,2.1-8,3-12.2v-3.3c0-1.2-.1-2.4-.2-3.5a51.608,51.608,0,0,0-1-6.7,83.817,83.817,0,0,0-1-13.2c-.7-2.1-1.4-4.1-2.2-6.1-.4-1-1-2.2-1.5-3.3-.3-.6-.5-1.1-.8-1.7l-1-1.5a36.8,36.8,0,0,0-4.5-5.9,41.327,41.327,0,0,0-5.5-4.7,47.168,47.168,0,0,0-6.1-3.7,37.4,37.4,0,0,0-6.6-2.5,38.818,38.818,0,0,0-6.9-1.8,43.725,43.725,0,0,0-7.2-.6,35.97,35.97,0,0,0-13.5,4.9,8.447,8.447,0,0,0-1.7.5l-1.5.6a19.643,19.643,0,0,0-3.3,1.5L83,94.4a33.93,33.93,0,0,0-2.8,2,91.929,91.929,0,0,0-7.4,11,69.791,69.791,0,0,0-6.2,11.4c-1,1.9-2,3.9-2.9,5.8a48.824,48.824,0,0,0-2.3,6.4,54.385,54.385,0,0,0-1.6,13.3,94,94,0,0,0,0,13c.8,4.2,1.8,8.3,2.8,12.3s1.8,8,2.6,11.9c.2,4,.2,7.9.1,11.9.6,4.2,1.3,8.4,2.2,12.5q.3,6.3.9,12.6c1.3,4,2.8,7.9,4.2,11.8l1.2,12.4c1.2,3.9,2.4,7.8,3.7,11.8.4,4.2.9,8.4,1.6,12.7,2,3.8,4.2,7.5,6.4,11.1,1.3,4,2.9,7.9,4.5,11.8,1.3,4,2.8,8,4.4,12,2.6,3.5,5.1,6.7,8,10.1a27.014,27.014,0,0,0,11.3,9.6,34.626,34.626,0,0,0,7,2.6,11.627,11.627,0,0,0,1.8.4c.6.1,1.5.2,1.3.2v.1l.7.3,1.5.5,12.4,1,3,.8,1.9.5,1.2.3.3.1.3-.1.6-.1,1.2-.3,1.1-.3c.6-.2,1.1-.3,1.7-.5a17.549,17.549,0,0,0,3.2-1.2,35.016,35.016,0,0,0,6.2-2.9l2.9-1.7,2.8-1.9a89.568,89.568,0,0,0,8.9-9.6c3.1-2.9,6.1-6,8.9-9.2,2.5-3.4,4.9-6.9,7.2-10.3,1.8-3.8,3.4-7.7,5-11.5,2.8-3.1,5.5-6.2,8.3-9.6q2.85-5.7,5.4-11.4c2-3.7,3.8-7.5,5.5-11.3,1.1-4.1,2.2-8.2,3.1-12.3,1.9-3.8,3.8-7.6,5.5-11.5.3-2.1.6-4.2.8-6.4l.6-6.1c1.1-3.8,2.4-7.6,3.8-11.3,1.6-3.6,3.3-7.2,5.2-10.7,1.2-3.8,2.5-7.5,4-11.1,2-3.4,4.2-6.5,6.6-10.1,2-3.7,3.9-7.5,5.6-11.4,1.6-3.9,3.1-7.8,4.5-11.8a120.549,120.549,0,0,0,4-12c1.2-4.1,2.2-8.2,3-12.4a69.445,69.445,0,0,0,2.1-12.9A39.094,39.094,0,0,0,260.3,92.9ZM147.2,236.8Z" fill="#346e93"/><path d="M144.6,202.8c.6,2.4,1.1,5,1.5,7.6,1.3,8.3-3,16.1-.5,24.1a1.445,1.445,0,0,0,.7,1,1.542,1.542,0,0,0,1.6-.7" fill="#346e93"/><path d="M145.2,232.3c-1-.9-.4-.3-.3-.3l.5.5a6.42,6.42,0,0,1,1,1.3,1.33,1.33,0,0,1,.3.8v.1c.1-.1.2-.3.4-.4a15.106,15.106,0,0,1,1.8-.9l1.1-.4.3-.1.7-.4-.5-.2-.2-.3c-.1-.1-.1-.2-.2-.3l.3-.4a8.6,8.6,0,0,1-1.6-.1l1.8-.6-1.2-.2-.5-.3.5-.4v-.4l.6-.4-.8-.4-.5-.4,1-.4-.8-.5,1-.4-1.4-.5,1.3-.3-.8-.5,1.7-.2-1.9-.7.6-.4,1.5-.3-1.2-.6.4-.4,1.1-.3-1.7-.8.3-.5.8-.4-.6-.6,1-.4.2-.5-1.4-.7,2-.3-.4-.6.3-.5-1.3-.6,1.5-.4-1.3-.6.5-.5c.3-.2.7-.3,1-.5l-.9-.6.6-.6-.3-.6-.6-.5-.3-.5a4.331,4.331,0,0,0-.1-.5l.5-.6-.2-.6v-.6l.8-.6-.3-.5-1.5-.3v-1l.9-.7-.1-.5-.4-.4.6-.6-1.8-.1.6-.6-.6-.4.9-.7-.4-.4-.4-.4c-.1-.1.8-.4-.4-.3-.2,0,0-.1-2.5.5l-1.2.3-2.1.5-1.3.3c-.1,0-.2.1-.3.1,0,.1.4.2.5.2l.2.4.6.4-.5.6-.8.6.7.3-.6.6.7.3.3.4-.2.5,1.2.3-.7.6-.4.5.8.3-.9.6.3.4.4.3-1,.5,1.1.3.9.3-1.3.5-.1.4a7.491,7.491,0,0,1,1.6.4l-1.6.4,1.3.4-.2.4-.2.4-1,.4-.2.4,1.5.6.1.5-2,.2,1.5.6-.2.4-1.5.2,1.1.6.8.6-2,.2,1.6.7-1.2.3.9.6-1.5.3,1.6.8-1.1.4.9.6-1.5.3.9.6.1.5-1.7.4v.5l.3.6,1.6.6-.2.5-1.4.5-.3.6,1.8.5-1.4.6,1.1.5-.5.6.6.5.1.6v.6l-.9.8v.6l.2.6c.5.1,1,.1,1.5.2a1.8,1.8,0,0,0-.4.9,3.734,3.734,0,0,0-.3,2.1,6.3,6.3,0,0,0,2.6,2,5.643,5.643,0,0,0,3.4-.1,10.479,10.479,0,0,0,2.5-.1,3.81,3.81,0,0,0,.3-1,2.769,2.769,0,0,0,.1-.9l.5.1.4.1s.3.1,0-.3a39.839,39.839,0,0,0-3.6-3.5Z" fill="#346e93"/><path d="M317.1,192.2a18.031,18.031,0,0,0-.8-3.9,20.631,20.631,0,0,0-1.2-3.5c-.8-.8-1.7-1.6-2.6-2.4a19.822,19.822,0,0,0-1.9-3.1,31.122,31.122,0,0,0-2.8-2.3,23.759,23.759,0,0,0-3.7-.6,25.723,25.723,0,0,0-2.9-2.8,23.079,23.079,0,0,0-3.7-.3c-1.2-.2-2.4-.3-3.6-.4a20.652,20.652,0,0,0-3.4,1.5,21.979,21.979,0,0,0-3.7-.6,31.549,31.549,0,0,0-2.9,2.2,29.924,29.924,0,0,0-3.2,1c-1,.4-2.3.6-3.4,1a28.482,28.482,0,0,0-2.3,2.6,17.482,17.482,0,0,0-2.9,1.8c-.8.8-1.5,1.7-2.2,2.5a20.414,20.414,0,0,0-1.8,2.9c-.6,1-1.2,1.8-1.8,2.8s-1.1,1.9-1.7,2.8-1.4,1.7-2,2.6a11.083,11.083,0,0,0-1.2,3c-.3,1-.8,2-1.2,3-.6,1-1.1,1.9-1.6,2.9-.2,1.1-.4,2.2-.6,3.2.2,1.1.4,2.3.6,3.4-.2,1.1-.3,2.1-.4,3.2s-.1,2.1-.1,3.2c-.2,1.1-.5,2.2-.7,3.3l.1,1.6a11.271,11.271,0,0,0,.3,1.8A23.008,23.008,0,0,0,259,228c.2,1.1.5,2.2.8,3.3l2.6,2.2c.3,1,.5,1.9.8,2.8.5.8,1,1.7,1.4,2.5l.3,3a23.94,23.94,0,0,1,1.3,2.8c.3,1,.8,1.9,1.2,2.9.3.7.2,1.5,1.1,2,.1.1.3.7,1.6.2l.4-.2h0l-.2.1a15.054,15.054,0,0,0-2.2,1.1c-.9.6-.1.7-.1.9a7.607,7.607,0,0,0,1.2,1.9,16.655,16.655,0,0,0,1.8,2.8l1,3.1c.8.7,1.6,1.4,2.5,2.1a20.988,20.988,0,0,0,1.5,3c.5.3.9.7,1.4,1l2,1.3a11.29,11.29,0,0,0,4.3,3.5,5.78,5.78,0,0,0,4.6-1.6,12.017,12.017,0,0,0,2.9-4.5c.2-.4.3-.9.5-1.4l.3-.9.4-1.6c.4-1,.7-2.1,1-3.1-.2-1.1-.4-2.2-.7-3.3l2-2.7c-.1-.5-.1-1-.2-1.4a7.589,7.589,0,0,1-.1-1.6l.4-3,1.2-2.8.8-2.9,1.3-2.7.2-3,.5-3c.6-.9,1.2-1.7,1.8-2.5l.4-3,1.8-2.4c0-1,0-2.1.1-3.1.7-.7,1.5-1.4,2.2-2.1.2-1,.5-1.9.8-2.9l2.7-1.9v-3.4l1.9-2.3c.9-.6,1.7-1.2,2.6-1.8.2-1,.5-2,.8-3a17.086,17.086,0,0,0,2.1-2.6,13.139,13.139,0,0,0,2.4-3.4A18.319,18.319,0,0,0,317.1,192.2Z" fill="#fff"/><path d="M297.3,213.1a12.8,12.8,0,0,0-.2-3.9c-.4-.3-.7-.6-1.1-.9l-.3-.2-.1-.1a.139.139,0,0,0-.2,0l-.9,1-3.1,2.4c-1.1.7-2.3,1.5-3.6,2.2-1,1-2.5,2.6-2,2.5a.52.52,0,0,1-.4-.2,1.421,1.421,0,0,1-.2.6,5.782,5.782,0,0,1-.5,1.4c-.1.3-.1.1-.2.1l-.2-.2c-.1-.2-.1-.5-.2-.7a6.117,6.117,0,0,1,.5-1.2v-.8l.5-2.5,1.2-2.5.5-2.8-.2-3,.9-2.8.8-2.8c.5-.9.9-1.8,1.4-2.7.3-1,.4-2,.6-3a16.154,16.154,0,0,0,.2-3.1c.3-1,.5-2,.7-3a26.378,26.378,0,0,1-1-3.7c0-1.6-.1-3.2-.1-4.9a3.553,3.553,0,0,0-.2-1l-1.2.4a14.461,14.461,0,0,0-2.2.9,11.505,11.505,0,0,0-4.3,2.1l-.6.7-.5.7c-.3.4-.6.9-.9,1.3a10.492,10.492,0,0,0-1.4,2.8c-.3.7-.8,1.2-.7,2a.734.734,0,0,0,.4,1,.349.349,0,0,1,.2.1h0l-.2-.1a15.955,15.955,0,0,0-2.3-1c-1.1-.3-.6.3-.6.5s-.6,1.9-.6,1.9l-1.2,3c-.6.8-1.3,1.7-1.9,2.5-.1,1-.2,2.1-.3,3.1-.5.9-1.1,1.8-1.6,2.7V205c-.6.9-1.2,1.8-1.7,2.7-.1,1-.1,2-.2,3l-.4,3-.3,3-.6,2.9,1,3-1.7,2.8.7,3v2.7c-.3.8-.6,1.6-1,2.5l-.7,2.8c-.4.9-.8,1.9-1.2,2.9,0,1.1,0,2.3.1,3.4a15.869,15.869,0,0,0,.6,3.7,21.979,21.979,0,0,0,.6,3.7c.7.9,1.4,1.7,2.1,2.5.3,1,.7,2,1.1,3,.9.6,1.8,1.3,2.7,1.9.4,1,.9,2,1.4,3a23.811,23.811,0,0,0,3,1.8,8.52,8.52,0,0,0,4.4,3,5.57,5.57,0,0,0,4-3l.8-.8.7-1a3.7,3.7,0,0,0,.5-1.1l.3-.5.2-.4c.7-.9,1.3-1.9,1.9-2.8-.1-1.1-.2-2.2-.3-3.2.2-1,.5-2,.7-2.9l1.1-2.8-1-3,.5-2.8a20.035,20.035,0,0,1,1-2.6,24.369,24.369,0,0,1,.1-2.7c.5-.8,1-1.5,1.5-2.2s.7-1.5,1.2-2.3c.5-1.8,1-3.3,1.3-4.6a36.455,36.455,0,0,0,3.9-4.9,18.588,18.588,0,0,0,.4-3.3,18.7,18.7,0,0,0,.3-3.4A13.75,13.75,0,0,1,297.3,213.1Z" fill="#96cdef"/><path d="M321.8,268.7l-.5-2.7.1-2.7-1.1-2.6,1-2.7-1.1-2.6.2-2.7.7-2.7-.7-2.6.4-2.6-.2-2.6-.4-2.6-.1-2.7v-2.7l.4-2.7v-2.7l.1-2.7.6-2.7-.1-2.7-.8-2.7.1-2.7.1-2.7.6-2.7v-2.7l-.2-2.7c.1-.9.1-1.8.2-2.7l-1-2.7v-2.8a8.279,8.279,0,0,0-.7-2.7c0-.5-.1-1-.1-1.6l.3-1.2-.9-2.9.3-.9.2-.7c.1-.1.5-.9-2.3-1.1a2.223,2.223,0,0,0-.8-1.3c-.1-.1-.3-.6-.9-.3-.1,0-.1.1-.2.1h0l-.1.1a1.756,1.756,0,0,0-.5.4.914.914,0,0,0-.3.5,1.689,1.689,0,0,0,.2.5H314c-.9.1-.4.5-.4.6v1.7l-.4,2.6-1.3,2.5.2,2.7-1.2,2.5.2,2.7-1.6,2.5-.2,2.6-.5,2.6-.5,2.6-.8,2.5.6,2.9-2,2.3.3,2.8-.2,2.7-1,2.5-.5,2.7-1,2.6c0,.9.1,1.9.1,2.8v2.8c-.4.9-.8,1.7-1.2,2.6l.3,2.8c-.4.9-.7,1.8-1,2.7l.9,2.8c-.4.9-.8,1.8-1.1,2.7l.6,2.8a23.94,23.94,0,0,0-1.3,2.8l1.6,2.8a26.352,26.352,0,0,0-.2,2.8l-.8,2.9c.4.9.9,1.8,1.4,2.7l.3,2.8a16.079,16.079,0,0,0-.1,3.1,21.28,21.28,0,0,0,2.6,2.6c.3.5.5,1,.8,1.5a7.551,7.551,0,0,0,1.1,1.4,19.2,19.2,0,0,0,1.4,1.5,8.175,8.175,0,0,0,2,1.2,6.478,6.478,0,0,0,4.5-.7,7.477,7.477,0,0,0,4-2.4,17.377,17.377,0,0,0,1-1.9l.6-1.8a10.079,10.079,0,0,0-.9-3.4Z" fill="#102b4c"/><path d="M158.8,161.5l-1.1-4.8.7-4.9c-.4-1.6-.8-3.3-1.1-4.9l-.8-4.9c-.1-1.7-.1-3.3-.3-5-.8-1.6-1.5-3.1-2.4-4.6.1-1.7.2-3.4.2-5.1l-.3-5.1c-.7-1.5-1.5-3.1-2.3-4.6v-5.2c-.6-1.6-1.2-3.2-1.9-4.7s-1.5-3-2.3-4.5c-.1-1.8-.3-3.6-.5-5.4-1.2-1.4-2.5-2.7-3.8-4s-2.6-2.6-4-3.9a25.391,25.391,0,0,0-2.2-6,15.459,15.459,0,0,0-2.7-2.4l-2.7-1.8a19.978,19.978,0,0,0-3.5-.2c-1.1,0-2.2.1-3.3.2a25.044,25.044,0,0,0-5.6-3.5,24.923,24.923,0,0,0-5.9,2.3,23.58,23.58,0,0,0-2.8.4,27.411,27.411,0,0,0-2.8.5l-2.7.6a25.824,25.824,0,0,0-2.6.8c-1.9.2-3.8.5-5.7.8-1.7.8-3.3,1.6-4.9,2.5a52.353,52.353,0,0,0-3,5.1c-1.4,1.1-2.6,2.3-3.9,3.5-2.1.3-4.1.7-6.2,1.2-.6,2-1.2,3.8-1.7,5.8-1.2,1.4-2.3,2.7-3.4,4.1-1.7,1-3.3,2-5,3.1-.3,1.9-.6,3.7-.8,5.6-.4,1.8-.6,3.5-.9,5.3-1.7,1.1-3.4,2.2-5.1,3.4.3,2,.5,3.9.9,5.8-1.2,1.3-2.3,2.7-3.5,4.2,0,1.8.1,3.5.2,5.3l-3.7,4.1c.5,1.9,1.1,3.7,1.6,5.5l-2.9,4.4.6,5.2c-1.1,1.5-2.2,2.9-3.3,4.4.3,1.8.5,3.5.9,5.2-.1,1.7-.3,3.3-.4,5q-1.65,2.25-3.3,4.8c-.1,1.7-.1,3.4-.2,5.2.1,1.7.3,3.5.4,5.2.4.9,1,1.7,1.4,2.6l1.6,2.8a16.455,16.455,0,0,0,.4,3.1,17.826,17.826,0,0,0,.9,3.3,13.821,13.821,0,0,0,1,4c.3.7.6,1.4.9,2a21.414,21.414,0,0,0,1.3,1.9,18.5,18.5,0,0,0,3.7,2.5,25.017,25.017,0,0,0,3.8,1.5,20.451,20.451,0,0,0,6.8-2.4c1,.4,1.9.7,2.9,1s1.9.6,2.9.8a54.243,54.243,0,0,0,4.8-2.6l4.9.1,4.6-1.8,4.7-1,4.7-.8,5,.8,4.7-.5c1.5-.3,3-.5,4.6-.7l4.2-3c1.6.2,3.1.4,4.7.7,1.6.6,3.1,1.2,4.6,1.9l4.9-.5a42.069,42.069,0,0,0,5.5-1.6,36.487,36.487,0,0,0,6.6-.3l.9-.7a10.708,10.708,0,0,0,1.9-1.8,34.675,34.675,0,0,0,2.5-2.9,14.722,14.722,0,0,0,2.2-1,15.054,15.054,0,0,0,1.7-1c.4-.2,3.1-1.4-5.1-6.9h0l.3.2a17.377,17.377,0,0,0,1.9,1c1.2.5,1.7.5,1.9.3a12.523,12.523,0,0,0,2-4c.4-.9.8-1.8,1.1-2.7a25.578,25.578,0,0,0,.5-2.7,46.433,46.433,0,0,0-.1-5.3,45.426,45.426,0,0,0,.9-5.1Z" fill="#fff"/><path d="M180.2,239.7c.6-.1.2-.1.2-.1l-.2-.2V239l.5-.5-.4-.4.5-.5-.5-.4.7-.5-.2-.4-.1-.4-.1-.4.1-.4-.8-.4.9-.5-.6-.4-.2-.4.2-.4v-.4l.3-.4-.4-.4-.3-.4.5-.4-.4-.4.4-.4-.7-.4.6-.4-.4-.4.8-.4-.9-.4.2-.4.6-.4-.6-.4.1-.4.5-.4-.8-.4.1-.4.3-.4-.3-.4.4-.4.1-.4-.7-.4.9-.4-.2-.4.1-.4-.6-.4.7-.4-.6-.4.2-.4.4-.4-.4-.4.3-.4-.1-.4-.2-.4-.1-.4v-.4l.3-.4V217l.1-.4.4-.4-.1-.4-.5-.5.1-.4.1-.4.4-.4v-.4l-.1-.4.3-.4-.7-.5.3-.4-.2-.4.4-.4-.1-.4-.1-.4c0-.1.3-.2-.1-.3a2.176,2.176,0,0,0-.9-.2h-.4l-.8-.1h-.6c0,.1.1.2.1.3l-.1.4.1.4-.3.4-.4.4.2.5-.3.4.2.5v.4l-.2.4.4.5-.4.4-.3.4.3.5-.4.4v.4l.1.4-.5.4.4.5.4.5-.6.4-.1.4.7.5-.7.4.5.5-.1.4-.1.4-.5.4-.1.4.6.5.1.4-.9.4.7.4-.1.4-.7.4.5.4.4.4-.9.4.8.4-.5.4.5.4-.7.4.8.4-.5.4.5.4-.7.4.5.4.1.4-.8.5v.4l.2.4.8.4-.1.4-.6.5-.1.4.9.4-.6.5.5.4-.3.4.3.4v.8l-.5.5-.1.4v.4l.7.4-.3.5-.6.5.1.4.3.4-.3.5.7.4-.2.2-.6-.3s-.1.1.1.1a21.052,21.052,0,0,0,2.5-.2Z" fill="#1b557a"/><path d="M195.3,230.9c.6,0,.2-.1.2-.1l-.2-.3V230l.5-.5-.4-.5.5-.5-.4-.5.7-.5-.2-.5v-.5l-.1-.5.2-.5-.7-.5.8-.5-.5-.5-.2-.5.2-.5v-.5l.3-.5-.4-.5-.3-.5.4-.5-.4-.5.4-.5-.6-.5.5-.5-.4-.5.7-.5-.9-.5.2-.5.6-.5-.5-.5.1-.5.4-.5-.8-.5.1-.5.3-.5-.3-.5.4-.5v-.5l-.6-.5.8-.5-.2-.5.1-.5-.5-.5.6-.5-.5-.5.2-.5.4-.5-.4-.5.2-.5-.1-.5-.2-.5-.1-.5V204l.2-.5-.1-.5v-.5l.3-.5-.1-.5-.5-.5v-1l.3-.5V199l-.1-.5.2-.5-.6-.5.2-.5-.2-.5.3-.5c0-.2-.1-.3-.1-.5l-.2-.5c0-.1.2-.2-.1-.3-.1,0,0-.1-.7-.1h-1.4a1,1,0,0,0,.1.4v.5c0,.2.1.3.1.5l-.2.5-.3.5.2.5-.2.5.2.5v.5l-.1.5.4.5-.3.5-.2.5.2.5-.4.5.1.5.1.5-.4.5.4.5.3.5-.5.5-.1.5.6.5-.6.5.5.5-.1.5L192,209l-.4.5-.1.5.6.5.1.5-.8.5.6.5-.1.5-.6.5.5.5.4.5-.8.5.7.5-.5.5.4.5-.6.5.7.5-.5.5.4.5-.6.5.4.5.1.5-.7.5v.5l.1.5.7.5-.1.5-.6.5-.1.5.8.5-.6.5.5.5-.3.5.2.5v1l-.5.5-.1.5v.5l.7.5-.3.5-.6.5.1.5.3.5-.3.5.6.5-.2.2-.1.1s-.5.2,2.3.1Z" fill="#1b557a"/><path d="M209.4,208.6c.7,0,.2-.1.2-.1l-.2-.2V208l.6-.3-.4-.3.5-.3-.5-.3.7-.3-.2-.3-.1-.3-.1-.3.1-.3-.8-.2.9-.3-.6-.3-.2-.3.2-.3v-.3l.3-.3-.4-.3-.3-.3.5-.3-.4-.3.4-.3-.7-.3.5-.3-.4-.3.7-.3-.9-.2.2-.3.6-.3-.6-.3.1-.3.4-.3-.8-.2.1-.3.3-.3-.3-.3.4-.3v-.3l-.7-.3.8-.3-.2-.3.1-.3-.6-.3.6-.3-.6-.3.2-.3.4-.3-.4-.3.2-.3-.1-.3-.3-.3-.1-.3-.1-.3.2-.3-.1-.3v-.3l.3-.3-.1-.3-.6-.3v-.6l.3-.3v-.3l-.2-.3.2-.3-.7-.3.2-.3-.2-.3.3-.3-.2-.3-.1-.3c0-.1.2-.1-.1-.2-.1,0,0-.1-.8,0H206a.9.9,0,0,0-.5.1c0,.1.1.1.1.2v.3l.1.3-.2.3-.3.3.2.3-.3.3.2.3.1.3-.1.3.4.3-.3.3-.2.3.3.3-.4.3.1.3.1.3-.4.3.4.3.4.3-.6.3-.1.3.7.3-.7.3.6.3v.3l-.1.3-.4.3-.1.3.7.3.1.3-.9.3.7.3-.1.3-.6.3.5.3.4.3-.8.8.8.2-.5.3.5.3-.6.3.8.2-.5.3.5.3-.6.3.5.3.1.3-.8.3v.3l.1.3.8.2-.1.3-.6.3-.1.3.8.2-.6.3.5.3-.3.3.3.3v.6l-.5.3-.1.3v.3l.7.3-.3.3-.6.3.1.3.3.3-.4.3.6.3-.2.1-.2.1h2.5Z" fill="#1b557a"/><path d="M213.1,117.7a13.1,13.1,0,0,0,0-2.8,15.525,15.525,0,0,0-.4-2.1,4.185,4.185,0,0,0-1.1-1.8l-.1-.1a4.6,4.6,0,0,0-4.1-.6,7.5,7.5,0,0,0-2,1,5.5,5.5,0,0,0-.9.7l-.6.6a17.04,17.04,0,0,0-3.5,4.5,31.813,31.813,0,0,0-1.3,5.1c-.8,1.5-1.4,3-2.1,4.5l-.4,4.9-1.3,4.6-1.6,4.6-.6,4.8-1.4,4.5c-.4,1.5-.7,3.1-1.1,4.6s-.7,3.1-1.2,4.6-1,3-1.6,4.4a30.473,30.473,0,0,1-2.1,4c-.9,1.2-1.9,2.5-2.9,3.6s-1.9,2.5-2.9,3.7l-3.1,3.6-3.5,3.4c-1,1.3-2,2.5-3,3.9a46.308,46.308,0,0,0-2.4,4.3l-2.8,3.9-2.7,4-3,3.8-2.6,4.1-2.4,4.2-2.7,4-1.9,4.5-2.6,4-2.2,4.2-2.7,4-2.2,4.2-2.3,4.2a10.805,10.805,0,0,0-1.6,3c0,.2-.6,1,.1,1.4a.349.349,0,0,1,.2.1h0l-.1-.1a5.094,5.094,0,0,0-1.7-.7c-.8-.1-.7.7-.8.9l-.7,1.5-.6,1.5a45.382,45.382,0,0,0-2.1,4.5,22.581,22.581,0,0,0-2.1,4.8,10.023,10.023,0,0,0,1.1,6.3,6.1,6.1,0,0,0,2.7,2.8,8.972,8.972,0,0,0,3.3.9,29.311,29.311,0,0,0,2.9-.5,13.9,13.9,0,0,0,2.8-1.2,15.839,15.839,0,0,0,5.1-2.8,34.7,34.7,0,0,0,3.1-4.4c.9-1.4,1.7-2.8,2.5-4.2l2.4-4.2c.8-1.4,1.7-2.7,2.6-4.1l1.5-4.7,3.2-3.8,1.6-4.6,2-4.4,2.5-4.1,2.2-4.2,2.6-4,1.9-4.4,2.1-4.3c1-1.3,2-2.5,2.9-3.8.7-1.5,1.4-2.9,2.1-4.3,1-1.3,2-2.5,3-3.7.6-1.5,1.3-2.9,2-4.4l3.4-3.6c.8-1.4,1.5-2.9,2.3-4.4,1.1-1.2,2.2-2.5,3.3-3.7.5-1.6.9-3.2,1.4-4.8.9-1.4,1.6-2.8,2.5-4.2.9-1.3,1.9-2.7,2.8-4.1.4-1.6.9-3.2,1.2-4.8.7-1.5,1.3-3,1.9-4.5s1.4-2.9,2.1-4.4c.2-1.6.3-3.3.4-5l1.4-4.6,1.6-4.6.9-4.8c.6-1.5,1.1-3.1,1.6-4.7.3-1.7.6-3.3.8-5C213.8,121.2,213.5,119.4,213.1,117.7Z" fill="#1b557a"/><path d="M46,364.5h0v-.3l-.2-3c-.1-1.2-.1-.4-.1-.4l-.1.4h-.2l-.3-1.1-.1.8-.2-1-.1.8-.2-1.4-.2.4-.2.1-.2.1-.2-.4-.1,1.6-.2-1.8-.1,1.2-.2.4-.2-.5h-.2l-.2-.6-.2.8-.2.5-.2-1-.2.8-.2-.9-.2,1.4-.2-1.2-.2.8-.1-1.6-.2,1.9-.2-.5-.1-1.4-.2,1.2-.2-.3-.1-1-.3,1.7-.2-.2-.1-.7-.2.7-.1-.9-.2-.1-.3,1.4v-1.8l-.2.5-.2-.3-.3,1.2v-1.4l-.3,1.2-.1-.4-.1-.9-.3.8-.1-.5-.2.3-.2.5-.2.2-.2.1-.1-.5-.2.1-.2-.1-.1-.8-.2.2-.5,1.3-.2-.1-.2-.1V360H34l-.2.3-.1-.6-.5,1.5-.1-.5-.3.4v-.8l-.2.3c-.1.1-.2.2-.2.3-.1.1,0-.5-.2.3a11.627,11.627,0,0,0-.4,1.8l-.1.6h0l-.1.3-.3,1.5a6.8,6.8,0,0,0-.2,1.2l.2-.2c0,.1.1.1.2.1l.3-.3.1.6.1.8.3-.4.1.7.3-.5.2-.1.2.3.4-.9.1.7.1.5.3-.6.1.9.2-.1.3-.3.1,1,.3-.9.3-.8.1,1.3.2.2.4-1.5v1.5l.3-1.2.2.2.2.2.1.9.2.2.3-1.4.2-.1.1,1.9.3-1.5.2.2.1,1.4.3-1.1.3-.8.1,1.9.3-1.6.1,1.1.3-1,.1,1.4.3-1.6.2,1,.2-.9.2,1.4.2-1,.2-.2.2,1.6.2-.1.2-.3.2-1.6.2.2.2,1.3.2.3.2-1.8.2,1.3.2-1.1.2.6.2-.5h.2l.2.1.2,1,.2.1.2-.1.1-1.4.2.6.3,1.1.2-.2.2-.6.3.6.1-1.2.1.4.1.3v-.2A21.65,21.65,0,0,0,46,364.5Z" fill="#102b4c"/><path d="M77.4,364.8h0l-.1-.3-.7-3.2c-.3-1.3-.1-.4-.1-.4v.5h-.2l-.4-1.1v.8l-.4-1v.9l-.4-1.4-.1.5-.1.1-.1.2-.2-.3.1,1.5-.4-1.7v1.2l-.1.4L74,361l-.2.1-.2-.6-.1.8-.1.6-.3-.9-.1.8-.3-.8v1.4l-.3-1.2-.1.8-.3-1.5v1.9l-.2-.5-.3-1.3-.1,1.2-.2-.2-.2-.9-.1,1.7-.2-.2-.2-.6-.1.7-.2-.9-.2-.1-.1,1.4-.2-1.8-.1.5-.2-.2-.1,1.2-.2-1.4-.2,1.2-.2-.4-.2-.8-.2.8-.2-.5-.2.3-.2.5-.2.2-.2.1-.1-.5-.2.1-.2-.1-.1-.8-.2.2-.2,1.2-.2-.1-.2-.1-.1-.9h-.2l-.2.3-.1-.6-.3,1.5-.1-.6-.2.4-.1-.8-.2.3-.2.2c0,.1,0-.7-.2.3-.1.7-.2,1.4-.3,2.2l-.1.7h0v.3l-.2,1.8c-.1,1.1-.1,1.4-.1,1.4a1.439,1.439,0,0,1,.2-.3H64l.2-.4.1.6.1.8.2-.5.1.6.2-.5.2-.1.2.3.3-1,.1.7.2.5.2-.6.2.9.2-.2.2-.3.2,1,.2-.9.2-.8.2,1.2.2.2.2-1.5.2,1.5.2-1.2.2.1.2.2.2.9.2.2.2-1.4.2-.2.2,1.9.2-1.5.2.1.3,1.4.2-1.1.2-.8.3,1.8.1-1.6.3,1.1.1-1,.3,1.4.1-1.6.3,1,.1-1,.3,1.3.1-1,.2-.2.4,1.6.2-.1.2-.3v-1.6l.2.2.4,1.2.2.3v-1.7l.4,1.3.1-1.1.3.5.1-.6.2-.1.2.1.4,1,.2.2h.2v-1.4l.3.6.4,1.2.2-.2.1-.6.3.7v-1.3l.1.4.1.3s.1.3,0-.2Z" fill="#102b4c"/><rect x="105.703" y="406.211" width="2.1" height="14.3" transform="translate(-3.015 0.79) rotate(-0.418)" fill="#102b4c"/><rect x="108.402" y="442.901" width="2.1" height="17.1" transform="translate(-25.421 6.932) rotate(-3.25)" fill="#102b4c"/><rect x="111.988" y="480.49" width="2.1" height="15.3" transform="translate(-56.765 16.732) rotate(-6.771)" fill="#102b4c"/><path d="M123,529.9c1.4-.3.5-.2.4-.2H123v-.2l1.3-.5h-.9l1.1-.4h-1l1.5-.5-.5-.1-.1-.2-.2-.2.4-.3-1.8.1,2-.6h-1.3l-.5-.1.6-.3-.1-.2.6-.3h-.9l-.7-.1,1.1-.4-1-.1,1-.4H122l1.3-.4-1-.1,1.7-.5-2.2.1.5-.3,1.5-.4h-1.4l.3-.2,1-.3h-2l.2-.2.7-.3-.8-.1,1-.3.1-.2h-1.6l2-.4-.5-.2.2-.2-1.4-.1,1.5-.3-1.4-.1.4-.2,1-.3-1-.1.5-.2-.3-.2-.6-.2-.3-.2-.1-.2.5-.2-.2-.2.1-.2.8-.2-.2-.2-1.4-.2.1-.2v-.2l.9-.2v-.2l-.4-.2.6-.2-1.7-.2.6-.2-.5-.2.9-.2-.3-.2-.3-.2c-.1,0,.7-.1-.4-.2a8.854,8.854,0,0,0-2.3,0h-4.5a1.425,1.425,0,0,1,.4.2v.2l.4.2-.6.2-.9.2.5.2-.7.2.6.2.2.2-.3.2,1.1.2-.8.3-.5.3.7.2-.9.3.2.2.4.2-1.1.3,1,.2.9.2-1.4.3-.2.2,1.7.1-1.6.3,1.3.1-.1.2-.2.2-1,.3-.2.3,1.6.1.2.2-2.1.4,1.6.1-.1.2-1.5.4,1.3.1,1,.1-2,.5h1.8l-1.2.4,1.1.1-1.5.4h1.9l-1.1.4,1.1.1-1.5.5,1.1.1.2.2-1.8.5.1.2.4.2h1.8l-.2.3-1.4.5-.3.3,2-.1-1.5.5h1.2l-.6.3.7.1.1.2-.1.2-1.1.5-.1.3.1.2,1.6-.1-.7.4-1.3.5.3.2.7.1-.7.4,1.5-.1-.4.2-.3.1s-.3.1.3,0,1.8-.4,4.8-1h0l.3-.1Z" fill="#102b4c"/><path d="M133.3,559.6l-.1-.1-.2-.1.3-.3-1.6.4,1.7-.9-1.2.3h-.5l.5-.4-.1-.2.5-.4-.8.1h-.6l.9-.5-.9.1.8-.5-1.5.3,1.1-.6-.9.1,1.5-.7-2,.5.4-.3,1.3-.6-1.3.2.2-.2.9-.5-1.8.4.1-.2.6-.4h-.7l.9-.4.1-.2-1.5.2,1.8-.7h-.5l.2-.2-1.3.2,1.4-.5-1.3.2.4-.3.9-.4h-.9l.5-.3-.3-.1h-.6l-.3-.1-.1-.2.5-.3-.2-.1v-.2l.8-.3-.2-.1-1.3.1.1-.2V551l.9-.3v-.2l-.4-.1.6-.3-1.7.1.6-.3-.5-.1.9-.3-.3-.1-.3-.1c-.1,0,.8-.2-.4-.1l-2.4.3-.8.1h0l-.4.1-2,.3a12.834,12.834,0,0,0-1.5.3,2.269,2.269,0,0,0,.4.1l.1.2.5.1-.6.3-.8.3.6.1-.6.3.6.1.2.2-.2.2h1.1l-.7.3-.5.3.7.1-.9.4.2.2.4.1-1,.4h1.9l-1.3.5-.1.2,1.6-.2-1.5.6,1.3-.1-.1.2-.2.2-.9.5-.1.2,1.5-.2.2.2-1.9.7,1.6-.2-.1.2-1.4.6,1.2-.1.9-.1-1.9.8,1.7-.3-1.1.5,1-.1-1.4.7,1.7-.3-1,.5,1-.1-1.3.7,1-.1.2.1-1.6.8.1.2.4.1,1.7-.4-.1.3-1.2.7-.2.3,1.8-.5-1.2.7,1.1-.2-.5.4h.6l.1.2v.2l-.9.6-.1.3.1.2,1.4-.4-.5.5-1.1.7.3.1h.6l-.6.5,1.3-.3-.4.2-.3.2.2-.1,4.2-1.9h0l.3-.1,3-1.4.4-.2-.5.1v-.2l1-.7-.8.2.9-.6-.9.2,1.3-.7Z" fill="#102b4c"/><path d="M238.6,382.1h0l-.1-.3-1.1-3.2c-.5-1.3-.2-.4-.2-.4v.5H237l-.6-1.1.1.9-.5-1,.1,1-.7-1.4-.1.5-.2.2-.2.2-.3-.3.3,1.6-.8-1.8.1,1.2-.1.5-.4-.5-.2.1-.4-.5v.9l-.1.6-.5-.9v.9l-.4-.8.1,1.5-.5-1.2v.9l-.6-1.6.2,2-.3-.4-.5-1.3v1.3l-.3-.2-.4-.9.1,1.8-.3-.1-.4-.6-.1.7-.1-.9-.2-.1v1.5l-.5-1.8-.1.5-.3-.2v1.3l-.5-1.4v1.3l-.3-.4-.4-.9-.1.9-.3-.5-.2.3-.1.6-.2.3-.2.2-.3-.5-.2.2h-.2l-.3-.8-.2.2-.1,1.3-.2-.1h-.2l-.3-.9h-.2l-.2.3-.3-.6-.1,1.6-.3-.6-.2.5-.3-.8-.2.3-.2.3c0,.1-.1-.7-.1.3a8.1,8.1,0,0,0,0,2.2v.7h0v.3l.1,1.8a5.529,5.529,0,0,0,.1,1.4,1.425,1.425,0,0,1,.2-.4l.2-.1.2-.4.3.6.3.8.2-.5.3.6.2-.5.2-.2.3.2.2-1,.3.7.3.5.2-.7.3.9.2-.2.2-.4.4,1,.1-1,.1-.8.4,1.3.3.1V388l.5,1.5.1-1.3.3.1.3.2.4.9.3.2V388l.2-.2.6,1.9v-1.6l.3.1.5,1.4v-1.2l.1-.9.6,1.9-.1-1.7.5,1.1v-1l.6,1.4-.1-1.7.5,1v-1l.6,1.3v-1l.2-.2.6,1.6.2-.1.2-.4-.2-1.7.3.2.6,1.3.3.2-.2-1.8.6,1.3-.1-1.2.4.5.1-.6.2-.1h.3l.6,1,.3.1.2-.1-.2-1.5.5.6.6,1.2.2-.3v-.7l.5.6-.2-1.3.2.4.2.3s.1.3,0-.2A19.249,19.249,0,0,0,238.6,382.1Z" fill="#102b4c"/><path d="M270,376.9h0l-.1-.3-1.5-3.4c-.6-1.4-.2-.5-.2-.4l.1.5h-.1l-.6-1.2.2.9-.5-1,.2,1-.7-1.5v.5l-.1.2-.1.2-.2-.3.4,1.7-.8-1.9.3,1.3v.5l-.3-.6-.1.1-.3-.6.1.9v.6l-.4-1,.1.9-.4-1,.2,1.6-.4-1.3.1,1-.5-1.8.3,2.2-.2-.5-.4-1.5.1,1.4-.2-.3-.3-1,.1,2-.2-.2-.2-.7v.8l-.3-1-.1-.1v1.6l-.3-2-.1.5-.2-.2v1.4l-.2-1.6-.1,1.4-.2-.5-.2-1-.1,1-.1-.6-.1.3-.1.6-.1.3-.1.1-.1-.5-.1.2-.1-.1-.1-.9-.1.2-.2,1.4-.1-.1-.1-.1-.1-1H260l-.2.3-.1-.7-.3,1.7-.1-.7-.2.5v-1l-.2.3-.2.3c0,.1.1-.8-.2.3,0,.2,0,0-.4,2.4l-.1.8h0l-.1.4-.3,2a11.9,11.9,0,0,0-.2,1.6,1.425,1.425,0,0,1,.2-.4h.2l.3-.4.1.7.1.9.3-.6.1.7.3-.6.2-.2.2.3.3-1.1.1.8.2.6.2-.7.2,1,.2-.2.2-.4.2,1.1.2-1,.2-.9.2,1.4.2.2.2-1.7.2,1.7.2-1.4.2.2.2.2.3,1,.2.2.1-1.6.2-.2.4,2.1.1-1.7.2.1.4,1.5.1-1.3.1-1,.5,2.1v-1.8l.4,1.2v-1.1l.5,1.5-.1-1.9.4,1.1v-1.1l.5,1.5v-1.1l.2-.2.6,1.8.2-.1.1-.4-.2-1.8.3.2.6,1.4.3.3-.3-2,.6,1.4-.1-1.2.4.6v-.7l.2-.1h.2l.6,1,.3.1.2-.1-.4-1.6.5.6.7,1.2.1-.3h0l.5.7-.4-1.4.2.4.2.3-.1-.3Z" fill="#102b4c"/><path d="M305.9,373.5h0l-.1-.3-1.2-3.4c-.5-1.4-.2-.5-.2-.4v.5h-.2l-.6-1.2.1.9-.5-1.1.1,1-.6-1.5v.5l-.2.2-.1.2-.3-.3.3,1.8-.7-2,.2,1.3-.1.5-.4-.6-.2.1-.4-.6v1.6l-.5-1.1v1l-.4-1,.2,1.6-.5-1.3v1l-.6-1.8.3,2.2-.3-.5-.5-1.5.1,1.4-.2-.3-.4-1.1.2,2-.2-.2-.3-.7-.1.8-.4-1-.2-.1.1,1.7-.5-2-.1.6-.2-.2v1.5l-.4-1.6v1.5l-.2-.5-.3-1-.1,1-.3-.6-.1.4-.1.7-.2.3-.2.1-.2-.6-.2.2-.2-.1-.3-.9-.2.2-.1,1.5-.2-.1h-.2l-.2-1h-.2l-.2.4-.2-.7-.1,1.8-.2-.7-.2.5-.2-1-.2.3-.2.3c0,.1-.1-.9-.1.4a11.3,11.3,0,0,0,0,2.6v.8h0v4.3a4.709,4.709,0,0,1,.2-.5l.2-.1.2-.5.2.7.3.9.2-.6.3.7.2-.6.2-.2.2.3.2-1.2.3.8.3.6.2-.8.3,1,.2-.2.2-.4.3,1.1.1-1.1.1-1,.4,1.4.2.2v-1.8l.4,1.7.1-1.4.2.1.3.2.4,1,.3.2V379l.2-.2.5,2.2v-1.8l.2.1.5,1.6v-1.3l.1-1,.6,2.1-.1-1.9.5,1.2v-1.1l.5,1.6-.1-1.9.5,1.1v-1.1l.5,1.5v-1.2l.2-.2.6,1.8.2-.1.1-.4-.2-1.9.3.2.6,1.4.3.2-.3-2,.6,1.4-.1-1.3.4.6.1-.7.2-.1h.2l.5,1.1.3.1.2-.1-.2-1.6.4.6.6,1.2.1-.3v-.7l.5.7-.2-1.4.2.4.2.3s.1.3,0-.3S306.8,376.5,305.9,373.5Z" fill="#102b4c"/><rect x="320.991" y="370.784" width="8.3" height="2.1" transform="translate(-71.379 77.302) rotate(-12.228)" fill="#102b4c"/><rect x="349.593" y="387.1" width="2.1" height="9.1" transform="translate(-70.925 77.611) rotate(-11.478)" fill="#102b4c"/><path d="M347.9,425.2l.2.2.7.2-.8.1,1.4.3h-.9s-.3,0,.3.1l5.1.6h.4l3.7.4c1.5.1.5,0,.5,0l-.5-.2.1-.2,1.4-.1-.9-.3,1.2-.1-1-.3,1.6-.1-.5-.2-.1-.2-.1-.2.4-.2-1.8-.3,2-.1-1.3-.3-.5-.2.6-.2v-.2l.7-.2-.9-.2-.9-.3,1.1-.2-.9-.2,1-.2-1.6-.2,1.3-.2-1-.2,1.8-.2-2.1-.2.5-.2,1.5-.2-1.4-.2.3-.2,1-.2-2-.1.2-.2.7-.2-.8-.2,1-.3.1-.2-1.6-.1,2-.3-.5-.2.2-.2-1.4-.1,1.5-.3-1.4-.1.4-.2.9-.3-.9-.1.5-.3-.4-.2-.6-.1-.3-.2-.1-.2.5-.3-.2-.2v-.2l.8-.3-.2-.2h-1.3v-.4l.8-.3v-.2l-.4-.1.5-.3-1.6.1.5-.3-.5-.1.7-.3-.3-.1-.3-.1c-.1,0,.6-.2-.3-.1a15.525,15.525,0,0,0-2.1.4l-.6.1h0l-.3.1-1.7.4a13.3,13.3,0,0,0-1.3.3,1,1,0,0,1,.4.1l.1.2.4.1-.5.3-.8.3.5.1-.6.3.5.1.2.2-.2.2h1l-.7.3-.5.2.6.1-.9.3.2.1.4.1-1,.3h1l.9.1-1.3.3-.2.2h1.6l-1.6.3h1.3l-.1.2-.2.2-1,.2-.2.2h1.5l.2.2-2.1.3,1.6.1-.2.2-1.5.3,1.2.1.9.1-2.1.3,1.8.1-1.2.2,1.1.1-1.6.2,1.8.1-1.1.2,1.1.2-1.5.2,1.1.2.2.2-1.8.2.1.2.3.2,1.8.2-.2.2-1.5.1-.3.2,2,.2-1.5.1,1.2.2-.7.1.6.2v.2l-.1.2-1.2.1-.2.2v.2l1.6.3-.8.1Z" fill="#102b4c"/><rect x="345.644" y="460.555" width="16.1" height="2.1" transform="translate(-110.306 812.152) rotate(-89.61)" fill="#102b4c"/><path d="M359,501l-.1-.2-.1-.2.4-.2-1.8-.2,2.1-.2-1.3-.2-.5-.2.6-.2v-.2l.7-.2-.9-.2-.6-.2,1.1-.2-.9-.2,1-.2-1.6-.2,1.4-.2-1-.2,1.8-.1-2.2-.3.5-.2,1.5-.1-1.4-.2.3-.2,1.1-.1-2-.3.2-.2.7-.2-.7-.2,1-.1.1-.2-1.6-.3h2.1l-.5-.2.3-.2-1.4-.3h1.6l-1.4-.3.5-.2,1-.1-.9-.3.6-.1-.3-.2-.6-.3-.3-.2-.1-.2.6-.1-.1-.2.1-.2.9-.1-.2-.2-1.4-.4.1-.2.1-.2h1v-.2l-.5-.3.7-.1-1.7-.5.7-.1-.5-.3h.9l-.3-.2-.3-.2c-.1-.1.8,0-.3-.2a18.915,18.915,0,0,0-2.3-.5l-.8-.1h0l-.4-.1-1.9-.3a12.834,12.834,0,0,1-1.5-.3,1.466,1.466,0,0,0,.4.2v.2l.4.3-.6.1-.9.1.5.3-.7.1.5.3.1.2-.3.2,1,.4-.8.1-.6.1.7.3-1,.1.1.2.3.3-1.1.1,1,.3.9.3-1.4.1-.2.2,1.7.4h-1.7l1.3.4-.2.2-.2.2-1,.1-.2.2,1.6.4.1.2-2.1.1,1.6.3-.2.2-1.6.1,1.2.3.9.3-2.1.1,1.8.3-1.3.2,1.1.3-1.6.2,1.9.3-1.2.2,1.1.3-1.6.2,1.1.3.2.2-1.9.2.1.2.3.2,1.8.2-.2.2-1.5.2-.3.2,2,.2-1.5.2,1.2.2-.7.2.6.2v.2l-.1.2-1.2.3-.2.2v.2l1.6.2-.7.2-1.4.3.2.2.7.2-.8.3,1.5.2-.5.1-.4.1h.3l5.1-.3h.4l3.7-.2c1.5-.1.5-.1.5-.1l-.5-.1V502l1.3-.3-.9-.2,1.1-.2-1-.2,1.6-.3Z" fill="#102b4c"/><rect x="349.187" y="523.815" width="11.7" height="2.1" transform="translate(-172.3 876.219) rotate(-89.599)" fill="#102b4c"/><path d="M467.8,616l-.3-1.3-.5-1.3-.3-1.3a6.943,6.943,0,0,0-.5-1.3c-.2-.4-.3-.9-.5-1.3l-.7-1.2a11.355,11.355,0,0,0-1.5-2.3,17.969,17.969,0,0,0-1.9-2,28.637,28.637,0,0,0-4.7-2.2,36.117,36.117,0,0,0-4.4-2.2c-1.5-.5-3.1-.9-4.6-1.3l-4.5-1c-1.5-.4-2.9-.8-4.3-1.2a29.482,29.482,0,0,1-4.1-1.7,38.458,38.458,0,0,1-3.8-2.3c-1.3-.8-2.5-1.5-3.8-2.3a32.379,32.379,0,0,1-3.5-2.7,31.827,31.827,0,0,1-3-3.3c-1.1-1-2.2-2-3.2-3-1.2-.9-2.4-1.8-3.5-2.8a20.278,20.278,0,0,1-1.3-1.8c-.3-.5-.6-1.1-.9-1.7a18.226,18.226,0,0,1-1.1-4c-.1-1.5,0-3-.2-4.7a16.079,16.079,0,0,0-1.8-5.2,11.079,11.079,0,0,0-4.5-4.1,15.95,15.95,0,0,0-2.7-1.2,25.044,25.044,0,0,0-2.6-.7,40.107,40.107,0,0,0-5,.8,40.154,40.154,0,0,0-4.9-.2,21.656,21.656,0,0,0-5,1.3,8.892,8.892,0,0,0-5.2,3.2,15.739,15.739,0,0,0-1.9,5.1,26.428,26.428,0,0,1-1.2,4c-.4.8-1.2.9-1.2,1.9,0,.2-.6.3.1,1.8.1.2.2.3.2.4h0l-.1-.2a8.636,8.636,0,0,0-1-1.6c-.6-.6-.8,0-.9.1l-1.2.5-1.3.4a20.278,20.278,0,0,1-4.3.3c-1.5-.2-2.9-.5-4.4-.8l-4.6.1c-1.5-.3-3.1-.7-4.7-.9a42.85,42.85,0,0,0-4.9.5,23.483,23.483,0,0,0-5.3,0,18.3,18.3,0,0,0-5,2.6,15.685,15.685,0,0,0-3.8,4.3,19.371,19.371,0,0,0-2,5,19.113,19.113,0,0,0-1,5.3,19.8,19.8,0,0,0,1.7,5.2,19.776,19.776,0,0,0,1.4,5.3,15.683,15.683,0,0,0,4.2,3.5,20.152,20.152,0,0,0,4.6,2.4,24.788,24.788,0,0,0,4.8,1.7,38.594,38.594,0,0,0,4.9.6c1.6.2,3.2.4,4.7.6l4.6-.3c1.5,0,3-.1,4.5,0a33.757,33.757,0,0,1,4.2,1.3,25.851,25.851,0,0,1,4,.9,15.853,15.853,0,0,1,3.2,2.6,29.549,29.549,0,0,1,3.8,2.3l2.6,3.8c1.2,1,2.4,2.1,3.7,3.1a30.918,30.918,0,0,0,3.3,3.9,28.8,28.8,0,0,0,5,1.5,36.565,36.565,0,0,0,4.6,1.8,37.534,37.534,0,0,0,4.7,1.7c1.7,0,3.3-.1,4.9-.2l4.7.4,4.6.8c1.6-.3,3-.5,4.4-.7,1.4.3,2.9.6,4.3,1l4.3,1.6,4.6.8c1.5.6,2.9,1.2,4.5,1.7a37.013,37.013,0,0,0,4.8.9,40.2,40.2,0,0,0,5-.6,20.153,20.153,0,0,0,5.5.2,15.229,15.229,0,0,0,4.8-3.1,16.123,16.123,0,0,0,3.5-4.3,23.569,23.569,0,0,0,1.2-5.1l1-2.4a24.13,24.13,0,0,0,.8-2.5A6.962,6.962,0,0,0,467.8,616Z" fill="#fff"/><path d="M454,632.9a12.252,12.252,0,0,0-.2-1.9,7.19,7.19,0,0,0-1.3-2.8,6.765,6.765,0,0,0-2.6-1.8,12.2,12.2,0,0,0-5.3-1c-1.5.4-3,.8-4.4,1.3-1.3.1-2.7.1-4,.1a27.937,27.937,0,0,1-4,.7c-1.3-.3-2.7-.6-4-1-1.3-.1-2.7-.2-4-.4l-2-.5-1.9-.6c-1.3-.4-2.5-.9-3.8-1.4l-1.8-1-1.7-1.1a25.017,25.017,0,0,1-3.8-1.5l-1.3-1.7-1.1-1.7a39.185,39.185,0,0,1-3.2-2.5A38.759,38.759,0,0,1,401,611c-.7-1.2-1.3-2.5-1.9-3.7l-2.2-3.7c-.7-1.3-1.3-2.7-2.1-4-1-1.2-2.1-2.3-3.2-3.4a26.039,26.039,0,0,0-3.6-3,21.807,21.807,0,0,0-3.8-3,17.092,17.092,0,0,0-5-1,14.21,14.21,0,0,0-5-.3,33.581,33.581,0,0,0-4.3,2c-1.5.3-2.9.6-4.2.8a26.711,26.711,0,0,1-3.6,1.4,10.24,10.24,0,0,1-3.4-1,9.26,9.26,0,0,1-3.7-.2,13.723,13.723,0,0,1-2.9-2.5,22.68,22.68,0,0,1-1.9-3.4,34.675,34.675,0,0,1-2.5-2.9,11.9,11.9,0,0,1-.9-3.6v-4.7q-.45-2.25-.9-4.2c-1.2.2-2.3.4-3.4.6a9.852,9.852,0,0,0-1.7.2c-.5.1-1.1.2-1.6.3a10.639,10.639,0,0,0-2.5.9,12.745,12.745,0,0,0-4.2,3.1l-1.2,2.1c-.4.7-.6,1.5-1,2.2a21.16,21.16,0,0,0-1.1,2.1,10.2,10.2,0,0,0-.9,2.2,24.3,24.3,0,0,0-.8,4.7l.4,2.4.6,2.3a38.838,38.838,0,0,0-.4,4.8,41.257,41.257,0,0,0,1.7,4.5c.5,1.5,1.1,2.9,1.7,4.3.5.6,1,1.3,1.5,1.8a12.878,12.878,0,0,0,1.6,1.7A28.632,28.632,0,0,0,337,615a23.924,23.924,0,0,0,2.1,1.3,22.56,22.56,0,0,0,2.2,1.1,21.346,21.346,0,0,0,4.2,2.3,35.18,35.18,0,0,0,4.5,1.8,36.483,36.483,0,0,0,4.7-.1,35.4,35.4,0,0,0,4.6.2c1.5-.2,3-.4,4.5-.7a30.3,30.3,0,0,0,4.3-1.2,22.2,22.2,0,0,1,4.1-1,9.721,9.721,0,0,1,3.4-.1,8.389,8.389,0,0,1,2.8,1.8,17.887,17.887,0,0,1,2.8,2.7c.9,1,1.9,2.2,3,3.3a34.655,34.655,0,0,0,3.2,3.4l2,1.3,2,1.1a37.447,37.447,0,0,0,4.5,1.2c1.4.6,2.8,1.1,4.2,1.6a34.519,34.519,0,0,0,4.3,1.2l4.2,1.5c1.5.2,2.9.5,4.4.7a32.4,32.4,0,0,0,4.4.2l4.3.7,4.3-.8,4.3.7c1.5,0,2.9,0,4.4-.1,1.5.2,2.9.5,4.4.7,1.5-.1,3-.2,4.5-.4s3-.4,4.5-.7c1-.2,2.2.1,3.1-.9.1-.1.5-.2.7-.5l1-.8a1.063,1.063,0,0,0-.9-1l-.5-.2h0l.2.1a2.885,2.885,0,0,0,1.8.3c.8-.1.5-.8.5-1.1A9.484,9.484,0,0,1,454,632.9Z" fill="#96cdef"/><path d="M229.8,667.3c-.3-.8-.6-1.5-.9-2.3a25.423,25.423,0,0,0-1.4-4.7,28.825,28.825,0,0,0-3-3.9,27.341,27.341,0,0,0-2.6-4.3,29.813,29.813,0,0,0-4-3c-1.3-.9-2.5-1.7-3.8-2.5l-3.8-2.4c-1.2-.9-2.4-1.8-3.5-2.6-1.4-.6-2.7-1.2-4-1.9-.9-1.2-1.7-2.3-2.5-3.6a29.108,29.108,0,0,1-3.3-2.6,40.309,40.309,0,0,1-2.6-3.2,15.774,15.774,0,0,1-1.1-3.7,30.1,30.1,0,0,1-.9-4.1L192,618c-.4-1.5-.9-3.1-1.4-4.6a21.525,21.525,0,0,0-2.2-4.6,10.887,10.887,0,0,0-1.4-2.3,9.516,9.516,0,0,0-1.9-2.1,14.243,14.243,0,0,0-2.5-1.2c-.9-.3-1.8-.4-2.6-.6-.9-.2-1.7-.4-2.6-.6a24.519,24.519,0,0,0-2.7-.2,10.639,10.639,0,0,0-2.5.9,9.409,9.409,0,0,0-2.2,1.2,26.4,26.4,0,0,0-4.7,1.7,28.116,28.116,0,0,0-3.5,3.4c-1.4.9-2.7,1.9-4,2.9a37.983,37.983,0,0,0-1.8,4.7l-1.1,1.8-.3.4c-.1.1-.2,0-.4,0a4.15,4.15,0,0,0-1.2,0c-.8.1-1.7.2-2.7.4l-.2.9c0,.2,0,.2-.1.2h0a.1.1,0,0,1-.1-.1c0,.3-1.3.8-2.5.7a26.428,26.428,0,0,1-4-1.2c-1.4-.6-2.6-1.3-4.3-2a21.862,21.862,0,0,0-5.1.3,21.422,21.422,0,0,0-7.6.8,18.887,18.887,0,0,0-2.5,1.1,13.689,13.689,0,0,0-3.4,4.2,16.634,16.634,0,0,0-2.5,4.5,26.613,26.613,0,0,0-1,4.9,39.34,39.34,0,0,0,.6,4.8,38.9,38.9,0,0,0-.9,4.7c.2,1.6.5,3.1.8,4.6s.3,3.1.5,4.6c.5,1.5,1,2.8,1.6,4.4a21.813,21.813,0,0,0,.9,5.1,11.04,11.04,0,0,0,4.4,3.9,7.742,7.742,0,0,0,6.1,1.1,47.587,47.587,0,0,0,4.8-1.2,5.238,5.238,0,0,1,2.6-1,4.939,4.939,0,0,1,2,1.8,9.245,9.245,0,0,1,1.6,2.9,26.192,26.192,0,0,1,1.1,4,24.723,24.723,0,0,0,1.1,4.7c.3.8.5,1.6.8,2.3l1.1,2.2a23.434,23.434,0,0,0,2.6,4.3l1.8,1.8a9.51,9.51,0,0,0,2,1.5,10.961,10.961,0,0,0,2.1,1.4l2.1,1.2a35.5,35.5,0,0,0,4.3,2.3c1.5.4,3.1.8,4.7,1.1,1.6,0,3.2,0,4.8-.1,1.5.2,3.1.3,4.6.5s3.1.1,4.6.2l4.6.5,4.6-.1,4.5-.5c1.5,0,3.1.1,4.6,0,1.5-.5,3-1,4.4-1.6,1.5,0,3.1-.2,4.6-.3l4.5-1.2a38.085,38.085,0,0,0,4.7-.7,14.461,14.461,0,0,0,2.2-.9l2.1-.9a17.858,17.858,0,0,0,4.2-3c.4-.5,1-.8,1.5-1.3a2.837,2.837,0,0,0,.7-1.7,1.215,1.215,0,0,0-.7-1.8.764.764,0,0,0-.5-.2h0l.1.1a5.094,5.094,0,0,0,1.7.7c.8,0,.6-.7.7-.9l.2-.5a3.545,3.545,0,0,0,.3-1.1l.4-1.6a20.481,20.481,0,0,0,.5-2.4l.2-2.5c.1-.8.2-1.6.3-2.5a21.75,21.75,0,0,0,.1-2.5A5.073,5.073,0,0,0,229.8,667.3Z" fill="#fff"/><path d="M227.2,680.7a12.667,12.667,0,0,0-1.1-1.3,11.985,11.985,0,0,0-1.2-1.1,11.771,11.771,0,0,0-4.2-2.4,19.049,19.049,0,0,0-4.6-1.5,35.019,35.019,0,0,0-4.5.7c-1.5,0-2.9.1-4.3.2l-3.9,1.4c-1.3,0-2.7,0-4-.1a23.759,23.759,0,0,1-3.7.6c-1.3.1-2.5,0-3.8,0-1.3-.2-2.5-.2-3.8-.5-1.2-.3-2.5-.7-3.7-1.1a29.133,29.133,0,0,1-4-.5,38.759,38.759,0,0,1-3.1-2.6,38.44,38.44,0,0,1-3.6-1.4c-1.1-.6-2.2-1.4-3.3-2.1-.9-.9-1.8-1.9-2.6-2.8-.9-.9-1.7-1.9-2.6-2.9-.7-1.1-1.3-2.2-1.9-3.3l-1.2-1.5-1-1.6c-.7-1.1-1.2-2.3-1.9-3.5a30.867,30.867,0,0,0-1.4-4.3,13.3,13.3,0,0,0-3.6-3.5,16.19,16.19,0,0,0-4.1-2.7c-1.5-.2-2.9-.3-4.2-.4a21.123,21.123,0,0,1-3.1-2.1,25.86,25.86,0,0,1-3.3-1.7,25.942,25.942,0,0,1-1.9-3.3,17.554,17.554,0,0,1-3-2.4,19.11,19.11,0,0,1-1.3-3.6,15.973,15.973,0,0,1-.1-3.8l-.3-.9-.1-.4a2.034,2.034,0,0,1-.1-.5l-.1-.5-.2-3.7.2-2.4a7.789,7.789,0,0,0-2.1.4l-2.3.5-3.3,1a5.071,5.071,0,0,0-1.6.9l-1.1.7a17.1,17.1,0,0,0-1.3,2.3,20.944,20.944,0,0,0-.8,2.3,35.972,35.972,0,0,0-2.8,8.6c0,1.5.1,2.9.2,4.4-.2,1.4-.3,2.9-.4,4.3.1,1.4.2,2.8.4,4.2.5,1.4,1,2.7,1.5,4-.1,1.4-.3,2.9-.4,4.3a32.551,32.551,0,0,0,1.5,4.4,15.976,15.976,0,0,0,2.3,4.5,8.659,8.659,0,0,0,5.2,2.4,10.29,10.29,0,0,0,5.5.2c1.4-.8,2.4-1.7,3.4-2.2a3.617,3.617,0,0,1,2.5.2,5.6,5.6,0,0,1,1.6,2.1,6.765,6.765,0,0,1,1.8,2.6c.2,1.3.3,2.5.4,3.8.3,1.5.6,2.9,1,4.3a26.807,26.807,0,0,0,1.9,4.2,19.911,19.911,0,0,0,2.5,3.9l1.5,1.7c.5.5,1.1,1,1.7,1.5a12.165,12.165,0,0,0,1.7,1.5,21.965,21.965,0,0,0,1.8,1.4,36.209,36.209,0,0,0,4,1.9c1.4.6,2.7,1,4.2,1.5,1.4.6,2.8,1,4.1,1.5,1.4.2,2.9.4,4.3.5,1.5-.1,2.9-.3,4.3-.5,1.4.1,2.8.1,4.2.2h4.2l4.2.5c1.4,0,2.8-.1,4.2-.2s2.8-.3,4.2-.5h4.1c1.4-.5,2.7-1,4-1.6l4.2-.3c1.4-.3,2.7-.8,4.1-1.2,1.4-.2,2.9-.4,4.3-.7a29.856,29.856,0,0,0,4-2,13.735,13.735,0,0,0,2-1.3,9.345,9.345,0,0,0,1.8-1.6,15.38,15.38,0,0,0,1.3-1.2,2.271,2.271,0,0,0,.6-1.6c0-.2.7-1-.8-1.7-.2-.1-.3-.2-.5-.2h0l.2-.1a3.956,3.956,0,0,0,1.5-1C228.1,681.1,227.3,680.9,227.2,680.7Z" fill="#96cdef"/><path d="M465.1,619.6c-1.8-1.3-1-.3-1-.3l-.4.4a.988.988,0,0,0-.2.6c-.5.4-.9.8-1.4,1.2-1-.1-1.9-.2-2.9-.3l-.3,2.2a19.012,19.012,0,0,1-2.5-.3l-.4,2.4a24.884,24.884,0,0,1-2.9-1.1,14,14,0,0,1-1,1.6l-1.4,1c-.5.3-.9.7-1.4,1a11.019,11.019,0,0,1-1.8.2c-.1,1.1-.3,2.2-.5,3.3-1-.8-2-1.7-2.9-2.5a20.035,20.035,0,0,1-1,2.6l-1.5,1.3-2-.5c-.6.2-1.2.3-1.8.5l-2-.7-1.6,1.8c-.6.4-1.1.9-1.7,1.3l-2-1.6-1.9,1.6c-.7-.5-1.3-1-2-1.5a24.762,24.762,0,0,1-1.9,2.6c-.7-.7-1.3-1.5-1.9-2.2-.6.5-1.3,1-1.9,1.5-.6-1-1.1-2-1.6-3-.7,1.1-1.4,2.2-2.2,3.3l-1.8-1.1c-.5-.9-1-1.9-1.4-2.8-.7.6-1.5,1.2-2.2,1.8-.6-.3-1.1-.6-1.7-.9a23.924,23.924,0,0,1-1.3-2.1c-.9.9-1.8,1.7-2.7,2.5-.6-.3-1.1-.6-1.7-.9l-1.3-1.8-2.2.4c-.3-.8-.6-1.5-.9-2.2-.5-.3-1-.7-1.5-1a14.763,14.763,0,0,1-2.9,1.2c.1-1.3.1-2.5.3-3.8-.6-.1-1.3-.2-1.9-.3l-1.1-1.4a25,25,0,0,1-2.9.5c0-1.1.1-2.2.1-3.3l-3.2.3c-.5-.7-.9-1.4-1.5-2.1a20.184,20.184,0,0,0-1.4-3c-1.1-.1-2.3-.1-3.4-.1a18.9,18.9,0,0,0-2.7-2,10.455,10.455,0,0,0-6.3.5,25.578,25.578,0,0,0-2.7.5c-.9.1-1.7.3-2.5.4l-2.5-.5c-.8.2-1.5.5-2.2.7l-2.1.3c-.8-.3-1.5-.7-2.2-1l-1.7.7c-.5.9-.9,1.7-1.4,2.5h-3.1a17.383,17.383,0,0,1-1.3-1.5,7.719,7.719,0,0,1-1.5-.2c-.5-.1-1.1.2-1.7.2a11.985,11.985,0,0,1-1.1-1.2,17.486,17.486,0,0,1-2.7,1.6c-.4-.5-.7-1-1.1-1.5a12.86,12.86,0,0,1-1.9-.4c-.2-.6-.5-1.2-.7-1.8a7.973,7.973,0,0,1-1.6-.8,13.029,13.029,0,0,1-1.5-1c-.4-.3.1-1-1.1-.8-.2,0-.2-.4-2.3.8l-.9.5-1.6,1c-1,.6-1.2.9-1.2,1a5.826,5.826,0,0,0,1.1,1.5,23.924,23.924,0,0,0,1.3,2.1c.6.6,1.2,1.1,1.8,1.6.4.8.7,1.6,1.1,2.4s.8,1.7,1.3,2.5a18.612,18.612,0,0,0,2.5,1,18.064,18.064,0,0,0,1.8,2.3,25.578,25.578,0,0,0,2.7.5,24.13,24.13,0,0,0,2.5.8c.8.4,1.6.8,2.5,1.2a13.9,13.9,0,0,0,2.8-1.2,13.5,13.5,0,0,0,2.6,1.5c.9.4,1.8.6,2.7.9.8-.4,1.6-.9,2.4-1.4l2.6,1.2,2.1-.7,1.9-1c.8.5,1.5,1,2.2,1.5l1.5-1.9c.5-.6,1-1.1,1.5-1.7a11.355,11.355,0,0,1,1.5,2.3,4.875,4.875,0,0,1,1.1.4,14.371,14.371,0,0,1,1.8-2.5,14.079,14.079,0,0,1,.1,2.9,9.8,9.8,0,0,1,2.2-1.3,11.985,11.985,0,0,1,1.2,1.1l1.2,1.4.4,2.5,1.4,1.6,3.4-.5,2,1.2c-.1,1.4,0,2.8,0,4.2a35.77,35.77,0,0,0,3.5-.9,23.069,23.069,0,0,0,1.9,1.4l.9,3.3c1-.2,2-.5,3-.7l2.7-.4c.3,1.3.6,2.7,1,4,1.1-.6,2.2-1.3,3.2-1.9.5.9,1.1,1.8,1.6,2.7.9-.3,1.8-.7,2.7-1,.5,1,1.1,2.1,1.7,3.1a34.675,34.675,0,0,0,2.9-2.5l2,2.3c.9-.5,1.7-.9,2.5-1.4.7,1,1.3,1.8,2.1,2.8.8-.5,1.7-1,2.5-1.6.8-.1,1.5-.1,2.3-.2.7,1,1.5,2,2.3,3l2.3-.2a20.156,20.156,0,0,0,2.3-.7c.7-1,1.4-2.1,2.1-3.1l2.3.2c.9.7,1.7,1.4,2.6,2.1l2.4.2c.6-1.2,1.2-2.4,1.7-3.7.9.7,1.9,1.3,2.8,1.9l1.8-2.5,2.6.3a10.708,10.708,0,0,0,1.9-1.8l2.2-.9,2.2-.8c1,.3,2,.5,3,.7.8-.3,1.6-.6,2.3-.9l2.1-1.3c.3-1.2.4-2.3.6-3.5a25.123,25.123,0,0,0,2.7-.4c1.1.1,2.2.2,3.3.2.6-.6,1.1-1.3,1.7-1.9a26.043,26.043,0,0,0,1-2.5,26.043,26.043,0,0,0,2.5-1s0-.9-.1-1.8l-.1-1.7a2.92,2.92,0,0,0,.9-.2l.5-.3c.1,0,.4-.1-.2-.8-.2-.2-.4-.5-.6-.7l-.5-.5-.6-.5c-.8-.8-2.1-1.8-3.8-3.2A21.711,21.711,0,0,0,465.1,619.6Z" fill="#346e93"/><path d="M225,680.1c-1.7-1.7-.8-.5-.8-.4l-.3,1.1a5.025,5.025,0,0,0-1.2.8,24.425,24.425,0,0,1-2.4-1,14.159,14.159,0,0,1-.4,2c-.7-.3-1.5-.6-2.1-.9a8.018,8.018,0,0,1-.5,2.1c-.8-.6-1.6-1.2-2.4-1.9l-.9,1.3-1.3.6-1.3.7a7.719,7.719,0,0,1-1.5-.2c-.2,1.1-.5,2.1-.8,3.2a27.3,27.3,0,0,1-2.1-3,25.571,25.571,0,0,1-1.1,2.4l-1.4,1-1.7-.9c-.5.1-1,.1-1.6.2l-1.6-1.1-1.5,1.6-1.6,1-1.6-1.9c-.5.5-1.1,1-1.7,1.5l-1.5-1.8-1.8,2.6c-.5-.8-1-1.6-1.5-2.5l-1.8,1.4-1.3-3.3c-.7,1.2-1.4,2.4-2.1,3.5l-1.5-1.2-1.2-2.9c-.7.7-1.4,1.3-2.1,2l-1.6-.9-1.3-2.2-2.4,3-1.6-.7-1.4-1.7-2,.9-1.2-2.2-1.6-.6-2.4,2.3-.7-3.9-1.9.5-1.5-.9c-.8.6-1.6,1.3-2.3,1.9a14.154,14.154,0,0,1-.2-2.9,17.044,17.044,0,0,1-1.9,1.9,3.545,3.545,0,0,1-.3-1.1,12.09,12.09,0,0,1,.5-1.8,6.07,6.07,0,0,1-1.8.5v-1.5l-.3-.2-.1-.1h0l-1.1.8h.1l.5-.4.5-.3h-.3a4.424,4.424,0,0,1-1.5-.5,11.985,11.985,0,0,1-1.1-1.2l-.9-1.5c0-.7.1-1.3.1-2l-1.1-1.7c-.3-.7-.5-1.3-.8-1.9a12.187,12.187,0,0,0,0-2.7c-.3-.3-.6-.7-.9-1l-.6-.7c-.2-.2-.5-.3-.7-.5-.7-.2-1.3-.3-1.9-.5-.6-.1-1.3-.1-1.8-.2a7.759,7.759,0,0,0-2.4-1.6,7.838,7.838,0,0,0-1.4-.5l-1.5-.2a7.891,7.891,0,0,0-3-1.2c-.6.1-1.1.3-1.7.4-.4.2-.9.3-1.4.5l-1.2.9a8.265,8.265,0,0,1-1.3-.7,17.547,17.547,0,0,1-1.1,2.4,6.47,6.47,0,0,1-.8-.9,3,3,0,0,1-1,.4,2.879,2.879,0,0,1,.1-1.3,2.353,2.353,0,0,1-.8-.2,2.7,2.7,0,0,1-.8-.7c-.1-.2.5-.8-1-.5-.2,0-.2-.2-2.9.6l-1.2.4-2.1.8c-1.3.5-1.7.8-1.7.9a2.088,2.088,0,0,0,.8,1.6,15.916,15.916,0,0,0,1.3,2.2A11.224,11.224,0,0,0,118,667a13.655,13.655,0,0,0,1.9,2.3,15.841,15.841,0,0,0,2.3,2.2,14.154,14.154,0,0,0,2.9-.2,27.181,27.181,0,0,0,2.5,1.1c.8-.3,1.5-.6,2.3-.9.7-.2,1.5-.3,2.1-.5h.4l.1.1.2.2a3.63,3.63,0,0,1,.7-1.7,2.537,2.537,0,0,1,.2,1.2,2.769,2.769,0,0,1-.1.9,1.905,1.905,0,0,1,1-.5,2.651,2.651,0,0,1-.5.6c-.1.3-.3.5-.4.8a6.07,6.07,0,0,1,.7,1,11.408,11.408,0,0,1,1.1,1.1l-1.1,2.2c.7.3,1.4.7,2.1,1l2,1.2c-.5.9-1,1.9-1.4,2.8a24.13,24.13,0,0,0,.8,2.5c.7.2,1.4.5,2,.6a10.869,10.869,0,0,0,1.8.1,22.872,22.872,0,0,0-.7,3.6c1.1.1,2.3.2,3.4.2a15.274,15.274,0,0,0,1.8,1.8,16.319,16.319,0,0,0,2,1.7c.5.9,1.1,1.8,1.6,2.7.8.5,1.5.8,2.2,1.2.9-.7,1.7-1.4,2.6-2.1l1.8.2.8,4.1,2.5-2.3,1.7.8,1.1,3.2,2.3-1.7c.7-.4,1.5-.8,2.2-1.2l1,4,2.5-2.8,1.4,2.5,2.2-1.5,1.4,3.1,2.4-2.9,1.5,2.3,2.2-1.5c.5,1,1,1.9,1.5,2.9l2.1-1.7,1.9-.1c.5,1.1,1.1,2.2,1.7,3.3h2l2-.5a32.841,32.841,0,0,0,2-3.1l1.9.4,2,2.5,2,.4c.6-1.2,1.2-2.3,1.8-3.5.7.8,1.4,1.6,2.2,2.4l1.8-2.3,2.1.8a21.965,21.965,0,0,0,1.8-1.4l2-.5,2-.3c.8.5,1.7.9,2.5,1.3l2.1-.3,2-.7c.3-1.1.7-2.3.9-3.4l2.4.2c1,.4,2,.7,3,1l1.8-1.5,1.3-2.1a11.529,11.529,0,0,0,2.6-.3,15.441,15.441,0,0,0,.1-1.7v-1.7l1,.1h.8c.2,0,1.8.6-5.6-7.2A23.222,23.222,0,0,1,225,680.1Z" fill="#346e93"/><path d="M404.6,606c1,.8.4.2.3.2l-.2-.4.2-.2,1,.5-.4-.7.9.4-.5-.8,1.2.7-.1-.5.1-.3.1-.3h.4l-1-1.2,1.5.9-.7-1-.2-.5.6.1.2-.2.6.2-.4-.7-.2-.6.9.4-.4-.7.8.3-.9-1.1,1.1.5-.5-.8,1.4.8-1.3-1.4.5.1,1.2.7-.8-1h.4l.9.4-1.2-1.3.3-.1.7.2-.3-.6.9.4.3-.1-.9-1.1,1.6,1-.2-.5h.4l-.8-1,1.3.7-.8-1,.5.1.9.4-.5-.8.6.1v-.4l-.3-.6V595l.1-.3.6.1.1-.3a.215.215,0,0,0,.2-.2l.8.3v-.3l-.8-1,.2-.2.2-.2.9.3.2-.2-.1-.4.6.2-1.1-1.2.6.2-.2-.5.8.3-.1-.4-.1-.4c0-.1.6.3-.1-.4A10.7,10.7,0,0,0,415,589l-.8-.6-1.4-1.1a13.136,13.136,0,0,0-1.1-.9,2.269,2.269,0,0,1,.1.4l-.2.2.1.5-.6-.2-.8-.3.2.5-.7-.2.2.5-.1.3h.1l.6.8-.8-.3-.6-.1.3.6-.9-.4v.3l.1.4-1-.4.6.8.5.8-1.2-.6-.3.1,1,1.2-1.3-.8.8,1-.3.1-.3.1-.9-.4-.3.1.9,1.1v.3l-1.7-1,1,1.2-.3.1-1.3-.7.7.9.5.8-1.6-1,1.1,1.2-1-.5.6.8-1.2-.7,1.1,1.3-1-.4.6.8-1.2-.7.6.8v.3l-1.4-.8-.1.2.1.4,1,1.2-.3.1-1.2-.6h-.4l1.2,1.3-1.2-.6.7.9-.6-.2.2.6-.2.2-.2.2-1-.4-.3.1-.2.2.9,1.1-.7-.2-1.1-.5v.4l.3.6-.7-.2.8,1-.4-.2-.3-.2s-.2-.2.1.2,1.3,1.1,3.5,3Z" fill="#346e93"/><path d="M421.8,609.9c1,.7.3.2.3.2l-.3-.3.1-.1,1,.5-.5-.6.8.4-.6-.6,1.1.6-.2-.4v-.4h.3l-1-1,1.4.8-.8-.8-.2-.4.5.1.1-.2.5.2-.5-.5-.3-.4.8.4-.5-.6.8.3-.9-.9,1,.5-.5-.6,1.3.7-1.4-1,.5.1,1.1.6-.8-.8h.3l.8.4-1.2-1.1h.2l.6.2-.4-.5.8.3.2-.1-1-.9,1.5.8-.2-.4h.3l-.8-.8,1.2.6-.8-.8.4.1.8.3-.5-.6.5.1-.1-.3-.3-.4-.1-.3v-.2l.5.1V602l.2-.1.7.3V602l-.9-.8.2-.1.2-.1.8.4.1-.1-.1-.3.6.2-1.1-1,.6.2-.3-.4.8.3-.1-.3-.1-.3c0-.1.6.4-.2-.3a20.278,20.278,0,0,0-1.8-1.3l-.8-.6-1.5-1.1-1.2-.8s.2.2.2.3v.2l.2.4-.5-.2-.7-.3.3.5-.6-.2.3.5v.2h-.3l.7.7-.7-.3-.5-.1.4.5-.8-.3v.2l.2.3-.9-.4.6.7.5.6-1.1-.5-.2.1,1.1,1-1.2-.7.8.8-.2.1H421l-.8-.3H420l1,.9v.2l-1.5-.9,1,.9-.2.1-1.1-.6.8.7.5.6-1.5-.8,1.1,1-.9-.5.6.7-1.1-.6,1.1,1-.8-.4.6.6-1.1-.6.6.6v.2l-1.3-.7v.2l.1.3,1.1,1h-.2l-1-.5h-.3l1.2,1-1.1-.5.7.7-.5-.2.3.4-.1.2-.2.1-.8-.4h-.2l-.1.1.9.9-.6-.2-1-.5v.2l.3.4-.6-.2.8.8-.3-.2-.3-.1s-.2-.1.2.2l3.5,2.5Z" fill="#346e93"/><path d="M434.5,614.4c.8.8.3.2.3.2l-.3-.2.1-.2.8.6-.4-.5.7.5-.5-.6.9.7-.2-.3v-.3l.3.1-.9-1,1.2,1-.6-.8-.2-.3.4.2v-.1l.4.3-.4-.5-.3-.4.7.5-.4-.5.6.4-.8-.9.8.6-.4-.6,1,.8-1-1.3.4.2.9.7-.7-.8.2.1.7.5-1-1.1h.2l.5.3-.3-.5.6.5h.2l-.8-.9,1.2,1-.2-.3.2.1-.7-.8.9.7-.7-.8.3.2.6.5-.5-.6.4.2-.1-.2-.3-.4-.1-.2V610l.4.2V610h.1l.6.4v-.2l-.7-.8h.2l.6.5.1-.1-.1-.3.5.3-.9-1,.5.3-.2-.4.6.4-.1-.2-.1-.2c0-.1.5.4-.2-.2l-1.4-1.4-.7-.7-1.2-1.1-1-.9c-.1,0,.1.2.2.3v.1l.2.3-.4-.3-.6-.4.3.4-.5-.3.3.4v.2l-.2-.1.5.7-.5-.3-.4-.2.3.5-.6-.4v.2l.1.3-.7-.5.5.6.4.6-.9-.7H433l.9,1-1-.8.7.8h-.4l-.6-.5h-.2l.8.9v.2l-1.2-1,.8.9h-.2l-.9-.7.6.7.4.6-1.2-1,.9,1-.8-.6.5.6-.9-.7.9,1-.7-.5.5.6-.9-.7.5.6v.2l-1-.8v.1l.1.2.9,1h-.2l-.9-.7-.2-.1,1,1.1-.9-.7.6.7-.4-.3.2.4-.1.1h-.1l-.7-.5h-.2l-.1.1.8.9-.5-.3-.8-.6v.2l.3.4-.5-.3.7.8-.3-.2-.2-.2s-.2-.2.1.2l3,2.8Z" fill="#346e93"/><path d="M170.2,659.5c.6,1,.3.3.3.3l.1-.5.4-.2,1,.7V659l.9.6v-.9l1.1.9.2-.6.4-.3.4-.3h.6l-.4-1.5,1.3,1.3-.2-1.2.2-.6.7.2.4-.3.7.3v-.9l.1-.7.9.6v-.9l.9.5-.4-1.5,1.1.8-.1-1,1.3,1.1-.7-1.9.7.2,1.2,1-.3-1.3h.5l.9.6-.6-1.8.5-.1.8.3v-.8l.9.5.5-.2-.5-1.5,1.5,1.4.1-.7h.5l-.4-1.4,1.2,1-.4-1.4.6.1.9.5-.1-1,.7.2.2-.5V647l.2-.5.3-.4.7.2.3-.4.4-.2.9.4.3-.4-.4-1.4.4-.2.4-.2,1,.5.4-.3.2-.6.8.3-.6-1.7.8.3.1-.7.9.5.1-.6.2-.6c0-.1.6.5,0-.5-.1-.2.1-.1-1.3-2l-.7-.9-1.2-1.5-.8-.9c-.1-.1-.1-.2-.2-.2s0,.3-.1.5l-.4.3-.1.6-.7-.2-.9-.4v.8l-.8-.3v.8l-.3.4h-.5l.3,1.1-.8-.4-.7-.2v.8l-.9-.5-.2.4-.2.6-1-.6.2,1.1.1,1-1.2-.8-.5.1.6,1.6-1.3-1,.4,1.3-.5.1-.5.1-.9-.5-.5.1.5,1.5-.3.4-1.5-1.4.5,1.6-.5.1-1.2-1,.3,1.2.1,1-1.5-1.4.6,1.7-1-.7.2,1.1-1.2-1,.6,1.7-1-.7.2,1.1-1.1-.9.2,1.1-.3.4-1.3-1.1-.3.3-.2.5.5,1.6-.5.1-1.1-.9H173l.6,1.7-1.1-.9.2,1.2-.7-.1-.1.7-.4.3-.4.2-.9-.6-.5.1-.4.3.3,1.4-.7-.3-1-.7-.3.4-.1.7-.7-.3.2,1.2-.3-.2-.2-.2s-.2-.2,0,.2.8,1.4,2.1,3.8Z" fill="#346e93"/><path d="M190.9,664.6c.8.9.3.3.3.2l-.1-.4.2-.1.9.7-.3-.7.8.5-.3-.8,1,.8-.1-.5.1-.2.1-.2.4.1-.7-1.2,1.2,1.1-.5-1-.1-.4.5.2.2-.2.5.3-.3-.7-.1-.5.8.5-.3-.7.7.5-.7-1.1.9.7-.3-.8,1.1,1-1-1.5.5.2,1,.8-.5-1h.4l.8.5-.9-1.4h.3l.6.3-.2-.6.7.5.3-.1-.7-1.2,1.3,1.2-.1-.5h.3l-.6-1,1,.9-.6-1.1.4.2.8.5-.3-.8.5.2v-.4l-.2-.6v-.3l.1-.2.5.2.1-.3.2-.1.7.4.1-.3-.6-1.1.2-.1.2-.1.8.5.2-.1V655l.6.3-.8-1.3.6.3-.1-.5.7.5v-.7c0-.1.6.5-.1-.3a21.965,21.965,0,0,0-1.4-1.8l-.7-.8-1.1-1.4c-.8-.9-1-1.1-1-1.1a2.269,2.269,0,0,1,.1.4l-.1.2.1.5-.5-.3-.7-.5.2.6-.6-.3.2.6-.1.3h-.3l.5.9-.6-.4-.5-.2.2.6-.7-.5-.1.3v.4l-.8-.6.4.8.3.8-1-.8h-.3l.8,1.3-1.1-.9.6,1-.3.1h-.3l-.7-.5h-.3l.7,1.2-.1.3-1.3-1.2.7,1.2-.3.1-1-.8.5,1,.3.8-1.3-1.2.8,1.3-.9-.6.4.8-1-.8.8,1.3-.8-.6.4.8-1-.8.4.8-.1.3-1.1-1-.1.2v.4l.8,1.3h-.3l-1-.8H189l.9,1.4-1-.8.5.9-.5-.2.1.5-.2.2-.2.1-.8-.6h-.3l-.2.2.6,1.1-.6-.3-.9-.7-.1.3.2.6-.6-.3.6,1-.3-.2-.2-.2s-.2-.2.1.2,1,1.3,2.8,3.3Z" fill="#346e93"/><path d="M207.3,667.6l.3.3-.3-.3.1-.1.8.7-.5-.6.7.6-.5-.7,1,.9-.2-.3v-.2l.3.2-1-1.1,1.3,1.2-.7-.8-.2-.3.4.3v-.1l.5.3-.5-.6-.3-.4.7.6-.5-.6.7.5-.9-1,.9.8-.5-.6,1.1,1-1.3-1.4.4.3,1,.9-.8-.9.2.1.7.6-1.2-1.3.2.1.5.4-.4-.5.7.6h.1l-.9-1,1.4,1.2-.3-.4.2.1-.8-.9,1.1,1-.8-1,.4.2.7.6-.5-.7.4.3-.1-.3-.3-.5-.1-.2v-.1l.4.3v-.2h.1l.7.5-.1-.2-.9-1h.2l.7.6h.1l-.2-.3.5.4-1.1-1.3.5.4-.3-.4.7.6-.2-.3-.1-.3c0-.1.6.6-.2-.3l-1.8-1.8-.8-.8-1.5-1.5-1.2-1.1c-.1,0,.2.2.3.3v.1l.3.4-.5-.4-.7-.5.4.5-.5-.4.4.5.1.2-.2-.1.7.8-.6-.5-.4-.3.4.5-.7-.6.1.2.2.3-.8-.7.6.8.5.7-1-.9h-.2l1.1,1.2-1.1-1,.8.9h-.1l-.2-.1-.7-.6-.2-.1,1,1.1.1.2-1.4-1.3,1,1.1h-.1l-1-.9.8.9.5.7-1.4-1.2,1.1,1.2-.8-.7.6.7-1-.9,1.1,1.2-.8-.7.6.7-1-.9.6.7.1.2-1.2-1v.1l.1.3,1,1.2-.2-.1-.9-.8-.2-.1,1.1,1.2-1-.8.7.8-.5-.3.3.4v.1h-.1l-.8-.6-.2-.1v.1l.9,1-.5-.4-.9-.8.1.2.3.5-.5-.4.8.9-.3-.3-.2-.2s-.2-.2.1.2l3.2,3.2Z" fill="#346e93"/><path d="M322.1,31.7c.1-.9,0-.3-.1-.3l-.4.2-.5-.2-.3-1-.6.4-.4-.9-.6.5-.3-1.2-.6.2h-1l-.5-.4-.8,1.1-.2-1.5-.7.8-.6.2-.4-.5-.5-.1-.4-.6-.6.5-.6.3-.4-.9-.6.5-.4-.8-.7,1-.4-1-.6.6-.3-1.3-.8,1.4-.5-.5-.3-1.1-.7.8-.5-.3-.4-.8-.8,1.3-.5-.2-.4-.6-.6.4-.4-.8-.5-.2-.7,1-.3-1.5-.6.3-.5-.3-.7.9L299,26l-.7.9-.5-.4-.4-.8-.6.6-.5-.5-.5.1-.6.4-.5.1h-.5l-.5-.4h-.5l-.5-.1-.4-.7-.5.1-.6.9-.5-.1-.5-.1-.4-.7-.5-.1-.6.2-.5-.5-.7,1.1-.5-.5-.6.3-.4-.7-.5.1-.5.1c-.1,0-.2-.5-.4.2a5.219,5.219,0,0,0-.3,1.5l-.1.7-.1,1.2a3.4,3.4,0,0,0-.1,1c.1.1.3,0,.4-.1h.5l.6-.2.5.4c.1.2.3.4.4.6l.6-.3.5.5.6-.3h.5l.5.3.6-.6.4.6.5.5.6-.4.4.7.5-.1.5-.2.4.8.6-.6.6-.5.4,1,.5.2.7-1.1L296,33l.6-.8.5.2.5.2.4.8.5.2.7-1h.5l.3,1.5.7-1,.5.2.3,1.1.6-.8.6-.6.3,1.5.7-1.1.4.9.6-.6.3,1.2.7-1.2.4.9.6-.6.3,1.2.6-.6h.5l.3,1.3h.5l.5-.1.7-1.1.5.3.3,1.1.5.3.8-1.2.3,1.1.7-.7.4.6.6-.3.5.1.5.2.4.9.5.2.5.1.7-1,.4.6.3,1,.5-.1.6-.4.4.5.7-.9.1.3.1.2s0,.2.1-.2.3-1.2.8-3.3Z" fill="#1b557a"/><path d="M334.1,54.4c.1-1,0-.4-.1-.3l-.4.2-.5-.2-.4-1a4.233,4.233,0,0,1-.7.5l-.4-.9-.7.6-.4-1.2-.6.2h-1.2l-.5-.4-.8,1-.3-1.5-.7.8-.6.2-.5-.5-.6-.1-.5-.6-.7.5-.6.3-.4-.8-.7.5-.4-.8-.8,1-.4-1-.7.5-.3-1.3-.8,1.3-.5-.5-.3-1.1-.7.8-.5-.3-.4-.8-.8,1.2-.5-.2-.5-.6-.6.4-.4-.8-.5-.2-.8.9-.3-1.4-.6.2-.5-.3-.7.8-.3-1.1-.7.8-.5-.4-.4-.7-.7.5-.5-.5-.6.1-.6.3-.6.1h-.6l-.5-.5h-.6l-.5-.2-.4-.6h-.6l-.7.7-.6-.2-.5-.2-.4-.7-.5-.1-.6.1-.5-.5-.8.9-.5-.5-.6.2c-.1-.2-.3-.4-.4-.6l-.6.1-.6.1c-.1,0-.1-.5-.4.1a6.076,6.076,0,0,0-.5,1.3l-.1.6-.2,1.1a2.769,2.769,0,0,0-.1.9c.1.1.3-.1.5-.1l.5.1.6-.1.5.5.4.7.6-.2.5.5.6-.2h.6l.5.3.7-.5.4.6.5.5.6-.3.4.7h.6l.6-.1.4.8.7-.5.7-.4.4,1,.5.2.8-.9.3,1.1.7-.7.5.2.5.3.4.8.5.3.8-.9h.6l.3,1.5.8-.9.5.2.3,1.1.7-.7.7-.5.3,1.6.8-1.1.4,1,.7-.6.3,1.2.8-1.1.4.9.7-.6.3,1.1.7-.6h.6l.3,1.3.6.1.6-.1.8-1.1.5.3.4,1.1.5.3.8-1.2.4,1.1.7-.7.5.6.6-.3.6.1.5.2.4.9.5.2.6.1.8-1,.5.6.4,1,.6-.1c.2-.1.4-.3.6-.4l.5.6.7-.9.1.3.1.3s0,.2.1-.2.3-1.3.7-3.5Z" fill="#1b557a"/><path d="M341.5,74.7c.1-1,0-.4-.1-.3l-.3.2-.4-.1-.3-1-.5.6-.3-.8-.5.6-.3-1.1-.4.3H338l-.4.1-.4-.3-.6,1.1-.2-1.4-.5.9-.4.3-.3-.5h-.4l-.3-.5-.5.5-.5.4-.3-.8-.5.6-.3-.7-.6,1-.2-.9-.5.6-.2-1.3-.6,1.4-.3-.4-.2-1.1-.6.8-.4-.2-.3-.8-.6,1.2-.4-.2-.3-.5-.5.4-.3-.7L326,72l-.6.9-.1-1.3-.5.3-.4-.2-.6.8-.2-1-.6.8-.3-.4-.2-.7-.5.5-.3-.4-.4.1-.5.3-.4.1H320l-.3-.4h-.4l-.4-.1-.2-.6h-.4l-.6.7-.4-.2-.4-.1-.2-.7-.4-.1-.4.1-.3-.5-.7.9-.3-.5-.5.2-.2-.7-.4.1-.4.1c-.1,0,0-.5-.3.1a6.481,6.481,0,0,0-.5,1.4l-.2.7-.4,1.2a2.92,2.92,0,0,0-.2.9c.1.1.2-.1.4-.1l.4.1.5-.1.3.5.2.7.5-.2.3.5.5-.2h.4l.4.3.6-.6.3.6.3.4.5-.3.2.7h.4l.5-.1.2.8L319,76l.5-.4.2.9.4.2.6-.9.2,1.1.6-.7.4.2.4.2.3.7.4.2.6-.9h.4l.1,1.4.6-.9.4.2.2,1.1.6-.7.5-.5.1,1.4.6-1.1.2.9.5-.6.2,1.1.6-1.1.3.8.5-.6.2,1.1.5-.6h.4l.2,1.3h.4l.5-.1.6-1.1.4.2.3,1,.4.3.6-1.2.3,1.1.5-.8.4.5.5-.4h.4l.4.1.3.9.4.2.4.1.5-1,.4.6.3,1,.4-.1.5-.4a2.092,2.092,0,0,0,.4.6l.5-1,.1.3.1.2s0,.2.1-.2a33.63,33.63,0,0,0,.4-3.5Z" fill="#1b557a"/><path d="M377.8,333.8c-.6-.5-.3-.1-.3,0l-.2.6-.5.6-1,.2-.2.9-1,.2-.2.9-1.1.1-.3.8-.5.6-.5.7-.7.5.1,1.2-1.3-.1v1l-.3.8-.8.2-.5.6-.8.4-.2.9-.3.8-1,.2-.2.9-.9.3.1,1.1-1,.2-.2.9h-1.2l.3,1.3-.7.4-1.1.1v1l-.6.5-.9.2.2,1.3-.6.5-.8.3-.2.9-.9.2-.6.5.1,1.1-1.3-.1-.3.8-.6.5v1.1l-1.1.1v1.1l-.7.4-.9.2-.2,1-.8.4-.4.7-.3.8-.4.7-.5.6-.8.4-.5.7-.6.6-.9.3-.4.7v1.1l-.6.6-.7.7-.9.3-.5.6-.4.7-.8.4.2,1.2-.8.4-.3.8-.9.3-.4.8-.4.7c-.1.2-.5.1-.2.6,0,.1-.1.2.7.9l.4.3.7.6a4.574,4.574,0,0,0,.6.4,1,1,0,0,0,.4-.5l.6-.6.4-.7.8-.4.9-.3.3-.8.8-.3.3-.8.5-.7.6-.5.1-1,.9-.3.8-.4.2-.8.9-.2.5-.7.4-.7,1-.2.1-1,.2-.9,1.1-.1.6-.5-.1-1.2h1.2v-1.1l.6-.5.6-.5.9-.2.6-.5-.1-1.2.5-.7,1.4.1-.1-1.2.6-.5,1.1-.1v-1l.2-.9,1.3.1-.2-1.2,1-.2.1-1,1.1-.1-.2-1.2,1-.2.1-1,1.1-.1.1-1,.5-.7h1.2l.5-.6.4-.7-.2-1.2.6-.5,1.1-.1.7-.5-.2-1.2,1.1-.1.1-1,.8-.4.3-.8.5-.6.6-.6,1-.2.6-.5.5-.6-.1-1.1.8-.4,1-.1.5-.7.3-.8.8-.3V337h.6c.1,0,.6.1-2-2.1A6.768,6.768,0,0,0,377.8,333.8Z" fill="#102b4c"/><path d="M367.6,260.5c.1-1,.1-2.1.1-3.1-.2-1-.5-2-.8-3v-3.1l-.9-3c-.3-1-.7-1.9-1-2.9-.3-.7,0-1.5-.9-2-.2-.1-.2-.7-1.7-.2l-.5.2h.2a7.741,7.741,0,0,0,1.6-.7c.6-.4,0-.6,0-.7l-.9-1.8-1.2-2.8c-.2-1-.5-2-.7-3l-1.6-2.6-.5-1.4-.3-1.5c-.4-.9-.9-1.8-1.4-2.7-.1-1-.3-2.1-.4-3.1l-1.2-2.7c-.3-.9-.5-1.9-.9-2.9s-.7-1.8-1.1-2.7l-.9-2.8-2-2.3.2-3.2-1.9-2.4-1.1-2.7c-.1-1-.3-1.9-.4-2.9l-.4-1.4-.2-.7a.756.756,0,0,0-.1-.4l.3-2.8-.7-3-.5-3c.2-1,.4-2.1.5-3.1a6.374,6.374,0,0,1-.2-.9l-.3-1.3a16.817,16.817,0,0,0-.7-2.4,16.445,16.445,0,0,0-1-4.9,6.979,6.979,0,0,0-2.7-1.4,4.2,4.2,0,0,0-1.4-.9,7.487,7.487,0,0,0-2.1-.2,6.4,6.4,0,0,0-2.5,2.9,8.647,8.647,0,0,0-2.8,2.9,21.04,21.04,0,0,0,.2,5.6c-.3,1-.5,2.1-.7,3.1a30.053,30.053,0,0,0-1.1,3.2,28.115,28.115,0,0,0,1,3.1c0,1,0,2.1.1,3.1a18.164,18.164,0,0,1-.3,3.2c.6,1,1.2,1.9,1.8,2.8l.5,3,.2,3.1,1.3,2.8.1,3.1.8,2.9,1.9,2.6-.5,3.3,1.3,2.7.8,2.9,1.9,2.5-.2,3.2,1.9,2.5.5,2.9c0,1,.1,2,.1,3,.5.9,1,1.7,1.4,2.6a28.252,28.252,0,0,1,.2,2.9c.3.9.5,1.8.8,2.8s.6,1.8.9,2.7a27.971,27.971,0,0,1,.6,2.8,26.6,26.6,0,0,1,.3,2.8l-.3,2.9c.1,1,.1,2.1.3,3.1.1,1.1.2,2.2.4,3.4a16.518,16.518,0,0,0,.5,3.8,11.521,11.521,0,0,0,2.5,3.3,11.1,11.1,0,0,0,3.9,1.6,8.566,8.566,0,0,0,4.1,1,7.281,7.281,0,0,0,4.2-1.6,11.074,11.074,0,0,0,3.1-3,13.736,13.736,0,0,0,1.1-3.6c.1-1.1.2-2.3.2-3.4.2-1.1.3-2.1.5-3.2A25.5,25.5,0,0,1,367.6,260.5Z" fill="#346e93"/><path d="M413.5,345.9a6.373,6.373,0,0,0,.2-.7l.5-1.5c-.8-1.3-1.6-5.9-2.5-8.5a83.521,83.521,0,0,0-.3-10,23.175,23.175,0,0,0-1.4-8.6,5.84,5.84,0,0,0-1.8-.4,16.719,16.719,0,0,1-2.4-.4l-.5.1a6.652,6.652,0,0,0-4.7,1.5,8.489,8.489,0,0,0-3.8,2.2,45.557,45.557,0,0,0-1.4,6.4c-.4,2.5-.7,5.1-1,7a37.6,37.6,0,0,1-2,4.6l-1.4,2.7-3.4,5-2,5.8-3.7,5.1c-.9,1.9-1.9,3.7-2.8,5.7q-.45,3.45-.6,6.9a28.847,28.847,0,0,0-3.4,6.8,28.307,28.307,0,0,0,1.4,7.6,41.086,41.086,0,0,0,2.1,6.8c1.4,1.7,2.8,3.4,4.4,5,.5,2.1,1,4.1,1.3,6.1a49.509,49.509,0,0,1,3.7,4.3,22.552,22.552,0,0,1,.8,5.1,30.027,30.027,0,0,1-.8,5.1,31.684,31.684,0,0,1,.5,5.3,46.026,46.026,0,0,1-1.9,5.2c-.4,1.8-.8,3.7-1.4,5.6s-.9,3.9-1.4,5.8l-1.8,5.8c-.7,1.9-1.3,3.9-2,5.9-.9,1.9-1.7,3.9-2.5,5.9-.5,2-.9,4.1-1.3,6.2s-.9,4.1-1.3,6.2c-.7,2-1.3,4.1-1.9,6.2-.2,2.1-.3,4.2-.4,6.4.4,2.2.9,4.3,1.4,6.4-.1,2.1-.1,4.2-.1,6.3s.1,4.2.3,6.3c-.2,2.1-.4,4.3-.5,6.5.3,2.2.7,4.3,1.2,6.5a51.235,51.235,0,0,0,2.5,6.5,28.375,28.375,0,0,0,2.7,6.8,29.282,29.282,0,0,0,6.3,4,29.56,29.56,0,0,0,2.4,2.6,15.38,15.38,0,0,0,1.3,1.2,19.076,19.076,0,0,0,2.1,1.5c2,1,3.9,1.6,5.9,2.4,1-.8,1.9-1.6,2.8-2.4a13.3,13.3,0,0,0,1.9-1.4,7.69,7.69,0,0,0,1.8-1.8,17.684,17.684,0,0,0,1.6-2.2,14.43,14.43,0,0,0,1.1-1.9,42.121,42.121,0,0,0,1.2-7.1c.2-2.2.2-4.3.2-6.3,0-1.4,1.3-2.8-.1-4.3-.2-.2.2-1.5-3-1.8h-.7a11.483,11.483,0,0,0,3.7,0c1.5-.3.6-1.1.6-1.4l-.2-4,.5-6.1,1.7-6.1-.7-6.2,1.3-6.1-.9-6.2,1.7-6.1-.5-6.1-.1-6.1-.2-6.1.3-6.1-1.8-6.1,2.1-6.1-1.3-6.1-.4-6.1.8-6,.1-6,.9-6-.7-6.1-.4-6.1,1.4-6-.7-6.2,1.2-6.1-1.5-6.2c.5-2,1-4.1,1.4-6.2l-1.1-6.2.8-3.1Z" fill="#102b4c"/><path d="M192.5,363.3a42.155,42.155,0,0,0,2.2-7.7,37.666,37.666,0,0,0-3.2-7.8,26.562,26.562,0,0,0-4.7-7.7,23.553,23.553,0,0,0-6.2-7.8,29.023,29.023,0,0,0-9.1-2.3,35.293,35.293,0,0,0-8.6.7,35.416,35.416,0,0,0-7.1,4.5,38.164,38.164,0,0,0-3.6,1.3c-1.3.6-2.6,1.3-3.8,2a26.66,26.66,0,0,0-7.8,5,32.954,32.954,0,0,0-4.3,7.8,38.55,38.55,0,0,0,1.1,8.3,63.371,63.371,0,0,0-2.6,7.3,52.936,52.936,0,0,0,2,7.1,39.762,39.762,0,0,0,.1,6.9,5.372,5.372,0,0,0,1,1.6l1.2,1.5.6.8.3.4.1.2.1.1h.2c.1.5.1,1.1.2,1.7l.3,6.7c0,2.2.3,4.5.4,6.7l-.6,6.8.4,6.7.6,6.7,2.3,6.5-.2,6.7-1,6.8.8,6.6L145,454l-.4,6.8,2.3,6.5-.4,2.2-.3,1.7c-.1.4-1.2,2.6,7.1,1.7h0l-.6.1c-1.2.2-2.4.5-3.3.7-2,.5-2.5.8-2.5,1.2,0,1.7.8,3.3,1.1,5l.7,6.7,1.4,6.6-.4,6.8-.8,6.8,1.8,6.5-.5,6.8,1.8,6.5,1,6.6.2,6.7,2.6,6.4-.3,3.4a25.412,25.412,0,0,0-.1,3.9c0,.3.1.8.1,1.3l.3,1.5a24.6,24.6,0,0,0,.7,2.9,26.138,26.138,0,0,0,2.4,5.4,14.184,14.184,0,0,0,9,4.7,25.824,25.824,0,0,0,2.6.8,14.55,14.55,0,0,0,7.7-.9,16.43,16.43,0,0,0,4.1-3.8,23.941,23.941,0,0,0,2.9-5.2,31,31,0,0,0,1.5-6,16.461,16.461,0,0,0,.2-2.1c0-.7.1-1.5.1-2l2.5-6.7-1.2-7-1.1-6.8,2.5-6.7c.1-2.3.2-4.5.3-6.8l-2.8-6.8c.9-2.3,1.6-4.5,2.5-6.8l-2.3-6.7v-6.7l.1-6.7,1.3-6.7.1-6.7-2.6-6.6-.4-6.6,3.1-6.6c-.8-2.2-1.7-4.4-2.5-6.6l.3-6.6,2.5-6.5-1.6-6.7-1-6.7,3.6-6.3-2.1-6.8,2.5-6.4-.8-6.8,3.1-6.3-1.8-6.9,2.6-6.4A36.281,36.281,0,0,1,192.5,363.3Z" fill="#102b4c"/><path d="M175.7,361.4c-.8-.8-.4-.2-.4-.2l-.2.7-.7.5-1.3-.2-.2,1.1-1.2-.1-.2,1.2L170,364l-.4.8-.6.6-.6.7-.9.4.2,1.6-1.6-.6v1.3l-.4.8-1,.2-.6.6-1,.2-.2,1.1-.4.9h-1.2l-.2,1.1H160l.1,1.5-1.3-.2-.2,1.1-1.5-.4.4,1.8-.9.3-1.4-.3v1.3l-.8.4H153l.4,1.7-.8.5-1,.2-.3,1h-1.2l-.7.5.2,1.5-1.7-.5-.4.9-.8.5.1,1.4-1.4-.2.1,1.4-.9.4-1.1.1-.1,1.1-.9.3-.5.8-.3,1-.5.8-.6.7-.9.3-.5.7-.6.6-1,.2-.5.7.1,1.3-.6.6-.6.6-1.1.2-.6.7-.4.8-.9.4.2,1.4a5.938,5.938,0,0,0-.8.4l-.3.9-.9.3-.4.8-.5.8c-.1.2-.6,0-.3.6,0,.1-.2.2.8,1.1l.5.4.8.7a4.888,4.888,0,0,0,.7.5c.2-.1.2-.4.3-.6l.6-.6.4-.8.9-.3,1-.2c.1-.3.3-.5.4-.8l1-.3.4-.8.6-.7.8-.5.1-1.1,1-.2.9-.3.3-1,1.1-.1.5-.7.4-.8h1.2l.1-1.1.2-1.1,1.3.1.7-.5-.2-1.5,1.5.3-.1-1.3.7-.5.8-.5h1.1l.7-.5-.2-1.4.5-.7,1.7.6-.2-1.5.7-.5,1.5.3v-1.3l.1-1.1,1.7.6-.3-1.6,1.3.1.1-1.2,1.4.3-.3-1.6,1.2.1.1-1.2,1.4.3.1-1.2.6-.7,1.5.5.6-.6.5-.8-.2-1.6.8-.4,1.4.3.8-.4-.3-1.7,1.4.3.1-1.2,1-.2.4-.9.6-.6.7-.5,1.2.1.8-.4.7-.6-.1-1.5,1-.1,1.3.3.6-.7.4-.9,1-.1v-1.4l.4.1.4.1s.2.1,0-.3c-.8-1.1-1.6-2.2-2.5-3.3A12.017,12.017,0,0,0,175.7,361.4Z" fill="#0b1b30"/><path d="M174.4,388.2c-.8-.8-.4-.2-.4-.2a1.689,1.689,0,0,0-.2.5l-.6.6-1.3-.1-.1,1.1h-1.2l-.1,1.1-1.4-.3-.3.8-.5.6-.5.7-.8.4.3,1.5-1.6-.5.1,1.3-.3.8-.8.2-.6.6-.9.2-.1,1-.3.9h-1.1l-.1,1-1.1.1.2,1.4-1.2-.1-.1,1.1-1.5-.3.5,1.7-.9.3-1.4-.2.1,1.3-.7.5-1.1.1.4,1.6-.7.5-.9.2-.2,1-1.1.1-.6.5.2,1.4-1.6-.4-.3.9-.7.5.1,1.3-1.4-.1.1,1.3-.8.4-1.1.1-.1,1-.9.3-.4.8-.2.9-.4.8-.5.7-.8.4-.5.7-.6.6-1,.2-.4.7.1,1.2-.6.6-.6.6-1,.2-.5.6-.4.8-.8.3.2,1.3-.8.3-.3.8-.9.3-.4.8-.4.8c-.1.2-.5,0-.2.6,0,.1-.1.2.8,1l.5.4.8.7a4.888,4.888,0,0,0,.7.5c.2-.1.2-.4.3-.6l.6-.6.4-.7.9-.3,1-.2.3-.8.9-.3.3-.8.5-.7.7-.5.1-1.1,1-.2.8-.3.2-.9,1-.1.5-.7.4-.8,1.1-.1.1-1.1.1-1,1.3.1.7-.5-.3-1.4,1.4.2-.1-1.2.6-.5.7-.5,1.1-.1.7-.5-.2-1.3.5-.7,1.6.4-.3-1.4.6-.5,1.4.2-.1-1.2.1-1,1.6.4-.3-1.5h1.2v-1.1l1.4.2-.4-1.5h1.2v-1.1l1.4.2v-1.1l.5-.7,1.5.3.5-.6.4-.8-.3-1.5.7-.5,1.3.2.8-.4-.4-1.6,1.4.2v-1.2l.9-.2.3-.9.6-.6.6-.5h1.2l.7-.5.6-.6-.2-1.4,1-.2,1.3.2.5-.7.2-.9,1-.1-.2-1.3h.7s.2.1-.1-.3a35.836,35.836,0,0,0-2.6-2.9C175.3,389.1,174.7,388.5,174.4,388.2Z" fill="#0b1b30"/><path d="M161.8,430.2c-.9-.7-.4-.2-.4-.1v.5l-.4.4-1.2-.2.1.9-1-.1.2,1-1.3-.3-.1.7-.3.5-.3.5-.6.3.6,1.3-1.5-.6.3,1.1-.1.7-.7.2-.4.5-.7.1.1.9-.1.8-1-.1.1.9h-.9l.4,1.2-1.1-.2.1.9-1.3-.4.7,1.5-.7.2-1.2-.2.3,1.1-.5.3H148l.6,1.3-.5.4-.8.1v.8h-.9l-.5.4.4,1.2L145,448l-.1.7-.5.3.3,1.1-1.1-.2.3,1.1-.6.2h-.9v.9l-.7.2-.2.6-.1.7-.4.4-.3.5-.6.2-.3.5-.4.4-.8.1-.3.5.2,1-.5.4-.4.4h-.8l-.4.4-.2.6-.7.2.3,1.2-.7.2-.2.7-.8.1-.3.6-.3.6c-.1.1-.5-.1-.1.5.1.1-.1.1.8,1l.4.4.8.7c.5.4.6.5.6.5a4.709,4.709,0,0,1,.2-.5l.4-.4.3-.6.7-.2.8-.1.2-.6.7-.1.2-.7.4-.5.5-.3v-.9l.8-.1.7-.2.1-.7h.9l.3-.5.3-.6h.9v-1.5l1.1.2.5-.3-.4-1.2,1.2.3-.2-1,.5-.4.5-.3h.9l.5-.3-.4-1.1.3-.5,1.5.5-.4-1.2.5-.4,1.2.3-.2-1-.1-.9,1.5.5-.5-1.3,1,.1-.1-.9,1.2.3-.5-1.3,1,.1-.1-.9,1.2.3-.1-.9.3-.5,1.4.4.4-.5.2-.6-.5-1.3.5-.3,1.2.2.6-.3-.6-1.4,1.2.3-.2-1,.8-.1.1-.7.4-.5.5-.4,1.1.1.5-.3.4-.5-.5-1.2.8-.1,1.2.2.3-.6V436l.8-.1-.5-1.2.4.1h.3s.2.1-.1-.2-1-1-2.9-2.6Z" fill="#0b1b30"/><path d="M173.3,117.6c-1.5.2-.5.2-.5.2l.5.5v.9l-1.3,1,1,.8-1.1,1,1.1.8-1.6,1,.5.9.1.9.2.9-.4.9,1.8.8-2,1,1.4.9.5.9-.6.9v.9l-.6.9.9.9.6.9-1.1.9.9.9-1,.9,1.5,1-1.3.9.9.9-1.7.8,2,1-.5.9-1.5.8,1.2,1-.3.9-1,.8,1.8,1-.2.9-.7.8.6,1-1,.8-.2.9,1.3,1.1-1.9.7.4,1-.3.9,1.1,1.1-1.4.7,1.1,1.1-.5.8-1,.8.7,1-.6.8.1.9.4,1,.1.9v.9l-.5.8v.9l-.2.9-.8.8v.9l.8,1.1-.2.9-.2.9-.8.8-.1.9v1l-.6.8.8,1.2-.5.8.1,1-.7.8v1.8c0,.2-.5.3,0,.7.1.1-.1.2,1.1.6l.6.2,1,.2a5.951,5.951,0,0,0,.8.1c.1-.2,0-.5,0-.7l.3-.9.1-1,.6-.8.8-.8v-1l.7-.8v-1l.2-.9.5-.9-.4-1.1.8-.8.7-.8-.2-1,1-.8.1-.9v-1l1.1-.7-.5-1.1-.5-1.1,1.3-.7.4-.9-1.2-1.2,1.5-.7-.9-1.1.3-.9.4-.9,1-.8.3-.9-1.2-1.1v-1l2-.7-1.3-1.1.3-.9,1.5-.8-1-1.1-.7-1,2-.8-1.5-1.1,1.3-.8-.9-1,1.6-.8-1.6-1.1,1.2-.9-.9-1,1.6-.9-1-1-.1-1,1.9-.9v-1l-.3-1-1.8-1,.3-.9,1.5-.9.4-1-2-1,1.5-1-1.1-.9.7-1-.7-.9-.1-1,.1-1,1.1-1,.2-1-.1-1-1.7-.9.7-1,1.3-1-.3-.9-.8-.9.7-1-1.5-.8.5-.3.4-.3s.3-.1-.3-.2a34.765,34.765,0,0,0-5.5.4A16.646,16.646,0,0,1,173.3,117.6Z" fill="#fff"/><path d="M45.5,286.7c1,.5.4.1.4,0l-.1-.5.3-.5,1.1-.1-.3-.9,1-.1-.4-.9h1.3V283l.2-.6.2-.6.5-.4-.9-1.2,1.6.2-.6-1v-.7l.7-.3.3-.6.7-.3-.3-.9-.1-.8,1-.2-.3-.9,1-.2-.8-1.1,1.2-.1-.4-.9,1.5.1-1.1-1.3.8-.2h1.3l-.6-1,.5-.4,1-.2-1-1.2.4-.5.8-.3-.2-.8,1-.2.4-.5-.8-1.1,1.7.2-.1-.7.5-.5-.7-1h1.4l-.7-1,.6-.4,1-.2-.4-.9.7-.3.1-.7-.1-.8.1-.7.2-.6.7-.4.2-.6.3-.5.9-.2.1-.6-.7-1,.4-.5.3-.5.9-.2.3-.5v-.7l.7-.3-.9-1.1.7-.3-.1-.7.9-.2.1-.7.1-.6c0-.1.7,0,0-.5-.1-.1.1-.1-1.6-1l-.8-.4-1.4-.7a3.7,3.7,0,0,0-1.1-.5c-.1.1.1.4.1.5l-.2.6v.7l-.7.3-.9.2.1.7-.8.3.1.7-.2.6-.5.4.4.9-.8.3-.7.3.2.8-1,.2-.2.6v.7l-1.1.1.4.9.3.9H54.3l-.4.5.9,1.2-1.5-.1.6,1-.4.5-.4.5-1,.2-.4.5.8,1.1-.2.6-1.7-.2.9,1.1-.4.5H50l.6,1,.4.9-1.7-.2.9,1.2-1.1.1.4.9H48.1l1,1.2-1.1.1.4.9H47.1l.4.9-.2.6-1.5-.1-.2.6-.1.7.9,1.2-.4.5H44.7l-.5.4,1,1.2H44l.5,1-.7.3.1.8-.3.6-.4.5-1.1.1-.4.5-.3.5.8,1.1-.8.3H40.2l-.1.6.1.8-.8.2.6,1.1h-.7s-.2,0,.1.2c.4.2,1.3.8,3.5,2Z" fill="#fff"/><path d="M53.6,316.8c1.1.6.4.1.4.1l-.2-.6.3-.5h1.4l-.4-.9,1.2-.1-.4-1,1.5.1-.1-.8.2-.6.2-.6.6-.4-1.1-1.3,1.9.3-.7-1.1-.1-.8.8-.3.3-.6.8-.3-.4-.9-.2-.8,1.2-.1-.4-.9,1.1-.2-1-1.2h1.4l-.5-1,1.8.1L61.7,301l.7-.4H64l-.8-1.1.5-.5,1.2-.1-1.4-1.3.4-.5.9-.3-.3-.9,1.1-.2.4-.5L65,294l2,.2-.2-.8.5-.5-.9-1.1H68l-1-1.1.7-.4,1.1-.2-.6-1,.8-.4V288l-.3-.8v-.7l.1-.6.8-.4.1-.6.3-.6,1-.3.1-.7-1-1.1.3-.5.3-.6,1.1-.2.3-.6-.1-.7.9-.4L71.6,278l.9-.4-.2-.8,1.1-.3-.1-.7v-.7c0-.2.9,0-.2-.5-.2-.1.1-.1-2.2-1l-1.1-.4-1.9-.7-1.2-.4a.774.774,0,0,0-.3-.1,2.015,2.015,0,0,1,.2.6l-.2.6.2.8-.8.4-1,.3.3.8-.9.3.3.8-.1.6-.5.5.8,1-1,.3-.7.4.4.8-1.1.2-.1.7.1.7-1.2.2.7,1,.6.9H60.9l-.4.5,1.3,1.2H60.1l.9,1.1-.4.5-.4.5-1.1.2-.4.5,1.1,1.2-.1.6-2.1-.3,1.2,1.2-.4.5H56.8l.8,1.1.5.9-2-.3,1.2,1.3-1.3.1.6,1-1.6-.1,1.3,1.3-1.2.1.6,1-1.5-.1.6,1-.1.6-1.8-.2-.2.6v.7l1.2,1.3-.5.5H52l-.5.4,1.3,1.4-1.5-.1.7,1-.8.3.2.8-.3.6-.4.5-1.2.1-.4.5-.3.6.9,1.2-.9.2H47.5l-.1.6.2.8-.9.2.8,1.2h-.8s-.3-.1.1.2a45.247,45.247,0,0,0,4,2.4Z" fill="#fff"/><path d="M307.3,153.2l.1-1.4.1-1.4.6-1.4v-1.4l-.2-1.4.4-1.4-1-1.4.3-1.4-.4-1.4.4-1.4-.3-1.4-.3-1.4c0-.3.3-.7-.3-1-.1,0,0-.4-1.1-.3h-.3l-1-1.2h0l.1-.2a17.394,17.394,0,0,0,1.1-1.8c.4-.8-.1-.5-.2-.5a4.951,4.951,0,0,0-1.3-.4,6.356,6.356,0,0,0-1.8-.6,15.054,15.054,0,0,0-1.7-1,4.923,4.923,0,0,0-1.7.6,10.926,10.926,0,0,0-1.7-.5c-.5.3-1,.6-1.4.9l-1.7-.7-1.4.6-1.4.4-1.5.5a7.772,7.772,0,0,1-1.6.2A9.062,9.062,0,0,0,287,133c-.6-.2-1.3-.4-2-.6a14.309,14.309,0,0,0-1.1,1.5c-.4.4-.9.7-1.3,1.1a7.973,7.973,0,0,0-1.6.8,8.064,8.064,0,0,0-1.2,1.4,17.383,17.383,0,0,0-1.5,1.3,6.929,6.929,0,0,0-.3,2,11.019,11.019,0,0,0-.2,1.8c-.4.5-.8,1-1.2,1.6a12.09,12.09,0,0,0,.5,1.8,12.2,12.2,0,0,0-.7,1.7,10.1,10.1,0,0,0,1.3,1.6,13.355,13.355,0,0,0-.7,1.8,7.551,7.551,0,0,0,1.1,1.4,11.764,11.764,0,0,0-.7,2l2.1.9c.1.5.2,1,.3,1.6a12.252,12.252,0,0,0-.2,1.9c.6.3,1.1.5,1.7.8l.6,1.4.2,1.7,2,.3.7,1.3.5,1.5,1.4.8a10.926,10.926,0,0,0,.5,1.7c.4.4.7.8,1.1,1.2a15.029,15.029,0,0,0,2,.2,8.734,8.734,0,0,0,.5,2.2l1.8.6a12.9,12.9,0,0,0,1.6.9,15.525,15.525,0,0,0,2.1-.4,10.917,10.917,0,0,0,1.7,1.3,12.445,12.445,0,0,0,2-1,14.919,14.919,0,0,0,2.1-.2,7.283,7.283,0,0,0,2.4-.7,6.5,6.5,0,0,0,1.1-2.2,10.917,10.917,0,0,0,1.3-1.7,11.627,11.627,0,0,0,.4-1.8,9.7,9.7,0,0,0-.1-1.7v-3l.4-1.4V159l.1-1.4.6-1.4-.1-1.4Z" fill="#346e93"/><path d="M296.6,148.3l.1-1,1.1-1.1-.9-1-.7-.9a17.383,17.383,0,0,0,1.5-1.3,5.388,5.388,0,0,0-1.3-.7l.9-1.2-.7-.8,1-1.4a6.117,6.117,0,0,0-1.2-.5l.8-1.4-.7-.7,1-1.6-.7-.6-.1-.9,1.2-1.8-.1-1-.2-.9-1.3-.1a2.663,2.663,0,0,0-.3-1.2,10.869,10.869,0,0,0,.1-1.8,3.915,3.915,0,0,0-.8-1,8.651,8.651,0,0,0-1.7.7,8.342,8.342,0,0,0-.8-1.2,7.1,7.1,0,0,0-1.4,1,4.253,4.253,0,0,0-1.1-.2,5.241,5.241,0,0,0-1.1,1,10.54,10.54,0,0,0-1.1.7,4.44,4.44,0,0,0-1.1.8l-1.5.3a11.985,11.985,0,0,0-1.2,1.1l-.5.6-.3.4a7.719,7.719,0,0,1,.2,1.5l-1,.5a10.26,10.26,0,0,0-1.4.4c-.1.3-.3.7-.4,1l-.1,1.2a3.819,3.819,0,0,0-.9.9l.3.8.3.8-.4.4a.52.52,0,0,0-.2.4c-.1.1-.6.7,3.3.7h-1.1c-.5,0-.7.1-.7.2a2.769,2.769,0,0,0,.1.9,4.1,4.1,0,0,0,.1,1.1c.1.3.3.6.4.9,0,.3-.1.7-.1,1l-.2,1,.6.7-.1,1,.6.7.4.8.1.9.9.6-.2,1v1l.9,1.3v2c.2.5.5,1,.7,1.4a2.836,2.836,0,0,0,.9,1c.1.3.1.6.2,1a3.553,3.553,0,0,0,.2,1,3.553,3.553,0,0,0,1-.2c.3-.1.6-.1.9-.2a4.2,4.2,0,0,0,.9,1.4,5.019,5.019,0,0,0,1.2.2,6.42,6.42,0,0,0,1-1.3c.4.2.9.4,1.4.6a4.284,4.284,0,0,0,.5-1.6,5.008,5.008,0,0,0,.8-.7,2.7,2.7,0,0,0,.7-.8,5.359,5.359,0,0,0,1.1-.5l.6-1.2a18.028,18.028,0,0,0-.8-2.1v-1.4c.6-.4,1.1-.8,1.6-1.2A4.071,4.071,0,0,0,296.6,148.3Z" fill="#1b557a"/><path d="M293.9,111.2c.2-.2.5-.4.7-.6a2.994,2.994,0,0,0,.4-.8c-.1-.3-.2-.5-.3-.8a3,3,0,0,0,.4-1l-.4-.9a3.508,3.508,0,0,0-.5-.8v-1.1c-.3-.1-.7-.3-1-.4a3.4,3.4,0,0,0-1-.1,5.019,5.019,0,0,0-.2-1.2,1.794,1.794,0,0,0-.7-.5,11.731,11.731,0,0,0-1.1.5l-.3-1.2c-.3.2-.7.3-1,.5l-.7-.3a1.445,1.445,0,0,0-.7-.2l-.6-.7c-.2-.1-.5-.1-.7-.2a5.5,5.5,0,0,0-.7.9l-.7.1a4.811,4.811,0,0,0-.9-1.1c-.2.4-.4.7-.6,1.1h-.7a8.794,8.794,0,0,0-1-.6c-.2.3-.3.6-.5.9s-.3.5-.5.8a5.388,5.388,0,0,0-1.3-.7,5.7,5.7,0,0,0-.1,1.3h-1.1c-.1.4-.1.7-.2,1a5.7,5.7,0,0,0-1.3.1,4.951,4.951,0,0,0,.4,1.3,3.128,3.128,0,0,0-1,.5c.1.3.2.7.3,1a10.908,10.908,0,0,0-1.1.6l.6.9.1.8c-.4.3-.7.6-1.1.9a2.92,2.92,0,0,0,.2.9,5.938,5.938,0,0,0,.4.8,6.468,6.468,0,0,0,1.3.4c.1.2.1.5.2.8-.1.4-.3.8-.4,1.2l.3.8c.5,0,1-.1,1.4-.1a4.869,4.869,0,0,0-.1,1.2h1.1a2.994,2.994,0,0,0,.4.8c.3,0,.6.1.9.1a1.493,1.493,0,0,1,.7.3,2.506,2.506,0,0,1,.7.4,1.594,1.594,0,0,0,1.4,1.3,2.769,2.769,0,0,0,.9.1l.9-.9a2.994,2.994,0,0,0,.8.4,6.07,6.07,0,0,0,1,.7,6.89,6.89,0,0,0,.8-.3c.2-.2.5-.4.7-.6.3.1.6.1,1,.2l.2-.6.2-.6.4.1.3.1c.1,0,.6.4-1.5-3h0l.2.2.9,1.4c.5.8.7,1,.8,1,.2-.1.2-.4.3-.6s.4-.3.6-.5.2-.5.3-.8c.3-.1.6-.1.9-.2a3.553,3.553,0,0,0,1-.2c0-.3.1-.7.1-1a2.177,2.177,0,0,0,.8-.5,3.4,3.4,0,0,0-.1-1c-.1-.3.1-.5.1-.8.1-.1.1-.2.2-.4-.1-.2-.1-.3-.2-.5C294.6,111.9,294.2,111.5,293.9,111.2Z" fill="#fff"/><path d="M324.7,115.5a10.908,10.908,0,0,0-1.1-.6,3.592,3.592,0,0,0,.7-1,4.179,4.179,0,0,0-1-.4,1.854,1.854,0,0,0-.2-.7l-.3-.7v-1l-.5-.6a3.6,3.6,0,0,0-1.1.2l-.6-.3a7.569,7.569,0,0,0-.1-1.5c-.4.2-.7.4-1.1.6l-.6-.3c-.2-.3-.4-.7-.6-1a5.547,5.547,0,0,0-.8.6,4.349,4.349,0,0,0-.7.6,10.627,10.627,0,0,0-.9-1.1,6.117,6.117,0,0,0-.5,1.2c-.3-.2-.6-.3-.9-.5a3.552,3.552,0,0,0-.4.9,11.731,11.731,0,0,0-1.1-.5v1.3a3.4,3.4,0,0,0-1-.1v.9c-.4-.1-.8-.1-1.1-.2a2.769,2.769,0,0,0,.1.9l-.3.6c-.4,0-.9-.1-1.3-.1l-.3.6c0,.2-.1.5-.1.7a8.65,8.65,0,0,0,.7,1l-.4.5a3,3,0,0,0-1,.4,2.092,2.092,0,0,1-.4.6,10.627,10.627,0,0,0,1.1.9c-.3.2-.7.4-1,.6l.7.7c-.1.2-.3.5-.4.7a2.651,2.651,0,0,0,.5.6l.2.7a2.353,2.353,0,0,0,.2.8c-.1.4-.2.7-.3,1.1a3.552,3.552,0,0,0,.4.9,4.349,4.349,0,0,0,.6.7,5.7,5.7,0,0,0,1.3-.1l.1.3a2.186,2.186,0,0,0,.3.5,5.638,5.638,0,0,0,.4,1.2,2.92,2.92,0,0,0,.9.2,3.553,3.553,0,0,0,1-.2c.3.2.5.4.8.6l.9-.9.3.3.2.2s.1.2.1-.2a15.458,15.458,0,0,0-.4-3.1h0v.3l.3,1.6a2.663,2.663,0,0,0,.3,1.2c.2,0,.3-.3.5-.5a.952.952,0,0,1,.7-.2c.2-.2.3-.4.5-.6.3.1.5.1.8.2l.9.3a6.89,6.89,0,0,0,.3-.8h.8a2.353,2.353,0,0,0,.2-.8l.4-.5.3-.2v-.5c-.2-.5-.4-1-.5-1.3a2.485,2.485,0,0,0,.8-.1l.7-.2a1.483,1.483,0,0,0,.1-.7l.8-.2.3-.6a1.7,1.7,0,0,0,.1-.7,4.053,4.053,0,0,0,.9-.5,2.01,2.01,0,0,0-.4-.8c-.1-.3-.3-.5-.4-.8a5.5,5.5,0,0,0,.9-.7C324.6,115.9,324.7,115.7,324.7,115.5Z" fill="#fff"/><path d="M281.2,90.6c-.7.3-1.4.5-1.9.7a5.537,5.537,0,0,0,.2-1.8,3.944,3.944,0,0,0-.1-2.4,3.585,3.585,0,0,0-2.5,0,9.852,9.852,0,0,0-1.7-.2,3.592,3.592,0,0,1-1-.7,34.572,34.572,0,0,0-2.2,3.1,5.968,5.968,0,0,0-1.5.9,12.2,12.2,0,0,0-1.7.7l-2.2,3.5a19.522,19.522,0,0,0-2.3,1.7c-.8.9-1.5,1.9-2.3,3l-.7,2-.3.9a1.268,1.268,0,0,1-.1.6,24.425,24.425,0,0,0-2.4,1l-.8,2-1.2,1.7-.2,2.4-2,1.3-.1,2.4-1.3,1.7c-.5.5-1.1,1-1.6,1.6l-.3,2.2-1.2,1.8-.7,2-.5,2.1-.6,2-.7,2c-.4.6-.7,1.3-1.1,1.9a7.274,7.274,0,0,0-.6,2.1l-.6,2.1a18.646,18.646,0,0,1-1,2,17.852,17.852,0,0,0-.2,2.3c.2.8.4,1.6.6,2.3a17.7,17.7,0,0,0-.1,2.3c0,.8.1,1.5.1,2.3a19.419,19.419,0,0,0-.2,2.4,15.457,15.457,0,0,0,.7,2.3c.4.7.8,1.5,1.2,2.1a15.955,15.955,0,0,0,1,2.3,12.272,12.272,0,0,0,2.6,1.2,9.622,9.622,0,0,0,2.2,1.8,6.886,6.886,0,0,0,3.2-.1,5.711,5.711,0,0,0,3.1-1,6.08,6.08,0,0,0,1.5-2.4,9.51,9.51,0,0,0,.7-2.4c.1-.5.7-1,.2-1.6-.1-.1.1-.5-1.1-.8l-.4-.1h.2a18.457,18.457,0,0,0,2.3.4c1,.1.4-.3.4-.4a6.533,6.533,0,0,0,0-1.4l.5-2,1.3-1.8-.1-2.2,1.2-1.9-.2-2.2,1.5-1.8.1-2.1.4-2,.4-2,.7-1.9-.6-2.3,1.9-1.6-.3-2.2.3-2,1-1.8.6-1.9,1.1-1.8.1-2.1.3-2,1.4-1.6v-.3l.1-.4.2-.9.4-1.7,2.5-3.7a11.539,11.539,0,0,0,.1-2.6c.5-.7,1-1.4,1.4-2.1a23.924,23.924,0,0,0,1.3-2.1,2.947,2.947,0,0,0-.5-1.3A18.045,18.045,0,0,0,281.2,90.6Z" fill="#1b557a"/><path d="M291.4,110.5a2.092,2.092,0,0,0-.6-.4l.3-.6v-.6l-.6-.3a1.7,1.7,0,0,0,.1-.7l-.4-.3c-.1-.1-.3-.1-.5-.2v-.8c-.2.1-.5.1-.7.2s-.4.1-.6.2v-.9l-.3-.3c-.2.3-.5.5-.7.8a3.4,3.4,0,0,0-.1-1,1.794,1.794,0,0,0-.5.7l-.4-.1-.4-.2a2.092,2.092,0,0,0-.4-.6l-.4-.1-.3.9c-.1,0-.2.1-.4.1a3.592,3.592,0,0,0-.7-1c-.1.3-.1.7-.2,1a.9.9,0,0,0-.5.1,4.053,4.053,0,0,0-.9-.5c0,.3-.1.6-.1.9v.7a5.638,5.638,0,0,0-1.2-.4,3.128,3.128,0,0,0,.5,1,1.949,1.949,0,0,0-.8.1c.1.2.2.5.3.7a3.553,3.553,0,0,0-1,.2c.3.2.6.5.9.7-.2.1-.5.2-.7.3l.5.5a2.177,2.177,0,0,0-.8.5,2.092,2.092,0,0,0,.6.4.758.758,0,0,0,.2.4,3.044,3.044,0,0,0-.8.8l.2.5c.1.2.3.3.4.4a4.1,4.1,0,0,0,1.1-.1c.1.2.1.3.2.5a2.92,2.92,0,0,0-.2.9l.3.5a8.794,8.794,0,0,0,1-.6v.9c.2-.1.5-.3.7-.4.1.2.2.3.3.5l.5-.2a.6.6,0,0,1,.4.1l.4.1c.1.2.3.4.4.6l.5.1h.5l.3-.9.5.3a4.349,4.349,0,0,0,.7.6l.4-.3c.1-.2.2-.3.3-.5.2,0,.4.1.6.1,0,0,0-1-.1-1l.3.1.2.1s.1.1,0-.2a16.319,16.319,0,0,0-1.7-2h0l.1.1.6.6.5.5a.494.494,0,0,1,.1-.3l.2-.2.1-.4a.9.9,0,0,0,.5-.1c.2,0,.4-.1.6-.1v-.5a2.186,2.186,0,0,0,.5-.3c0-.2-.1-.4-.1-.6V111C291.3,110.8,291.4,110.7,291.4,110.5Z" fill="#0b1b30"/><path d="M321.2,118l-.2-.4c.2-.1.4-.3.6-.4-.2-.1-.4-.3-.6-.4l-.6-.3c.2-.2.5-.4.7-.6v-.5H320c.2-.3.5-.5.6-.8a2.769,2.769,0,0,0-.9.1l-.2-.4c-.1-.1-.1-.3-.2-.4v-.7c-.1-.1-.2-.3-.4-.4-.3.2-.6.3-.9.5l-.4-.1a5.853,5.853,0,0,0-.2-1.3,5.008,5.008,0,0,0-.7.8h-.5c-.2-.3-.4-.5-.6-.8a2.01,2.01,0,0,0-.4.8,1.421,1.421,0,0,0-.2.6l-.9-.9a4.1,4.1,0,0,0,.1,1.1c-.2-.1-.5-.2-.7-.3a1.7,1.7,0,0,0,.1.7c-.3-.1-.6-.3-.9-.4a9.292,9.292,0,0,1,.5,1l-.7-.2.3.6a2.92,2.92,0,0,0-.9-.2l.3.6-.1.3a3.4,3.4,0,0,0-1-.1l-.1.4v.4c.3.2.5.5.8.6-.1.1-.1.2-.2.3l-.9.3c-.1.1-.1.3-.2.5a3.582,3.582,0,0,0,1.1.4c-.3.2-.5.3-.8.5.2.1.5.2.7.3-.1.2-.1.4-.2.6.2.1.3.2.5.3.1.1.2.3.3.4l.2.4a2.2,2.2,0,0,0-.1.8.781.781,0,0,0,.4.4l.5.3a5.547,5.547,0,0,0,.8-.6,2.186,2.186,0,0,0,.3.5,3.552,3.552,0,0,0,.4.9,1.268,1.268,0,0,0,.6-.1,1,1,0,0,0,.5-.4,2.186,2.186,0,0,1,.5.3l.3-.9.2.2.2.1s.1.1,0-.2a18.285,18.285,0,0,0-.8-2.5h0v.1l.3.8.3.6c.1,0,.1-.2.1-.2l.3-.1.2-.3.4.2.5.2a.6.6,0,0,0,.1-.4l.5.1c0-.1.1-.3.1-.4l.2-.3.4-.2-.3-.6a4.331,4.331,0,0,0,.5-.1l.5-.2c-.1-.2-.1-.3-.2-.5l.6-.3Z" fill="#0b1b30"/><path d="M308.9,168.2c.9-.1.3-.1.3-.2l-.3-.5v-.8l.8-.8-.5-.8.6-.8-.6-.8.9-.8-.3-.8-.1-.8-.1-.8.2-.8-1-.8,1.2-.8-.8-.8-.3-.8.3-.8v-.8l.4-.8-.5-.8-.4-.8.6-.8-.5-.8.5-.8-.9-.8.8-.8-.6-.8,1-.8-1.3-.7.3-.8.9-.8-.8-.8.1-.8.6-.8-1.1-.8.1-.8.4-.8-.5-.8.5-.8v-.8l-.9-.8,1.1-.8-.3-.8.1-.8-.8-.8.8-.8-.8-.8.2-.8.5-.8-.5-.8.2-.8-.2-.8-.4-.8-.2-.8-.1-.8.2-.8-.1-.8v-.8l.3-.8-.1-.8-.6-.8v-1.6l.3-.8v-.8l-.2-.8.2-.8-.7-.8.2-.8-.2-.8.3-.8-.2-.8-.1-.8c0-.2.2-.4-.1-.5-.1,0,0-.2-.8-.2h-1c-.4,0-.5.1-.5.1a1.268,1.268,0,0,0,.1.6v.8l.1.8-.2.8-.3.8.2.8-.3.8.2.8v.8l-.1.8.4.8-.4.8-.3.8.3.8-.5.8.1.8.1.8-.5.8.5.8.4.8-.7.8-.1.8.8.8-.9.8.7.8-.1.8-.1.8-.6.8-.1.8.9.8.1.8-1.2.8,1,.8-.1.8-.9.8.7.8.5.8-1.2.8,1,.8-.7.8.6.8-.9.8,1.1.8-.6.8.6.8-.9.8.6.8.1.8-1,.8v.8l.2.8,1.1.8-.1.8-.8.8-.2.8,1.2.8-.9.8.7.8-.4.8.4.8v1.6l-.7.8-.1.8v.8l1,.8-.4.8-.8.8.1.8.4.8-.5.8.9.8-.3.2-.2.2s-.6.3,3.3.2Z" fill="#96cdef"/><path d="M289.5,68l-1-2a6.916,6.916,0,0,0-1-1.9l-2.4,1.4a36.831,36.831,0,0,0-6.3,3.1l-.1.1.9-2.1a9.828,9.828,0,0,0,.7-3.4,9.36,9.36,0,0,0-.1-4.7,13.576,13.576,0,0,0-1.2-1.2,5.64,5.64,0,0,0-2-1.1,3.673,3.673,0,0,0-1.8-.1c-1.5-.4-1.9-.6-3.1-.9a23.484,23.484,0,0,0-2.9,2.6,36.063,36.063,0,0,0-3.3,4.4l-6.3,6.9-.5.5c-.1.1-.4.4-.4.3-.1,0-.2,0-.2-.1a.764.764,0,0,1-.2-.5,1.268,1.268,0,0,1-.1.6,6.117,6.117,0,0,1-.5,1.2c-.1-.1-.1-.2.1-.9a.188.188,0,0,1-.3,0,.623.623,0,0,1-.3-.5c.1-.3.1-.6.2-.9l.9-2.6c.6-1.7,1.3-3.5,1.9-5.3a51.963,51.963,0,0,0,2.1-5.5,28.678,28.678,0,0,0,.5-3.1,7.435,7.435,0,0,0-1-4.6c-1.7-2.8-5.6-3.5-8.6-2.1a12.426,12.426,0,0,0-5.5,5.4l-2.1,5.2c-.4,1.8-.9,3.6-1.4,5.4l-2.5,4.9-2.1,4,.2-.6c0-1.8,0-3.6.1-5.5l1.8-5.2a54.341,54.341,0,0,0,.9-5.6,24.6,24.6,0,0,0,.7-2.9,15.438,15.438,0,0,0,.4-3,7.569,7.569,0,0,0-.1-1.5l-.3-2.3c-.3-1.6-.9-2.8-1.2-4.2l-.2-.5c0-.1-.1,0-.2,0l-.3.1-1,.3a11.764,11.764,0,0,0-2,.7,12.227,12.227,0,0,0-1.9,1.2,14.622,14.622,0,0,0-1.6,1.9c-.9,1.3-1.8,2.4-1.9,3.9,0,.2-.5,1.3.4,1.7.1,0,.2.1.3.1h0l-.2-.1a6.154,6.154,0,0,0-2.3-.7c-1.1-.1-.7.8-.8,1l-1.2,3.6c-.8,1.7-1.5,3.4-2.2,5.1-1,1.6-2,3.2-3,4.9-.5,1.8-.9,3.7-1.3,5.5-.8,1.7-1.7,3.4-2.5,5.2a55.416,55.416,0,0,0-.7,5.7c-.8,1.8-1.6,3.6-2.3,5.4a56.73,56.73,0,0,0-.5,5.8c-.1,1.9-.2,3.9-.3,5.9.1,2,.1,4,.4,6a39.347,39.347,0,0,0,.7,6,24.371,24.371,0,0,0,1.4,2.8l1.6,2.6c.1,1,.3,2.1.5,3.1s.4,2.1.7,3.2a26.21,26.21,0,0,0,4.9,4.5,27.49,27.49,0,0,0,5.3,3.6,31.015,31.015,0,0,0,5.7,3,21.6,21.6,0,0,0,6.7.8,16.684,16.684,0,0,0,7-1.2,20.333,20.333,0,0,0,5.2-4.5,32.722,32.722,0,0,0,3.5-4.8l4.2-3.8,2.9-4.8,4-4c.8-1.7,1.6-3.5,2.3-5.3,1.4-1.3,2.7-2.7,4.1-4,.8-1.7,1.6-3.5,2.4-5.2,1.4-1.4,2.8-2.8,4.1-4.3.4-2,.8-3.9,1-5.9a31.033,31.033,0,0,0,3.2-8.3A14.262,14.262,0,0,0,289.5,68Z" fill="#346e93"/><path d="M158.3,315.5c.7.8.8,0,1-.2l2.1-1.5a23.944,23.944,0,0,0,3.4-2.1c1.3-.5,2.6-1,3.8-1.6l2.7-3,3.5-2.1c.8-1.1,1.5-2.2,2.3-3.3,1.2-.7,2.4-1.4,3.5-2.2l2.3-3.3,2.3-3.2a37.835,37.835,0,0,0,2.2-3.3c.7-1.1,1.6-2,2.4-3.1l1-4,3.3-2.6c.4-1.3.7-2.6,1.1-3.9.5-1.2,1.1-2.4,1.5-3.6l2.2-3.2,1.7-3.5,2.1-3.2,1-3.8,1.2-3.7,2.3-3.1,1-3.7,2.3-3,.6-3.9,2.6-3,1-3.8c1-1,1.9-2,2.8-3v-4.3c.6-1.2,1.2-2.5,1.7-3.7.8-1.2,1.4-2.4,2.1-3.6,0-1.4-.1-2.7-.2-4.1l.9-3.7,1.5-3.5c-.2-1.3-.5-2.5-.7-3.9.3-1.2.7-2.4,1.1-3.6l1.5-3.4c.2-1.2.4-2.5.6-3.7a34.471,34.471,0,0,1,2-3.2c.5-1.1.9-2.3,1.4-3.4.1-1.3.2-2.6.4-3.9,1-.9,2-1.8,3-2.6.4-1.1.9-2.2,1.4-3.3a15.352,15.352,0,0,1,2.1-2.9,36.163,36.163,0,0,1,1.3-3.5,34.471,34.471,0,0,1,3.2-2c.6-1.2,1.2-2.5,1.8-3.8a38.759,38.759,0,0,0,2.6-3.1,39.955,39.955,0,0,0,2.7-3.1c.5-1.3.9-2.6,1.3-3.8.7-1.1,1.4-2.2,2.1-3.4l1.4-3.7,1.1-3.7,1.3-3.6,1.4-3.5,1.9-3.3c.5-1.1,1-2.3,1.5-3.4a20.16,20.16,0,0,1,1.8-3.2,20.936,20.936,0,0,1,2.4-2.8c.5-1,1.3-2.2,1.9-3.4.4-1.3.8-2.6,1.1-3.9.6-1.1,1.2-2.3,1.8-3.5l1.6-3.5,2.1-3.2,1.5-3.5,1.4-3.5c.6-1.1,1.3-2.1,2-3.2.2-1.2.5-2.5.8-3.8l2.1-3.1c.5-1.1,1.1-2.2,1.7-3.4l2.4-2.9,2-3.2,2-3.2c.5-.8,1.2-1.3,1.4-2.3,0-.2.5-.8-.1-1.3-.1-.1-.2-.1-.3-.2l-.6-.3c-.4-.1-.6-.1-.7.1-.6.7-1.2,1.6-1.8,2.3l-2.4,3c-.8,1-1.5,2.1-2.2,3.1l-2.6,2.8-2.6,2.9c-.6,1.1-1.3,2.3-1.9,3.4a37.117,37.117,0,0,0-2.3,3.2c-.5,1.2-1,2.5-1.4,3.7l-1.5,3.5-1.7,3.4-1,3.7c-.7,1.1-1.4,2.1-2.1,3.1s-1.4,2.1-2.1,3.1c-.5,1.1-1,2.3-1.5,3.4-.8.9-1.7,1.7-2.6,2.8a39.724,39.724,0,0,0-2,3.5c-.6,1.2-1.1,2.4-1.6,3.6-.8,1-1.6,2.1-2.4,3.2l-.9,3.8-.9,3.8-2.3,3.1-1.6,3.4-.4,3.9c-.9.9-1.8,1.9-2.7,2.8-.3,1.2-.5,2.5-.9,3.7-.6,1-1.3,2-2,3s-1.5,1.9-2.2,2.8c-1,.8-1.9,1.5-2.9,2.3-.9,1-1.9,2-2.7,3-.5,1.3-1,2.6-1.4,3.9a37.912,37.912,0,0,0-2,3.4c-1.1.9-2.3,1.8-3.4,2.7-.3,1.4-.5,2.8-.7,4.1-.6,1.2-1.2,2.4-1.7,3.5-.9,1-1.7,2.1-2.6,3.2-.1,1.4-.3,2.7-.4,4s-.3,2.6-.5,3.9l-2.6,3.3c.1,1.4.2,2.8.4,4.1l-1.8,3.6.1,4-1.8,3.5c.2,1.3.5,2.6.7,3.9-.5,1.1-1.1,2.2-1.7,3.3-.1,1.2-.2,2.4-.4,3.6a34.675,34.675,0,0,1-2.5,2.9c-.2,1.2-.5,2.5-.8,3.7l-1.5,3.5-3,2.8-1.7,3.5-1.5,3.6c-.1,1.4-.3,2.8-.4,4.1l-1.7,3.4-2.6,3-1.8,3.3-.3,4-2.6,2.9-.9,3.7c-.7,1-1.5,2.1-2.2,3.1-.5,1.2-.9,2.3-1.4,3.5l-1.9,3.2-2,3.1a34.463,34.463,0,0,1-2.8,2.6c-.8,1-1.5,2-2.2,2.9l-2.2,2.9-1.5,3.6c-.9.8-1.9,1.6-2.9,2.4a20.742,20.742,0,0,1-3.2,1.9l-2.5,2.6-2.5,2.7c-1,.7-2.2,1.1-3.2,1.7l-1.2,1.5c-.6.8-1.2,1.5-1.2,1.5l-1.1.3-.9.3c-.2.1-1.5.1.7,4A2.066,2.066,0,0,0,158.3,315.5Z" fill="#96cdef"/><path d="M272.3,57.6a114.483,114.483,0,0,0-23.6,37" fill="#1b557a"/><path d="M250.8,95.3c.8.2.3,0,.3,0l-.1-.4.3-.5,1-.2c-.1-.2-.1-.5-.2-.7l.9-.3-.3-.8,1.1-.2v-.6l.2-.6.2-.6.4-.4-.7-1h1.3l-.4-.9v-.6l.6-.4.2-.5.6-.4-.2-.8v-.7l.9-.2-.2-.8.8-.2-.5-1,1-.1-.2-.8H259l-.8-1.1.6-.4h1.1l-.4-.9.5-.4.9-.2-.7-1.1.4-.4.7-.3L261,76l.8-.2.4-.4-.5-1,1.3.2.1-.7.5-.4-.4-1h1.1l-.3-1,.6-.3.8-.1-.1-.8.6-.3.2-.6.1-.7.2-.6.3-.5.6-.3.3-.5.4-.4.7-.2.2-.6-.3-1,.4-.4.4-.4.8-.1.4-.5.2-.6.6-.2-.3-1.1.6-.2.2-.6.7-.2.2-.6.2-.6c.1-.1.4,0,.1-.4,0-.1.1-.1-.6-.8l-.3-.3-.6-.5a5.758,5.758,0,0,1-.5-.4,1.466,1.466,0,0,0-.2.4l-.5.4-.3.5-.7.2c-.3,0-.5.1-.8.1l-.2.6-.7.2-.2.6-.4.5-.5.4v.8l-.8.2-.7.2-.1.7-.9.1-.3.5-.2.6-.9.1.1.9v.8h-1l-.5.4.4,1.1-1.1-.1.3,1-.4.4-.5.4-.9.2-.5.4.4,1-.3.6-1.4-.2.5,1.1-.4.5h-1.1l.3.9.1.8-1.4-.1.6,1.1-1,.1.2.9-1.1.1.6,1.1-.9.2.2.9-1.1.1.3.9-.2.6h-1.2l-.3.6-.1.6.6,1-.4.5-1,.2-.5.5.8,1.1-1,.2.4.9-.6.4.1.7-.2.6-.3.5-.9.3-.4.5-.2.6.6.9-.6.4-1,.3-.1.6a1.854,1.854,0,0,0,.2.7l-.6.4.5.9-.3.1-.2.1c-.1,0-.6,0,2.7,1.3A8.044,8.044,0,0,1,250.8,95.3Z" fill="#1b557a"/><path d="M251.4,48.7a154.421,154.421,0,0,0-14.5,40.7" fill="#1b557a"/><path d="M238.9,89.8c.8.1.3,0,.3-.1l-.1-.4a1.689,1.689,0,0,0,.2-.5l.9-.4-.4-.7.8-.4-.4-.7,1.1-.4-.2-.6.1-.6v-.6l.4-.5-.9-.8,1.3-.3-.6-.8-.1-.6.5-.5.1-.6.5-.4-.4-.7-.2-.7.8-.4-.4-.7.8-.4-.8-.8,1-.3-.4-.7L244,75l-1.1-1,.5-.4,1.1-.3-.6-.8.4-.5.8-.3-1-.9.3-.5.6-.4-.2-.7.8-.3.3-.5-.7-.9,1.4-.1-.1-.7.4-.5-.6-.9,1.1-.2-.6-.9.5-.4.8-.3-.3-.8.5-.4v-.6l-.1-.7.1-.6.2-.6.5-.4.1-.6.3-.5.7-.3.1-.6-.5-.9.3-.5.3-.5.7-.3.2-.5v-.6l.6-.4-.6-1,.6-.4v-.7l.7-.3.1-.6.1-.6c0-.1.5-.1,0-.5-.1-.1.1-.1-1.1-.7l-.5-.3-.9-.5a2.3,2.3,0,0,0-.8-.3v.5l-.3.5-.1.6-.6.4-.7.3v.8l-.6.4v.6l-.2.6-.4.4.3.8-.7.3-.6.4.1.7-.8.3-.1.6v.6l-.9.3.3.8.3.8-1,.2-.3.5.7,1-1.1.2.5.9-.3.5-.4.5-.8.3-.3.5.7.9-.1.6-1.4.1.7.9-.3.5-1.1.2.5.8.3.8-1.4.1.8.9-.9.3.4.8-1.1.3.9.9-.9.4.4.8-1.1.3.5.8-.1.6-1.2.2-.1.6v.6l.9.9-.3.5-1,.3-.4.5,1,.9-1,.3.5.8-.5.5.2.7-.1.6-.2.6-.8.4-.3.6-.1.6.8.8-.6.5-.9.4V86l.3.7-.6.5.4.4.5.4-.2.1-.2.1c-.1,0-.5.1,2.9.8A4.618,4.618,0,0,0,238.9,89.8Z" fill="#1b557a"/><path d="M216.5,98.6c.9.3.4,0,.4-.1v-.6a5.938,5.938,0,0,0,.4-.8,3.7,3.7,0,0,0,1.1-.5l-.3-1,1-.5-.4-1,1.3-.4v-.9l.2-.8.2-.8.5-.7-.9-1.2,1.5-.3-.6-1.1V87l.7-.7.2-.8.7-.6-.3-1-.1-.9,1-.5-.3-1,.9-.6-.7-1.1,1.1-.5-.3-1,1.4-.4-1.1-1.3.6-.7,1.2-.4-.6-1.1.5-.7,1-.6-1-1.2.4-.8.7-.6-.2-1,.9-.6.3-.8-.7-1.1,1.5-.4-.1-.9.4-.7-.6-1.1,1.2-.5-.6-1.1.5-.7.9-.6-.3-1,.6-.7.1-.9-.1-.9.1-.9.2-.8.6-.7.2-.8.3-.7.8-.6.2-.8-.4-1.1.4-.7.4-.7.9-.4.4-.7.2-.8c.2-.1.5-.3.7-.4a5.638,5.638,0,0,1-.4-1.2l.7-.4V45l.8-.3a2.506,2.506,0,0,1,.4-.7c.1-.2.3-.5.4-.7.1-.1.5,0,.3-.5,0-.1.1-.1-.6-1l-.4-.4-.6-.7c-.4-.4-.5-.5-.6-.5-.2.1-.3.4-.4.6s-.5.4-.7.6a2.177,2.177,0,0,0-.5.8l-.9.4-1,.4-.3.9-.9.5a2.92,2.92,0,0,0-.2.9l-.4.8-.6.7c0,.4.1.7.1,1.1l-.8.6-.7.7v1l-.9.6-.2.9-.1.9-.9.6.3,1,.2,1-1.1.5-.4.8.7,1.1-1.2.4.5,1.1-.4.8-.4.7-.9.6-.4.7.7,1.1-.2.8-1.6.3.7,1.1-.4.8-1.3.4.5,1.1.3,1-1.6.3.9,1.2-1.1.5.4,1-1.3.4.9,1.2-1,.5.4,1-1.3.4.4,1-.2.8-1.4.4-.2.8-.1.9.9,1.2-.4.7-1.2.5-.5.7,1,1.2-1.2.5.5,1.1-.7.6.1.9-.2.8-.4.8-1,.5-.4.8-.3.8.8,1.1-.8.6-1.2.5-.1.8.1.9c-.3.2-.5.4-.8.6l.8,1.1-.3.2-.3.1c-.1,0-.7.1,3.3,1.5A4.6,4.6,0,0,0,216.5,98.6Z" fill="#1b557a"/><path d="M262.3,100.6c.9.2.3,0,.3,0l-.1-.4.2-.5,1-.2-.3-.7.8-.2-.4-.7,1.1-.1-.1-.6.1-.5.1-.5.4-.4-.8-.9H266l-.5-.8v-.6l.6-.3.2-.5.6-.3-.2-.7-.1-.6.8-.1-.2-.7.8-.2-.6-.9,1-.1-.2-.8,1.2.1-.9-1.1.6-.3h1.1l-.5-.8.4-.4.8-.1-.7-1.1.4-.4.7-.2-.1-.7.8-.1.4-.4-.5-1,1.3.3.1-.6.4-.3-.3-.9,1,.1-.3-.9.5-.2h.8l-.1-.8.6-.2.2-.5.1-.6.2-.5.3-.4.6-.2.3-.5.4-.4.7-.1.3-.5-.2-.9.4-.3.4-.4h.7l.4-.4.3-.5.6-.1-.2-1,.6-.1.2-.6h.7l.3-.5.3-.5c.1-.1.4.1.2-.4,0-.1.1-.1-.6-1l-.4-.4-.6-.8c-.4-.5-.5-.6-.5-.6a1.425,1.425,0,0,1-.2.4l-.4.4-.3.5-.6.1H279l-.2.6-.7.1-.2.6-.4.4-.5.3v.8l-.7.1-.6.2-.1.7h-.8l-.3.5-.3.5h-.9v1.6l-1-.1-.5.4.3,1.1-1.1-.2.2.9-.4.4-.5.3-.8.1-.5.4.4,1-.3.5-1.4-.3.5,1-.4.4-1.1-.1.3.9.1.8-1.4-.2.6,1.1h-1l.2.8h-1.1l.6,1.1-.9.1.2.8h-1.1l.3.8-.2.5H262l-.2.5-.1.6.7,1-.4.4-1.1.1-.4.4.9,1.1-1.1.1.4.8-.6.3.1.7-.2.5-.3.5-.9.2-.4.5-.2.5.7.9-.6.4-1,.2-.1.6c.1.2.1.5.2.7l-.6.4.7.8-.3.1-.2.1s-.2,0,.1.2c1,.4,2,.8,3,1.1Z" fill="#1b557a"/><path d="M270.1,147.6a61.361,61.361,0,0,1,6.4,11.8" fill="#0b1b30"/><path d="M279.6,158.2c1.1-.5.4-.2.4-.2h-.4v-.2l.9-.6-.8.1.8-.5-.9.2,1.1-.7h-.5l-.2-.1-.2-.1.2-.3-1.4.4,1.4-.9-1,.3h-.4l.4-.4-.1-.2.4-.4-.7.1H278l.7-.6-.7.1.6-.5-1.2.4.9-.7-.8.2,1.2-.8-1.6.6.3-.4,1-.8-1.1.3.1-.3.7-.6-1.5.6.1-.2.4-.5-.6.1.6-.6v-.2l-1.2.5,1.4-1h-.5l.1-.3-1.1.4,1-.8-1.1.4.2-.4.6-.6-.8.2.3-.4h-.3l-.5.1h-.3l-.2-.1.3-.4-.2-.1v-.2l.5-.6-.2-.1-1.1.6v-.2l-.1-.2.6-.6-.1-.2H274l.4-.5-1.4.7.3-.5-.5.1.5-.6h-.8c-.1,0,.5-.4-.4.1a9.062,9.062,0,0,0-1.6,1.1l-.8.5-1.3.9a9.454,9.454,0,0,1-1,.7h.3l.1.2h.4l-.4.5-.5.6.5-.1-.4.5.5-.1.2.1-.1.3.9-.4-.5.5-.3.4.6-.2-.6.6.2.1h.4l-.7.6.8-.3.7-.2-.9.8v.2l1.3-.6-1.1.9,1.1-.4v.2l-.1.2-.7.6-.1.2,1.2-.5.2.1-1.5,1,1.3-.5v.2l-1,.8,1-.4.8-.2-1.4,1,1.4-.5-.8.6.9-.3-1.1.8,1.4-.5-.8.6.9-.2-1,.7.9-.2.2.1-1.2.8.1.1h.3l1.4-.5-.1.2-1,.7-.2.3,1.5-.5-1,.7,1-.2-.4.4h.5l.1.1v.2l-.8.5-.1.2.1.1,1.2-.3-.5.4-1,.6.2.1h.5l-.6.4,1.2-.3.2-.1-.2.1.2-.1,4.1-1.6Z" fill="#0b1b30"/><path d="M326.6,172.6c.6-.5.2-.2.1-.2l-.4-.1-.2-.4.3-.7-.6-.1.2-.7-.6-.1.5-.8-.4-.2-.3-.3-.3-.3v-.5h-1l.7-.8-.8-.1-.4-.3.1-.5-.2-.4.1-.5-.6-.2-.5-.3.4-.6-.6-.2.3-.6-.9-.1.5-.6-.6-.2.7-.7L321,162l.1-.5.6-.6-.8-.2v-.4l.4-.5-1-.2V159l.2-.5-.4-.4.4-.5v-.4l-.8-.3.9-.6-.3-.4.1-.4-.7-.4.7-.5-.7-.4.2-.4.5-.5-.5-.4.2-.4-.2-.4-.3-.4-.1-.4-.1-.4.3-.4v-.4l.1-.4.4-.4-.1-.4-.6-.5.1-.4.1-.4.5-.4.1-.4-.1-.4.4-.4-.8-.6.4-.4-.1-.5.5-.3v-1c0-.1.4-.1-.1-.3a4.259,4.259,0,0,0-1.1-.4l-.6-.1-1-.2a2.2,2.2,0,0,0-.8-.1c-.1.1.1.3.1.4l-.1.5.1.5-.4.4-.5.4.2.5-.4.4.2.5v.5l-.2.5.5.5-.4.4-.3.5.3.5-.5.4.1.5.1.5-.6.5.5.5.4.5-.7.5-.1.5.8.5-.8.5.7.5v.5l-.1.5-.5.5v.5l.8.4.1.5-1,.6.9.4v.5l-.7.6.7.4.5.4-.7.2,1,.3-.5.6.6.3-.6.6,1,.2-.4.6.6.3-.6.7.6.3.2.4-.7.8.2.5.3.4,1,.1.1.5-.5.7v.5h1.1l-.5.8.8.2-.1.6.5.3.2.4.2.5-.3.7.1.5.3.4h.9l-.1.6-.3.8.4.3.6.2v.6h.9l-.1.3-.1.2s-.1.1.2,0c.8-.5,1.5-1,2.2-1.5Z" fill="#102b4c"/></g></g>
              </svg>