<?xml version="1.0" encoding="iso-8859-1" ?>
              <svg
                version="1.1"
                xmlns="http://www.w3.org/2000/svg"
                xmlns:xlink="http://www.w3.org/1999/xlink"
                viewBox="0 0 939 626"
                width="939"
                height="626"
              >
                <g transform="translate(31.692 64.5) scale(1.043 1.043) rotate(0 122.54074784276128 150.04793863854266)"><g clip-path="url(#clipPath_-KORZIn2snfPc7nlADWcH)"><defs>
          <clipPath id="clipPath_-KORZIn2snfPc7nlADWcH">
            <rect x="0" y="0" width="245" height="300" />
          </clipPath>
       </defs> <linearGradient id="SVGID_1_-KORZIn2snfPc7nlADWcH" gradientUnits="userSpaceOnUse" x1="1886.9148" y1="-1735.4723" x2="1892.7572" y2="-1355.0758" gradientTransform="matrix(0.2629 0 0 -0.2629 -371.4984 -272.4141)">  <stop offset="0" stop-color="#428DFC"/>  <stop offset="1" stop-color="#1D72D8"/> </linearGradient> <path fill="url(#SVGID_1_-KORZIn2snfPc7nlADWcH)" d="M34.542,217.637c8.733-10.221,15.592-27.619,23.067-37.54c6.54-8.679,6.749-18.987,13.29-27.666  c-5.591,21.735-11.179,43.47-16.77,65.206h133.947c-5.206-25.769-10.843-51.445-17.793-76.793  c10.004,28.306,25.723,54.576,45.906,76.793h27.711c-0.137-0.589-0.282-1.175-0.439-1.747c-6.117-22.34-18.09-42.553-29.929-62.458  c-14.409-24.226-17.799-35.921-32.207-60.146c-1.692-2.845-8.161-11.174-12.027-12.464c-2.111-0.704-6.014,0.86-12.887,2.579  c-7.038,1.76-10.713,2.968-16.427,7.44c-2.742,2.147-5.551,4.329-8.844,5.458c-3.656,1.252-7.641,1.108-11.475,0.619  c-8.188-1.044-16.181-3.605-23.452-7.513c-5.576-2.997-16.806-10.045-22.279-6.864c-1.403,0.814-5.722,3.051-8.592,8.165  c-24.2,43.129-30.584,58.94-54.985,106.151c-3.155,6.105-5.133,13.632-6.152,20.78L34.542,217.637L34.542,217.637z"/> <path fill="#FFBEB6" d="M85.597,50.666c-1.834,2.982-2.822,6.404-3.561,9.826c-2.817,13.057-2.533,30.126,3.924,41.817  c6.459,11.691,10.31,10.744,21.479,15.043c2.092,0.805,16.069,0.861,18.125-0.031c2.739-1.188,10.228-4.697,14.093-11.143  c10.404-17.347,13.576-30.615,8.161-47.704c-3.253-10.269-10.989-14.076-20.95-18.166s-21.724-3.527-31.25,1.494  C91.625,43.906,87.962,46.819,85.597,50.666z"/> <g>  <path fill="#1C2868" d="M97.968,105.322c-3.492,0-6.602-1.221-8.291-3.608c-0.206-0.291-0.137-0.693,0.153-0.899   c0.291-0.202,0.693-0.136,0.899,0.153c2.382,3.364,9.361,4.45,15.568,0.629c0.304-0.189,0.7-0.092,0.887,0.211   c0.187,0.302,0.092,0.701-0.211,0.887C104.11,104.458,100.904,105.322,97.968,105.322z"/> </g> <path fill="#E94A47" d="M101.922,29.84c11.484-4.681,19.65-1.698,31.722,2.419c8.18,2.79,13.118,14.306,15.894,23.208  c2.776,8.902,4.296,12.464,1.718,24.067c-0.859,7.307-4.726,13.753-4.726,13.753s-16.026-6.081-26.634-10.315  c-13.837-5.524-32.218-18.574-39.759-4.676c-0.91-10.926,1.193-22.298,4.551-29.134C88.045,42.323,95.296,32.54,101.922,29.84z"/> <path fill="#E94A47" d="M102.242,21.185c-0.183-7.823,3.905-15.904,10.923-19.36c3.129-1.54,6.718-2.131,10.175-1.675  c7.957,1.05,14.679,8.046,15.605,16.022s-3.891,16.234-11.21,19.532c-5.498,2.477-12.127,2.22-17.466-0.581  c-1.511-0.793-2.93-1.784-4.095-3.031C103.474,29.204,102.335,25.137,102.242,21.185z"/> <g>  <path fill="#E94A47" d="M150.027,49.7c-0.277,0-0.533-0.181-0.617-0.459c-0.933-3.118-2.216-6.136-3.812-8.97   c-0.864-1.531-1.955-3.264-3.504-4.511c-2.902-2.334-6.813-2.66-11.253-2.823c-0.356-0.014-0.633-0.312-0.62-0.669   c0.013-0.357,0.319-0.614,0.668-0.621c3.605,0.135,8.541,0.317,12.012,3.109c1.719,1.383,2.895,3.246,3.818,4.884   c1.643,2.917,2.962,6.024,3.922,9.231c0.102,0.342-0.092,0.701-0.431,0.802C150.151,49.692,150.089,49.7,150.027,49.7z"/> </g> <g>  <path fill="#E94A47" d="M147.838,34.957c-0.197,0-0.392-0.089-0.518-0.261c-1.806-2.434-4.554-4.145-7.538-4.694   c-2.981-0.548-6.157,0.073-8.713,1.703c-0.301,0.188-0.698,0.102-0.889-0.197c-0.19-0.299-0.103-0.698,0.196-0.89   c2.83-1.803,6.346-2.49,9.64-1.885c3.3,0.609,6.339,2.501,8.339,5.194c0.212,0.287,0.153,0.689-0.132,0.901   C148.105,34.916,147.97,34.957,147.838,34.957z"/> </g> <g>  <path fill="#E94A47" d="M130.01,29.306c-0.328,0-0.61-0.249-0.64-0.582c-0.034-0.355,0.226-0.67,0.58-0.704   c6.753-0.644,13.326-3.815,18.033-8.702c0.247-0.258,0.656-0.262,0.911-0.019c0.256,0.246,0.264,0.657,0.016,0.912   c-4.916,5.107-11.784,8.42-18.839,9.093C130.05,29.305,130.031,29.306,130.01,29.306z"/> </g> <path fill="#FFBEB6" d="M108.887,129.98c-1.542-5.682-14.266-17.665-16.414-18.263c-1.795-0.498-4.139-1.103-5.519,0.148  c-6.967,6.32-15.09,16.697-20.12,26.048c-4.566,8.489-10.117,13.863-16.717,20.885c-6.712,7.143-13.422,14.285-20.134,21.427  c-8.528,9.077-17.18,18.327-22.723,29.481C1.717,220.86-0.368,234.4,4.684,245.784c0.361,0.812,0.812,1.667,1.615,2.047  c1.161,0.548,2.509-0.115,3.604-0.786c16.963-10.419,29.594-26.684,39.559-43.924s12.477-25.303,21.903-42.843  c1.961-3.647,6.687-16.931,8.255-20.762c0.729-1.782,1.657-5.863,2.812-7.402c0.914-1.217,4.102-0.973,5.461-1.658  c4.486-2.257,6.881-4.512,8.385-6.766c1.33,2.459,3.932,5.57,6.879,7.446c0.079,3.676,0.909,2.725-1.21,5.729  c-2.037,2.888-6.876,4.479-4.642,6.963c1.827,0.44,9.212-3.867,9.515-5.724C107.756,132.377,109.297,130.855,108.887,129.98z"/> <linearGradient id="SVGID_2_-KORZIn2snfPc7nlADWcH" gradientUnits="userSpaceOnUse" x1="1413.0787" y1="-1804.7064" x2="1673.4774" y2="-1804.7064" gradientTransform="matrix(0.2629 0 0 -0.2629 -371.4984 -272.4141)">  <stop offset="0" stop-color="#428DFC"/>  <stop offset="1" stop-color="#1D72D8"/> </linearGradient> <path fill="url(#SVGID_2_-KORZIn2snfPc7nlADWcH)" d="M4.786,249.281c-6.998-4.056-4.67-15.438-3.212-23.398c5.141-28.062,24.856-50.885,43.815-72.197  c3.096,11.174,12.049,20.544,23.07,24.14c-9.345,13.325-16.856,27.881-26.47,41.013C32.374,231.971,16.109,255.843,4.786,249.281z"/> <g>  <path fill="#1C2868" d="M130.658,104.461c-2.936,0-6.142-0.864-9.004-2.625c-0.303-0.187-0.397-0.585-0.211-0.887   c0.187-0.303,0.581-0.401,0.887-0.211c6.207,3.821,13.185,2.734,15.568-0.629c0.206-0.291,0.609-0.357,0.899-0.153   c0.29,0.206,0.359,0.609,0.153,0.899C137.26,103.24,134.15,104.461,130.658,104.461z"/> </g> <g>  <path fill="#E94A47" d="M85.18,96.337c-1.716,0-3.505-0.928-4.652-2.474c-1.067-1.435-1.642-3.333-1.713-5.642   c-0.152-5.038,2.191-10.131,6.113-13.296c3.853-3.106,9.203-4.329,14.024-3.211c0.039-0.089,0.094-0.166,0.162-0.222   c0.336-0.276,0.844-0.189,1.14,0.053c0.31,0.252,0.393,0.655,0.21,1.002c-0.15,0.287-0.552,0.728-1.563,0.479   c-4.507-1.124-9.549-0.012-13.164,2.902c-3.615,2.915-5.772,7.608-5.633,12.252c0.06,2.038,0.552,3.691,1.457,4.913   c1.048,1.412,2.742,2.175,4.217,1.899c0.356-0.067,0.686,0.166,0.751,0.514c0.066,0.349-0.163,0.686-0.514,0.752   C85.744,96.311,85.462,96.337,85.18,96.337z"/> </g> <g>  <path fill="#E94A47" d="M142.189,105.27c-5.768,0-10.85-2.524-14.198-4.739c-4.576-3.026-8.42-7.01-12.137-10.861l-8.469-8.779   c-3.713-3.849-8.335-8.638-14.201-9.877c-0.349-0.073-0.57-0.415-0.497-0.764c0.073-0.349,0.416-0.567,0.763-0.498   c6.254,1.32,11.028,6.267,14.864,10.243l8.469,8.779c3.669,3.802,7.461,7.735,11.92,10.682c3.453,2.283,8.836,4.916,14.811,4.475   c3.753-0.276,6.855-1.82,8.51-4.241c0.201-0.293,0.602-0.37,0.895-0.167c0.293,0.2,0.369,0.602,0.168,0.894   c-1.879,2.746-5.336,4.495-9.48,4.8C143.131,105.253,142.657,105.27,142.189,105.27z"/> </g> <path fill="#FFBEB6" d="M116.973,122.524c0.886-0.361,1.528-1.13,2.135-1.87c1.287-1.574,2.575-3.147,3.862-4.721  c0.252-0.307,0.511-0.637,0.56-1.03c0.061-0.501-0.232-0.97-0.514-1.388c-2.205-3.282-4.412-6.564-6.616-9.845  c-1.768,0.177-3.551,0.195-5.324,0.053c-0.857,3.755-2.66,7.289-5.196,10.187c1.606,2.545,3.577,4.858,5.836,6.847  C113.18,122.045,115.165,123.261,116.973,122.524z"/> <path fill="#FFBEB6" d="M138.464,108.831c2.363-7.449,0.924-4.172,4.646-11.196c1.096-2.068,14.37-5.752,16.681-6.127  c6.545-1.056,9.596-2.262,11.824,0.211c27.027,29.997,37.587,70.296,61.488,101.994c4.428,5.873,9.203,13.373,6.067,20.028  c-2.685,5.701-10.403,7.555-16.353,5.483s-10.397-7.039-14.111-12.13c-11.513-15.791-18.486-34.356-25.325-52.665  c-5.951-15.936-8.563-33.464-14.513-49.399c-0.883-2.369-4.223-0.844-9.924-0.211c-4.765,0.53-6.609-1.133-11.402-1.056  c-1.172,4.275-2.297,4.087-2.111,5.493c0.301,2.286,4.543,4.327,4.645,7.394C145.643,118.126,136.953,113.591,138.464,108.831z"/> <linearGradient id="SVGID_3_-KORZIn2snfPc7nlADWcH" gradientUnits="userSpaceOnUse" x1="2106.0618" y1="-1756.4774" x2="2344.9919" y2="-1756.4774" gradientTransform="matrix(0.2629 0 0 -0.2629 -371.4984 -272.4141)">  <stop offset="0" stop-color="#428DFC"/>  <stop offset="1" stop-color="#1D72D8"/> </linearGradient> <path fill="url(#SVGID_3_-KORZIn2snfPc7nlADWcH)" d="M210.66,143.355c4.291,15.445,17.555,26.783,23.869,41.517c6.114,14.269,11.248,24.85,10.374,40.35  c-0.246,4.368-5.287,8.998-6.872,9.885c-4.744,2.653-26.136-15.335-30.208-21.446c-6.873-10.315-9.746-12.273-14.342-24.303  c-4.851-12.699-7.429-24.303-11.294-37.625C193.432,152.618,201.964,150.548,210.66,143.355z"/> <polygon fill="#E94A47" points="189.488,257.024 36.56,256.164 6.49,299.14 220.416,300 "/> <polygon fill="#D6D7D8" points="114.097,291.835 21.095,291.835 45.796,254.876 114.097,254.876 "/> <polygon fill="#EEEEEE" points="113.025,291.835 206.025,291.835 181.326,254.876 113.025,254.876 "/> <path id="texture_5_-KORZIn2snfPc7nlADWcH" fill="#FFFFFF" d="M107.581,154.12c0.096,0.36,0.39,0.589,0.749,0.493l0,0c0.359-0.096,0.589-0.39,0.493-0.749  l0,0c-0.096-0.36-0.39-0.589-0.749-0.493l0,0C107.713,153.467,107.484,153.761,107.581,154.12L107.581,154.12z M131.539,211.652  c-0.23,0.292-0.132,0.652,0.16,0.882c0.292,0.23,0.652,0.132,0.881-0.16l0,0c0.23-0.292,0.132-0.652-0.16-0.882  C132.162,211.1,131.769,211.36,131.539,211.652L131.539,211.652L131.539,211.652z M139.742,198.034  c-0.23,0.292-0.132,0.652,0.16,0.882c0.292,0.23,0.652,0.132,0.881-0.16l0,0c0.23-0.292,0.132-0.652-0.16-0.882l0,0  C140.493,197.677,139.971,197.742,139.742,198.034L139.742,198.034z M111.889,183.874c0.292,0.23,0.619,0.296,0.979,0.198  c0.23-0.292,0.296-0.619,0.198-0.979c-0.292-0.23-0.619-0.296-0.816-0.166C111.696,183.154,111.629,183.481,111.889,183.874z   M124.841,174.45c0.292,0.23,0.619,0.296,0.979,0.198c0.23-0.292,0.296-0.619,0.198-0.979c-0.292-0.23-0.619-0.296-0.816-0.166  C124.647,173.729,124.548,174.22,124.841,174.45L124.841,174.45z M163.342,215.577c-0.066,0.326,0.194,0.719,0.519,0.785  c0.326,0.066,0.719-0.194,0.785-0.52l0,0c0.066-0.326-0.194-0.719-0.519-0.785l0,0C163.8,214.99,163.408,215.25,163.342,215.577z   M165.873,199.784c-0.066,0.326,0.194,0.719,0.519,0.785c0.326,0.066,0.719-0.194,0.785-0.52c0.066-0.326-0.194-0.719-0.519-0.785  l0,0C166.332,199.197,165.939,199.458,165.873,199.784L165.873,199.784L165.873,199.784z M103.121,171.049  c0.13,0.196,0.587,0.459,0.816,0.166c0.196-0.13,0.459-0.587,0.166-0.817c-0.13-0.196-0.587-0.459-0.816-0.166l0,0  C102.927,170.329,102.86,170.656,103.121,171.049L103.121,171.049z M115.316,163.677c0.13,0.196,0.587,0.459,0.816,0.166  c0.196-0.13,0.426-0.423,0.166-0.817c-0.13-0.196-0.423-0.426-0.816-0.166l0,0C115.251,163.155,115.185,163.481,115.316,163.677  L115.316,163.677L115.316,163.677z M150.776,206.394c-0.066,0.326,0.031,0.686,0.357,0.752c0.326,0.066,0.522-0.063,0.751-0.357l0,0  c0.066-0.326-0.031-0.686-0.357-0.752l0,0C151.201,205.971,150.843,206.067,150.776,206.394L150.776,206.394z M154.246,192.661  c-0.066,0.326,0.031,0.686,0.357,0.752c0.326,0.066,0.522-0.063,0.751-0.357l0,0c0.066-0.326-0.031-0.686-0.357-0.752l0,0  C154.673,192.239,154.313,192.335,154.246,192.661L154.246,192.661z M126.76,186.729c-0.23,0.292-0.132,0.652,0.16,0.882  c0.292,0.23,0.652,0.132,0.881-0.16c0.23-0.292,0.132-0.652-0.16-0.882C127.346,186.339,126.988,186.436,126.76,186.729  L126.76,186.729z M95.866,184.181c-0.23,0.292-0.132,0.652,0.16,0.882s0.652,0.132,0.881-0.16c0.23-0.292,0.132-0.652-0.16-0.882  C96.455,183.79,96.096,183.887,95.866,184.181L95.866,184.181z M105.666,171.057c-0.23,0.292-0.132,0.652,0.16,0.882  s0.652,0.132,0.881-0.16c0.23-0.292,0.132-0.652-0.16-0.882C106.255,170.667,105.895,170.763,105.666,171.057L105.666,171.057z   M115.334,157.737c-0.23,0.292-0.132,0.652,0.16,0.882s0.652,0.132,0.881-0.16c0.23-0.292,0.132-0.652-0.16-0.882  C115.89,157.509,115.53,157.606,115.334,157.737z M162.669,201.34c0.096,0.36,0.39,0.589,0.749,0.493  c0.359-0.096,0.589-0.39,0.493-0.749c-0.096-0.36-0.39-0.589-0.749-0.493C162.835,200.525,162.573,200.982,162.669,201.34  L162.669,201.34z M106.56,136.587c-0.393,0.261-0.459,0.587-0.198,0.979 M128.31,191.631c-0.066,0.326,0.194,0.719,0.519,0.785  c0.326,0.066,0.719-0.194,0.785-0.52c0.066-0.326-0.194-0.719-0.519-0.785l0,0C128.768,191.045,128.375,191.305,128.31,191.631  L128.31,191.631L128.31,191.631z M117.084,191.725c-0.066,0.326,0.194,0.719,0.519,0.785c0.326,0.066,0.719-0.194,0.785-0.52  c0.066-0.326-0.031-0.686-0.519-0.785C117.542,191.139,117.15,191.399,117.084,191.725L117.084,191.725z M121.638,176.005  c-0.066,0.326,0.194,0.719,0.519,0.785s0.685-0.031,0.785-0.52c0.066-0.326-0.194-0.719-0.486-0.949  C122.096,175.418,121.705,175.679,121.638,176.005L121.638,176.005z M101.409,155.243c-0.23,0.292-0.132,0.652,0.16,0.882l0,0  c0.292,0.23,0.652,0.132,1.045-0.128c0.23-0.292,0.132-0.652-0.128-1.045C101.998,154.853,101.639,154.95,101.409,155.243  L101.409,155.243z M107.842,153.663c-0.066,0.326,0.063,0.522,0.194,0.719c0.326,0.066,0.522-0.063,0.719-0.194  c0.066-0.326-0.063-0.522-0.194-0.719l0,0C108.235,153.404,107.876,153.5,107.842,153.663L107.842,153.663L107.842,153.663z"/> </g></g>
              </svg>